<ttFont>
<head>
    <!-- Most of this table will be recalculated by the compiler -->
    <tableVersion value="1.0"/>
    <fontRevision value="1.002"/>
    <checkSumAdjustment value="0x46ad208"/>
    <magicNumber value="0x5f0f3cf5"/>
    <flags value="00000000 00001011"/>
    <unitsPerEm value="1000"/>
    <created value="Thu Jan 14 16:29:20 2016"/>
    <modified value="Thu Jan  2 08:44:58 2020"/>
    <xMin value="-1650"/>
    <yMin value="-356"/>
    <xMax value="771"/>
    <yMax value="1145"/>
    <macStyle value="00000000 00000010"/>
    <lowestRecPPEM value="8"/>
    <fontDirectionHint value="2"/>
    <indexToLocFormat value="0"/>
    <glyphDataFormat value="0"/>
  </head>
          <CharString index="0">
            -263 -191 -95 -151 0 -168 0 -124 54 -132 136 -165 rrcurveto
            108 76 rlineto
            -121 139 -41 106 0 102 0 134 61 120 237 165 rrcurveto
            return
          </CharString>
          <CharString index="1">
            263 191 95 151 0 168 0 124 -54 132 -136 165 rrcurveto
            -108 -76 rlineto
            121 -139 41 -106 0 -102 0 -134 -61 -120 -237 -165 rrcurveto
            return
          </CharString>
          <CharString index="2">
            143 10 rlineto
            -10 208 -13 204 -14 203 rrcurveto
            -197 hlineto
            return
          </CharString>
          <CharString index="3">
            -95 -206 -93 -208 -85 -206 rrcurveto
            145 hlineto
            18 50 20 50 19 50 rrcurveto
            158 hlineto
            2 -52 1 -52 1 -51 rrcurveto
            return
          </CharString>
          <CharString index="4">
            8 hlineto
            3 -80 2 -80 2 -81 rrcurveto
            -113 hlineto
            32 81 34 80 32 80 rrcurveto
            return
          </CharString>
          <CharString index="5">
            -178 -146 -192 -212 hvcurveto
            0 -209 143 -88 269 89 rrcurveto
            15 126 rlineto
            -203 -64 -80 37 0 130 0 114 60 142 90 0 46 0 10 -33 -2 -93 rrcurveto
            135 2 rlineto
            8 170 -44 81 -123 0 rrcurveto
            return
          </CharString>
          <CharString index="6">
            0 189 -122 80 -270 -43 rrcurveto
            return
          </CharString>
          <CharString index="7">
            -119 -615 rlineto
            377 -48 134 212 0 225 rrcurveto
            return
          </CharString>
          <CharString index="8">
            0 -140 -69 -128 -134 5 rrcurveto
            76 395 rlineto
            89 6 38 -46 0 -92 rrcurveto
            return
          </CharString>
          <CharString index="9">
            -256 0 27 138 210 0 21 104 -210 0 27 138 249 0 23 120 -393 0 -120 -620 389 0 rlineto
            return
          </CharString>
          <CharString index="10">
            85 356 -135 -4 -28 -125 rlineto
            -103 -26 -46 42 0 101 0 124 59 143 86 0 42 0 11 -37 -2 -88 rrcurveto
            135 2 rlineto
            10 170 -46 81 -121 0 -177 0 -142 -196 0 -218 rrcurveto
            return
          </CharString>
          <CharString index="11">
            0 -167 94 -87 172 32 rrcurveto
            -24 -105 rlineto
            return
          </CharString>
          <CharString index="12">
            76 394 131 0 21 113 -406 0 -22 -113 132 0 -76 -394 -131 0 -22 -113 406 0 28 113 rlineto
            return
          </CharString>
          <CharString index="13">
            151 18 -121 298 222 313 -152 0 -218 -311 rlineto
            return
          </CharString>
          <CharString index="14">
            -120 -620 143 0 120 620 rlineto
            return
          </CharString>
          <CharString index="15">
            24 122 -263 0 96 498 -146 0 -120 -620 rlineto
            return
          </CharString>
          <CharString index="16">
            121 620 -135 0 -65 -355 -4 0 rlineto
            return
          </CharString>
          <CharString index="17">
            -100 357 -129 -4 -121 -618 135 0 64 355 5 0 rlineto
            return
          </CharString>
          <CharString index="18">
            -176 -123 -191 -217 -169 87 -68 115 176 123 191 217 169 -87 68 -115 hvcurveto
            return
          </CharString>
          <CharString index="19">
            -40 -26 34 85 135 52 145 81 40 26 -34 -85 -135 -52 -145 -81 hvcurveto
            return
          </CharString>
          <CharString index="20">
            156 20 -103 252 rlineto
            80 52 57 69 0 86 0 107 -90 82 -296 -42 rrcurveto
            return
          </CharString>
          <CharString index="21">
            -119 -616 142 0 97 506 rlineto
            80 10 42 -24 0 -53 0 -54 -34 -50 -113 -54 rrcurveto
            -1 vlineto
            return
          </CharString>
          <CharString index="22">
            -21 117 -53 65 -117 0 -147 0 -97 -92 0 -104 0 -145 232 -62 0 -75 0 -41 -71 -23 -204 58 rrcurveto
            return
          </CharString>
          <CharString index="23">
            325 -63 129 108 0 105 0 138 -237 65 0 91 0 34 30 25 42 0 46 0 30 -23 18 -64 rrcurveto
            return
          </CharString>
          <CharString index="24">
            164 0 24 122 -473 0 -24 -122 163 0 -96 -498 146 0 rlineto
            return
          </CharString>
          <CharString index="25">
            73 380 -143 0 -71 -367 rlineto
            -39 -198 81 -68 134 0 128 0 89 58 33 168 rrcurveto
            79 407 -144 0 -79 -410 rlineto
            -14 -72 -30 -28 -44 0 -40 0 -34 22 21 108 rrcurveto
            return
          </CharString>
          <CharString index="26">
            137 hlineto
            39 117 66 236 65 267 rrcurveto
            -140 0 rlineto
            return
          </CharString>
          <CharString index="27">
            -92 -422 -4 0 -7 234 -77 0 -98 -234 -5 0 69 422 -143 0 rlineto
            -39 -264 -23 -237 -3 -119 rrcurveto
            132 0 114 265 rlineto
            return
          </CharString>
          <CharString index="28">
            271 421 -154 0 -160 -279 rlineto
            return
          </CharString>
          <CharString index="29">
            -62 282 -149 -6 111 -410 -40 -207 rlineto
            return
          </CharString>
          <CharString index="30">
            24 126 -271 -3 339 376 20 121 -427 0 -24 -126 269 3 -344 -376 -22 -121 rlineto
            return
          </CharString>
          <CharString index="31">
            326 0 22 110 -186 0 127 660 186 0 22 110 -325 0 rlineto
            return
          </CharString>
          <CharString index="32">
            -326 0 -22 -110 186 0 -127 -660 -186 0 -22 -110 325 0 rlineto
            return
          </CharString>
          <CharString index="33">
            -66 41 -99 75 -68 59 rrcurveto
            -79 -109 rlineto
            78 -44 129 -57 77 -22 rrcurveto
            return
          </CharString>
          <CharString index="34">
            -23 -19 15 44 100 52 125 59 hvcurveto
            17 0 28 -5 31 -11 -14 -72 -19 -98 -9 -45 rrcurveto
            -37 -32 -40 -21 -26 0 rrcurveto
            return
          </CharString>
          <CharString index="35">
            -11 68 rlineto
            -69 -13 -3 1 8 40 rrcurveto
            68 352 rlineto
            -53 16 -58 8 -48 0 rrcurveto
            -205 -118 -189 -186 -106 45 -50 59 hvcurveto
            53 0 65 43 57 56 rrcurveto
            -4 -105 50 -33 164 98 rrcurveto
            return
          </CharString>
          <CharString index="36">
            12 144 -48 56 -107 0 -173 0 -144 -156 0 -183 0 -158 125 -109 298 133 rrcurveto
            -10 72 rlineto
            -228 -33 -46 24 0 100 0 101 60 91 78 0 43 0 15 -25 -1 -59 rrcurveto
            return
          </CharString>
          <CharString index="37">
            -26 -21 23 56 91 56 119 59 hvcurveto
            15 0 29 -4 31 -11 rrcurveto
            -42 -219 rlineto
            -36 -32 -38 -23 -27 0 rrcurveto
            return
          </CharString>
          <CharString index="38">
            -10 66 rlineto
            -75 -16 -3 1 7 39 rrcurveto
            110 568 -137 -10 -34 -177 rlineto
            -12 1 -12 1 -11 0 rrcurveto
            -199 -119 -187 -179 -113 49 -55 60 hvcurveto
            52 0 62 43 55 53 rrcurveto
            -6 -101 50 -31 173 97 rrcurveto
            return
          </CharString>
          <CharString index="39">
            -13 71 rlineto
            -234 -43 -62 10 -6 87 222 16 117 71 0 117 rrcurveto
            82 -59 51 -95 -177 -142 -176 -163 vhcurveto
            0 -165 149 -109 300 151 rrcurveto
            return
          </CharString>
          <CharString index="40">
            38 24 -22 -31 hvcurveto
            0 -58 -75 -31 -126 -9 18 80 52 71 69 0 rrcurveto
            return
          </CharString>
          <CharString index="41">
            31 62 -30 80 0 112 rrcurveto
            8 vlineto
            return
          </CharString>
          <CharString index="42">
            63 102 47 119 0 52 0 24 -58 22 -31 0 -11 0 -13 -9 -13 -16 rrcurveto
            return
          </CharString>
          <CharString index="43">
            -28 12 -30 7 -33 0 rrcurveto
            -174 -115 -172 -164 -106 53 -46 65 hvcurveto
            54 0 56 33 50 44 5 -61 10 -56 -14 -14 -21 -21 -100 -7 -155 10 rrcurveto
            -13 -131 rlineto
            244 -9 123 49 38 76 rrcurveto
            return
          </CharString>
          <CharString index="44">
            -11 68 rlineto
            -56 -14 -6 3 0 18 rrcurveto
            return
          </CharString>
          <CharString index="45">
            0 -68 -55 -142 0 -76 rrcurveto
            0 -82 75 -21 144 89 rrcurveto
            return
          </CharString>
          <CharString index="46">
            43 141 -160 -8 -33 -140 rlineto
            return
          </CharString>
          <CharString index="47">
            -11 71 rlineto
            -190 -30 -6 9 22 83 rrcurveto
            83 320 -115 0 -211 -48 10 -70 155 5 -64 -233 rlineto
            -46 -166 87 -66 286 125 rrcurveto
            return
          </CharString>
          <CharString index="48">
            115 86 46 76 0 62 0 57 -37 37 -64 0 -61 0 -65 -34 -66 -65 rrcurveto
            55 284 -138 -10 -135 -696 136 0 rlineto
            return
          </CharString>
          <CharString index="49">
            61 312 rlineto
            47 50 42 33 39 0 23 0 12 -11 0 -20 0 -34 -36 -54 -126 -82 rrcurveto
            return
          </CharString>
          <CharString index="50">
            -18 67 rlineto
            -132 -46 -67 6 -19 83 185 140 106 147 0 128 rrcurveto
            79 -43 42 -68 -159 -168 -222 -276 vhcurveto
            0 -15 1 -14 1 -14 rrcurveto
            -68 -43 32 -54 50 29 rlineto
            43 -130 132 -16 192 109 rrcurveto
            return
          </CharString>
          <CharString index="51">
            19 16 -13 -33 hvcurveto
            0 -63 -55 -98 -115 -107 6 192 70 122 59 0 rrcurveto
            return
          </CharString>
          <CharString index="52">
            0 46 57 152 0 99 0 55 -21 48 -71 0 -58 0 -60 -32 -59 -61 rrcurveto
            return
          </CharString>
          <CharString index="53">
            11 83 -136 -8 rlineto
            -20 -149 -23 -114 -46 -240 rrcurveto
            135 0 rlineto
            return
          </CharString>
          <CharString index="54">
            67 331 rlineto
            39 38 33 20 26 0 25 0 10 -17 0 -26 rrcurveto
            return
          </CharString>
          <CharString index="55">
            -130 77 -80 122 163 116 153 173 130 -77 80 -122 -163 -116 -153 -173 vhcurveto
            return
          </CharString>
          <CharString index="56">
            -97 -48 -98 -72 -46 -30 40 73 97 48 98 72 46 30 -40 -73 vhcurveto
            return
          </CharString>
          <CharString index="57">
            43 218 rlineto
            36 32 41 23 27 0 rrcurveto
            26 21 -23 -56 hvcurveto
            -91 -56 -119 -59 vhcurveto
            return
          </CharString>
          <CharString index="58">
            -7 70 rlineto
            -124 -28 -17 11 166 394 rrcurveto
            -67 29 rlineto
            -41 -22 -62 -21 -60 -12 1 6 0 6 0 6 rrcurveto
            43 -26 25 -38 -74 -72 -70 -61 vhcurveto
            0 -35 26 -21 40 -10 -29 -49 -41 -50 -55 -61 rrcurveto
            48 -51 rlineto
            74 72 61 69 39 64 31 2 32 6 31 7 -157 -349 68 -85 253 115 rrcurveto
            return
          </CharString>
          <CharString index="59">
            0 82 -83 70 -43 59 rrcurveto
            return
          </CharString>
          <CharString index="60">
            100 100 -37 67 -86 0 -74 0 -78 -45 0 -78 0 -22 7 -21 10 -20 -33 -26 -46 -30 -61 -37 rrcurveto
            29 -62 rlineto
            return
          </CharString>
          <CharString index="61">
            63 31 53 29 43 28 46 -51 52 -45 0 -36 0 -36 -58 -10 -176 9 rrcurveto
            return
          </CharString>
          <CharString index="62">
            -3 -125 rlineto
            290 -3 85 82 0 90 rrcurveto
            return
          </CharString>
          <CharString index="63">
            -6 68 rlineto
            -186 -35 -27 20 20 80 rrcurveto
            46 210 174 0 20 107 -171 0 32 148 -104 -8 -94 -140 -59 0 -26 -107 91 0 -48 -218 rlineto
            -39 -172 114 -93 263 140 rrcurveto
            return
          </CharString>
          <CharString index="64">
            -11 68 rlineto
            -65 -16 -3 4 8 39 rrcurveto
            return
          </CharString>
          <CharString index="65">
            71 366 -135 0 -64 -330 rlineto
            -35 -39 -36 -20 -27 0 -31 0 -7 24 10 47 rrcurveto
            return
          </CharString>
          <CharString index="66">
            132 hlineto
            73 220 41 132 39 153 rrcurveto
            -143 hlineto
            -21 -121 -15 -83 -27 -144 rrcurveto
            -5 0 -18 211 -81 0 -101 -211 -3 0 rlineto
            26 138 16 86 27 124 rrcurveto
            -138 hlineto
            -29 -193 -22 -213 -4 -99 rrcurveto
            128 0 104 204 rlineto
            return
          </CharString>
          <CharString index="67">
            31 63 -19 106 -4 80 60 102 37 123 0 56 0 25 -61 15 -35 0 -44 0 -71 -153 -5 -161 -39 -32 -37 -13 -24 0 rrcurveto
            return
          </CharString>
          <CharString index="68">
            -44 0 -21 48 106 302 rrcurveto
            -134 -5 rlineto
            -139 -373 56 -94 100 0 62 0 64 32 53 43 5 -64 6 -55 -15 -15 -21 -21 -96 -6 -152 11 rrcurveto
            -19 -132 rlineto
            243 -9 117 47 40 80 rrcurveto
            return
          </CharString>
          <CharString index="69">
            33 122 -256 -5 299 274 23 116 -401 0 -33 -122 250 5 -301 -274 -23 -116 rlineto
            return
          </CharString>
          <CharString index="70">
            57 101 rlineto
            -123 52 -57 38 0 41 rrcurveto
            return
          </CharString>
          <CharString index="71">
            0 56 111 32 0 75 0 35 -23 33 -65 24 rrcurveto
            return
          </CharString>
          <CharString index="72">
            0 49 -56 57 0 34 0 41 71 28 166 28 rrcurveto
            -25 114 rlineto
            -265 -63 -79 -83 0 -76 rrcurveto
            return
          </CharString>
          <CharString index="73">
            0 -64 61 -50 0 -35 0 -24 -28 -16 -107 -4 rrcurveto
            -22 -98 rlineto
            return
          </CharString>
          <CharString index="74">
            0 -46 -117 -29 0 -92 rrcurveto
            0 -69 69 -52 195 -86 rrcurveto
            return
          </CharString>
          <CharString index="75">
            0 64 -61 50 0 35 0 24 28 16 107 4 rrcurveto
            22 98 rlineto
            return
          </CharString>
          <CharString index="76">
            0 46 117 29 0 92 0 69 -69 52 -195 86 rrcurveto
            -57 -101 rlineto
            123 -52 57 -38 0 -41 rrcurveto
            return
          </CharString>
          <CharString index="77">
            0 -56 -111 -32 0 -75 0 -35 23 -33 65 -24 rrcurveto
            return
          </CharString>
          <CharString index="78">
            0 -49 56 -57 0 -34 0 -41 -71 -28 -166 -28 rrcurveto
            return
          </CharString>
          <CharString index="79">
            45 139 -160 -3 -34 -137 rlineto
            return
          </CharString>
          <CharString index="80">
            44 138 -159 -2 -35 -138 rlineto
            return
          </CharString>
          <CharString index="81">
            113 73 -126 192 195 190 -86 86 -194 -202 -28 -139 rlineto
            return
          </CharString>
          <CharString index="82">
            -361 0 -23 -115 362 0 rlineto
            return
          </CharString>
          <CharString index="83">
            19 90 -163 0 rlineto
            122 72 66 58 0 71 0 85 -94 45 -184 -28 rrcurveto
            -13 -93 rlineto
            134 17 40 -20 0 -34 0 -50 -89 -54 -140 -77 rrcurveto
            -1 -82 rlineto
            return
          </CharString>
          <CharString index="84">
            0 42 -37 35 -87 24 rrcurveto
            146 86 11 88 -277 0 -18 -90 161 0 -151 -87 -6 -42 rlineto
            100 -19 49 -22 0 -21 0 -21 -43 -18 -154 18 rrcurveto
            -13 -94 rlineto
            229 -24 90 76 0 69 rrcurveto
            return
          </CharString>
          <CharString index="85">
            24 -59 rlineto
            80 18 144 51 79 51 rrcurveto
            -87 106 rlineto
            -66 -58 -110 -75 -64 -34 rrcurveto
            return
          </CharString>
          <CharString index="86">
            20 89 -101 0 65 320 -107 -9 -12 -58 -110 -11 -15 -81 107 0 -33 -162 -111 0 -17 -88 rlineto
            return
          </CharString>
          <CharString index="87">
            20 89 -101 0 65 320 -107 -9 -12 -58 -110 -11 -15 -81 107 0 rlineto
            return
          </CharString>
          <CharString index="88">
            -33 -162 -111 0 -17 -88 rlineto
            return
          </CharString>
          <CharString index="89">
            438 0 17 86 -438 0 rlineto
            return
          </CharString>
          <CharString index="90">
            25 88 -48 0 22 114 -100 -7 -21 -107 -97 0 rlineto
            45 65 34 67 38 108 rrcurveto
            -115 5 rlineto
            -32 -109 -31 -69 -45 -82 rrcurveto
            -8 -73 194 0 -13 -67 99 0 13 67 rlineto
            return
          </CharString>
          <CharString index="91">
            0 42 -37 35 -87 24 rrcurveto
            146 86 11 88 -277 0 -18 -90 161 0 -151 -87 rlineto
            return
          </CharString>
          <CharString index="92">
            -6 -42 rlineto
            100 -19 49 -22 0 -21 0 -21 -43 -18 -154 18 rrcurveto
            -13 -94 rlineto
            229 -24 90 76 0 69 rrcurveto
            return
          </CharString>
          <CharString index="93">
            94 71 -160 148 -9 0 -223 -146 61 -69 142 92 rlineto
            return
          </CharString>
          <CharString index="94">
            -30 0 -43 81 -65 0 -56 0 -62 -60 -48 -79 rrcurveto
            67 -38 rlineto
            33 48 23 25 16 0 rrcurveto
            return
          </CharString>
          <CharString index="95">
            29 0 45 -81 65 0 56 0 61 60 48 79 rrcurveto
            -66 38 rlineto
            -33 -49 -24 -24 -16 0 rrcurveto
            return
          </CharString>
          <CharString index="96">
            -87 -60 -54 -63 -56 47 -46 77 87 61 55 63 hvcurveto
            55 -48 46 -77 vhcurveto
            return
          </CharString>
          <CharString index="97">
            11 0 rlineto
            -49 -253 -68 0 rlineto
            36 85 35 85 35 83 rrcurveto
            return
          </CharString>
          <CharString index="98">
            260 0 29 116 -149 0 29 147 112 0 19 96 -113 0 29 145 143 0 23 116 -353 0 rlineto
            -98 -206 -100 -208 -95 -206 rrcurveto
            138 hlineto
            22 49 21 51 22 50 rrcurveto
            90 hlineto
            return
          </CharString>
          <CharString index="99">
            0 189 -122 80 -270 -43 rrcurveto
            -49 -255 -55 0 -19 -98 55 0 rlineto
            return
          </CharString>
          <CharString index="100">
            -51 -262 rlineto
            377 -48 134 212 0 225 rrcurveto
            return
          </CharString>
          <CharString index="101">
            25 98 -89 0 28 147 rlineto
            89 6 38 -46 0 -92 0 -140 -69 -128 -134 5 rrcurveto
            29 150 rlineto
            return
          </CharString>
          <CharString index="102">
            21 0 18 -9 12 -20 rrcurveto
            -178 -251 rlineto
            141 48 139 79 vhcurveto
            return
          </CharString>
          <CharString index="103">
            -23 0 -18 10 -12 22 rrcurveto
            180 253 rlineto
            0 1 0 -1 0 -1 0 -145 -48 -139 -79 0 rrcurveto
            return
          </CharString>
          <CharString index="104">
            0 62 -11 49 -19 38 rrcurveto
            60 85 rlineto
            return
          </CharString>
          <CharString index="105">
            -81 51 -44 -64 rlineto
            -31 18 -36 9 -41 0 -170 0 -122 -181 0 -219 0 -61 10 -49 19 -37 rrcurveto
            -62 -87 rlineto
            return
          </CharString>
          <CharString index="106">
            80 -51 47 65 rlineto
            30 -19 37 -9 42 0 rrcurveto
            return
          </CharString>
          <CharString index="107">
            -12 66 rlineto
            -135 -38 -35 13 0 72 rrcurveto
            17 vlineto
            168 27 61 90 0 91 rrcurveto
            return
          </CharString>
          <CharString index="108">
            67 -41 49 -71 vhcurveto
            -34 0 -33 -11 -30 -19 rrcurveto
            return
          </CharString>
          <CharString index="109">
            16 5 -12 -18 hvcurveto
            0 -24 -16 -64 -78 -23 rrcurveto
            14 76 28 65 31 0 rrcurveto
            return
          </CharString>
          <CharString index="110">
            103 41 123 47 vhcurveto
            12 0 14 -2 17 -11 -38 -64 -24 -85 0 -95 rrcurveto
            -8 vlineto
            -13 -16 -13 -9 -15 0 rrcurveto
            return
          </CharString>
          <CharString index="111">
            94 71 -160 148 -9 0 rlineto
            return
          </CharString>
          <CharString index="112">
            61 -69 142 92 rlineto
            return
          </CharString>
          <CharString index="113">
            99 49 100 73 vhcurveto
            21 0 18 -8 14 -16 rrcurveto
            -174 -193 rlineto
            -1 6 0 6 0 6 rrcurveto
            return
          </CharString>
          <CharString index="114">
            -20 0 -17 8 -13 14 rrcurveto
            172 190 0 -13 rlineto
            -99 -49 -100 -73 vhcurveto
            return
          </CharString>
          <CharString index="115">
            163 116 153 173 hvcurveto
            0 42 -8 36 -15 31 rrcurveto
            69 76 -73 54 -55 -61 rlineto
            -32 21 -39 11 -46 0 -163 0 -116 -153 0 -173 rrcurveto
            return
          </CharString>
          <CharString index="116">
            0 -43 8 -38 16 -31 rrcurveto
            -67 -74 rlineto
            return
          </CharString>
          <CharString index="117">
            72 -54 55 61 rlineto
            31 -20 39 -11 45 0 rrcurveto
            return
          </CharString>
          <CharString index="118">
            69 324 -135 -8 -93 -130 56 -37 -35 -168 rlineto
            -26 -122 36 -62 78 0 53 0 53 30 53 59 -3 -97 61 -27 158 95 rrcurveto
            return
          </CharString>
          <CharString index="119">
            -11 68 rlineto
            -65 -16 -3 4 8 39 rrcurveto
            71 366 -135 0 rlineto
            return
          </CharString>
          <CharString index="120">
            -64 -330 rlineto
            -35 -39 -36 -20 -27 0 -31 0 -7 24 10 47 rrcurveto
            69 324 -135 -8 -93 -130 56 -37 -35 -168 rlineto
            return
          </CharString>
          <CharString index="121">
            -26 -122 36 -62 78 0 53 0 53 30 53 59 -3 -97 61 -27 158 95 rrcurveto
            return
          </CharString>
          <CharString index="122">
            -49 -56 -39 -33 -41 0 -45 0 -30 30 -30 66 rrcurveto
            -102 -55 rlineto
            37 -97 65 -51 76 0 78 0 84 55 75 94 rrcurveto
            return
          </CharString>
          <CharString index="123">
            45 138 -164 -1 -34 -138 rlineto
            return
          </CharString>
          <CharString index="124">
            223 146 -61 69 -142 -91 -95 95 -94 -71 160 -148 rlineto
            return
          </CharString>
          <CharString index="125">
            -2 -81 -10 -75 -24 -80 rrcurveto
            58 -21 rlineto
            65 78 44 78 17 106 rrcurveto
            return
          </CharString>
          <CharString index="126">
            -31 -22 19 51 75 43 107 59 hvcurveto
            16 0 27 -6 35 -19 -21 -57 -16 -67 -5 -64 -30 -26 -29 -13 -26 0 rrcurveto
            return
          </CharString>
          <CharString index="127">
            57 -24 rlineto
            75 49 56 84 15 88 rrcurveto
            -172 -2 rlineto
            5 -61 -11 -75 -25 -59 rrcurveto
            return
          </CharString>
          <CharString index="128">
            -57 24 rlineto
            -75 -49 -56 -84 -15 -88 rrcurveto
            172 2 rlineto
            -5 61 11 75 25 59 rrcurveto
            return
          </CharString>
          <CharString index="129">
            0 -68 -55 -142 0 -76 0 -82 75 -21 144 89 rrcurveto
            return
          </CharString>
          <CharString index="130">
            67 48 82 77 47 54 rrcurveto
            -126 67 rlineto
            -30 -58 -57 -86 -43 -56 rrcurveto
            return
          </CharString>
          <CharString index="131">
            67 48 79 75 47 55 rrcurveto
            -130 59 rlineto
            -30 -58 -51 -78 -43 -55 rrcurveto
            return
          </CharString>
          <CharString index="132">
            67 48 79 75 47 55 rrcurveto
            -130 59 rlineto
            return
          </CharString>
          <CharString index="133">
            -87 -60 -54 -63 -56 47 -46 77 87 61 55 63 55 -48 46 -77 hvcurveto
            return
          </CharString>
          <CharString index="134">
            40 175 -131 0 -40 -175 rlineto
            return
          </CharString>
          <CharString index="135">
            100 95 -163 181 250 173 -78 109 -261 -203 -34 -139 rlineto
            return
          </CharString>
          <CharString index="136">
            261 203 34 139 -186 216 -100 -95 163 -181 -250 -173 rlineto
            return
          </CharString>
          <CharString index="137">
            -101 59 -60 85 117 98 117 135 103 -57 60 -86 -118 -98 -118 -136 vhcurveto
            return
          </CharString>
          <CharString index="138">
            -75 -38 -81 -56 -32 -18 27 53 74 37 83 56 33 18 -27 -54 vhcurveto
            return
          </CharString>
          <CharString index="139">
            0 49 -41 44 -127 21 rrcurveto
            13 58 164 -1 26 90 -270 0 -47 -209 rlineto
            131 -15 45 -20 0 -24 0 -25 -44 -22 -164 13 rrcurveto
            -11 -95 rlineto
            237 -16 88 76 0 76 rrcurveto
            return
          </CharString>
          <CharString index="140">
            98 76 61 88 hvcurveto
            0 95 -102 40 -104 -60 25 45 55 43 119 20 rrcurveto
            -22 87 rlineto
            -215 -48 -81 -115 0 -116 rrcurveto
            -92 62 -48 89 vhcurveto
            return
          </CharString>
          <CharString index="141">
            -31 -33 20 55 hvcurveto
            0 5 0 5 1 4 72 36 48 -22 0 -45 rrcurveto
            -30 -17 -28 -40 vhcurveto
            return
          </CharString>
          <CharString index="142">
            60 104 73 110 85 99 rrcurveto
            19 90 -314 0 -22 -92 201 0 1 -4 rlineto
            -86 -96 -74 -100 -59 -100 rrcurveto
            return
          </CharString>
          <CharString index="143">
            -85 -48 -21 -35 0 -40 rrcurveto
            -56 53 -39 92 vhcurveto
            105 71 51 65 hvcurveto
            return
          </CharString>
          <CharString index="144">
            -34 -29 14 23 hvcurveto
            0 14 10 16 52 29 32 -23 26 -20 0 -19 rrcurveto
            -19 -24 -15 -33 vhcurveto
            return
          </CharString>
          <CharString index="145">
            215 48 81 115 0 116 rrcurveto
            92 -62 48 -89 -98 -76 -61 -88 vhcurveto
            0 -95 102 -40 104 60 -25 -45 -55 -43 -119 -20 rrcurveto
            return
          </CharString>
          <CharString index="146">
            30 17 28 40 31 33 -20 -55 vhcurveto
            0 -5 0 -5 -1 -4 -72 -36 -48 22 0 45 rrcurveto
            return
          </CharString>
          <CharString index="147">
            0 40 -32 33 -35 29 30 13 36 16 43 17 rrcurveto
            -30 58 rlineto
            -54 -22 -46 -19 -39 -18 -22 17 -17 16 0 14 0 22 29 11 105 -29 rrcurveto
            37 98 rlineto
            -176 24 -95 -65 0 -70 0 -32 22 -27 29 -24 rrcurveto
            return
          </CharString>
          <CharString index="148">
            66 339 -80 0 -83 -160 -3 0 rlineto
            return
          </CharString>
          <CharString index="149">
            19 90 -163 0 rlineto
            122 72 66 58 0 71 0 85 -94 45 -184 -28 rrcurveto
            -13 -93 rlineto
            134 17 40 -20 0 -34 rrcurveto
            return
          </CharString>
          <CharString index="150">
            0 -50 -89 -54 -140 -77 rrcurveto
            return
          </CharString>
          <CharString index="151">
            0 49 -41 44 -127 21 rrcurveto
            13 58 164 -1 26 90 -270 0 rlineto
            return
          </CharString>
          <CharString index="152">
            -47 -209 rlineto
            131 -15 45 -20 0 -24 0 -25 -44 -22 -164 13 rrcurveto
            return
          </CharString>
          <CharString index="153">
            -11 -95 rlineto
            237 -16 88 76 0 76 rrcurveto
            return
          </CharString>
          <CharString index="154">
            -85 -48 -21 -35 0 -40 rrcurveto
            -56 53 -39 92 105 71 51 65 vhcurveto
            return
          </CharString>
          <CharString index="155">
            -425 0 -23 -119 425 0 rlineto
            return
          </CharString>
          <CharString index="156">
            9 7 6 9 9 7 -6 -9 -9 -7 -7 -9 vhcurveto
            -9 -7 6 10 hvcurveto
            return
          </CharString>
          <CharString index="157">
            8 -2 3 -4 -4 -2 -3 -8 -9 2 -3 4 vhcurveto
            4 2 3 9 hvcurveto
            return
          </CharString>
          <CharString index="158">
            -6 2 -3 5 vhcurveto
            4 0 2 2 1 4 rrcurveto
            5 hlineto
            return
          </CharString>
          <CharString index="159">
            -24.75 -51 -22 -27 -34.83301 0 rrcurveto
            return
          </CharString>
          <CharString index="160">
            -55 0 -36.66699 100 -89.83301 0 rrcurveto
            return
          </CharString>
          <CharString index="161">
            -89.83398 0 -23.83301 -100 -55 0 rrcurveto
            return
          </CharString>
          <CharString index="162">
            -55 0 -36.66699 100 -89.83301 0 -82.5 0 -46.75 -75 -36.66699 -83 rrcurveto
            80.66699 -40 rlineto
            23.83301 48 22 30 35.75 0 rrcurveto
            return
          </CharString>
          <CharString index="163">
            55 0 38.5 -100 88 0 rrcurveto
            return
          </CharString>
          <CharString index="164">
            88 0 25.66699 100 55 0 rrcurveto
            return
          </CharString>
          <CharString index="165">
            55 0 38.5 -100 88 0 81.58301 0 45.83398 66 38.5 93 rrcurveto
            return
          </CharString>
          <CharString index="166">
            137.5 0 -19.25 -189 157.66602 79 42.16699 -142 -170.5 -38 117.33301 -140 -110 -87 -86.16602 164 -86.16699 -164 -110 87 117.33301 140 -170.5 38 42.16699 142 157.66699 -79 rlineto
            return
          </CharString>
          <CharString index="167">
            137.5 0 -19.25 -189 157.66699 79 42.16699 -142 -170.5 -38 117.33301 -140 -110 -87 -86.16699 164 -86.16602 -164 -110 87 117.33301 140 -170.5 38 42.16699 142 157.66602 -79 rlineto
            return
          </CharString>
          <CharString index="168">
            0 -157 297.91602 -185 -297.91602 -191 0 -152 423.5 286 0 114 rlineto
            return
          </CharString>
          <CharString index="169">
            384.08301 872 -111.83301 57 -385 -872 rlineto
            return
          </CharString>
          <CharString index="170">
            137.5 0 -19.25 -189 157.66699 79 42.16602 -142 -170.5 -38 117.33398 -140 -110 -87 -86.16699 164 -86.16699 -164 -110 87 117.33398 140 -170.5 38 42.16602 142 157.66699 -79 rlineto
            return
          </CharString>
          <CharString index="171">
            -134.75 -915 134.75 hlineto
            return
          </CharString>
          <CharString index="172">
            -946 134.75 946 vlineto
            return
          </CharString>
          <CharString index="173">
            -111.83301 -797 111.83301 hlineto
            512.41699 343 0 114 rlineto
            return
          </CharString>
          <CharString index="174">
            0 490 387.75 -241 rlineto
            return
          </CharString>
          <CharString index="175">
            -134.75 -946 134.75 hlineto
            return
          </CharString>
          <CharString index="176">
            -88 0 23.83398 197 88 0 rlineto
            return
          </CharString>
          <CharString index="177">
            -57 42.16699 -47 54.08301 54.08398 41.25 47 57 57 -41.25 48 -54.08398 -54.08301 -42.16699 -48 -57 vhcurveto
            return
          </CharString>
          <CharString index="178">
            -58 42.16699 -48 54.08301 54.08398 41.25 48 58 56 -41.25 47 -54.08398 -54.08301 -42.16699 -47 -56 vhcurveto
            return
          </CharString>
          <CharString index="179">
            -57 43.08301 -47 53.16699 54.08301 42.16699 47 57 57 -42.16699 48 -54.08301 vhcurveto
            -53.16699 -43.08301 -48 -57 hvcurveto
            return
          </CharString>
          <CharString index="180">
            -58 43.08301 -47 53.16699 54.08301 42.16699 47 58 57 -42.16699 46 -54.08301 -53.16699 -43.08301 -46 -57 vhcurveto
            return
          </CharString>
          <CharString index="181">
            -57 42.16699 -47 54.08301 54.08301 41.25 47 57 57 -41.25 48 -54.08301 -54.08301 -42.16699 -48 -57 vhcurveto
            return
          </CharString>
          <CharString index="182">
            -58 42.16699 -48 54.08301 54.08301 41.25 48 58 56 -41.25 47 -54.08301 -54.08301 -42.16699 -47 -56 vhcurveto
            return
          </CharString>
          <CharString index="183">
            -154 0 19.25 -438 116.41699 0 rlineto
            return
          </CharString>
          <CharString index="184">
            19.25 -438 116.41699 0 rlineto
            return
          </CharString>
          <CharString index="185">
            -45.83301 -36.66699 -41 -49 -50 36.66699 -41 45.83301 46.75 35.75 41 50 49 -35.75 41 -46.75 hvcurveto
            return
          </CharString>
          <CharString index="186">
            -54.08301 -111 319 -177 -319 -177 51.33301 -115 415.25 235 0 114 rlineto
            return
          </CharString>
          <CharString index="187">
            -54.08398 -111 319 -177 -319 -177 51.33398 -115 415.25 235 0 114 rlineto
            return
          </CharString>
          <CharString index="188">
            378.58398 122 -378.58398 hlineto
            return
          </CharString>
          <CharString index="189">
            -422.58301 -285 0 -113 422.58301 -286 0 157 -297.91602 186 297.91602 190 rlineto
            return
          </CharString>
          <CharString index="190">
            -512.41699 -340 0 -114 512.41699 -343 111.83301 0 0 797 rlineto
            return
          </CharString>
          <CharString index="191">
            -387.75 249 387.75 241 rlineto
            return
          </CharString>
          <CharString index="192">
            57 -42.16699 48 -54.08301 -54.08301 -41.25 -48 -57 -57 41.25 -47 54.08301 54.08301 42.16699 47 57 vhcurveto
            return
          </CharString>
          <CharString index="193">
            56 -42.16699 47 -54.08301 -54.08301 -41.25 -47 -56 -58 41.25 -48 54.08301 54.08301 42.16699 48 58 vhcurveto
            return
          </CharString>
          <CharString index="194">
            -412.5 -231 0 -114 415.25 -235 51.33398 115 -319 177 319 177 rlineto
            return
          </CharString>
          <CharString index="195">
            -412.5 -231 0 -114 415.25 -235 51.33301 115 -319 177 319 177 rlineto
            return
          </CharString>
          <CharString index="196">
            68.75 105 -55.91699 hlineto
            17.41699 142 -119.16699 0 -17.41602 -142 -88 0 17.41602 142 -120.08301 0 -16.5 -142 -70.58301 0 0 -105 57.75 0 -23.83398 -197 -67.83301 0 0 -104 55 0 -16.5 -145 rlineto
            119.16699 0 17.41602 145 88 0 -17.41602 -145 119.16602 0 17.41699 145 70.58301 0 0 104 -57.75 0 rlineto
            return
          </CharString>
          <CharString index="197">
            23.83301 197 88 0 -23.83301 -197 rlineto
            return
          </CharString>
          <CharString index="198">
            -222.75 0 22.91602 197 223.66699 0 rlineto
            return
          </CharString>
          <CharString index="199">
            75.16699 55 59 82 82 -55 60 -75.16699 -75.16699 -55 -59 -82 hvcurveto
            -81 55 -61 75.16699 vhcurveto
            return
          </CharString>
          <CharString index="200">
            -61 44.91699 -51 56.83301 56.83301 44.91699 51 61 60 -44.91699 51 -56.83301 -56.83301 -44.91699 -51 -60 vhcurveto
            return
          </CharString>
          <CharString index="201">
            -46.75 -35.75 -41 -49 -50 35.75 -41 46.75 45.83398 36.66602 41 50 49 -36.66602 41 -45.83398 hvcurveto
            return
          </CharString>
          <CharString index="202">
            -95.33398 0 -72.41602 -41 -52.25 -67 rrcurveto
            91.66602 -78 rlineto
            33 41 40.33398 20 41.25 0 43.08301 0 30.25 -20 0 -37 0 -83 -151.25 6 0 -171 rrcurveto
            -26 132 21 vlineto
            0 116 170.5 -11 0 162 rrcurveto
            89 -71.5 79 -139.33301 vhcurveto
            return
          </CharString>
          <CharString index="203">
            -45.83398 -36.66602 -41 -49 -50 36.66602 -41 45.83398 45.83301 37.58301 41 50 49 -37.58301 41 -45.83301 hvcurveto
            return
          </CharString>
          <CharString index="204">
            -461.08301 0 -54.08398 -124 515.16699 0 rlineto
            return
          </CharString>
          <CharString index="205">
            -552.75 0 -54.08301 -123 606.83301 0 rlineto
            return
          </CharString>
          <CharString index="206">
            -111.83301 -797 111.83301 hlineto
            return
          </CharString>
          <CharString index="207">
            -537.16699 -124 537.16699 hlineto
            return
          </CharString>
          <CharString index="208">
            -537.16699 -123 537.16699 hlineto
            return
          </CharString>
          <CharString index="209">
            -1516.16602 -123 1516.16602 hlineto
            return
          </CharString>
          <CharString index="210">
            -601.33301 -124 601.33301 hlineto
            return
          </CharString>
          <CharString index="211">
            -601.33301 -123 601.33301 hlineto
            return
          </CharString>
          <CharString index="212">
            -95.33398 -89 208.08398 -247 -208.08398 -247 95.33398 -89 276.83301 336 rlineto
            return
          </CharString>
          <CharString index="213">
            -276.83301 -336 276.83301 -336 95.33398 89 -208.08398 247 208.08398 247 rlineto
            return
          </CharString>
          <CharString index="214">
            424.41602 122 -424.41602 hlineto
            return
          </CharString>
          <CharString index="215">
            -95.33398 89 -276.83301 -336 276.83301 -336 95.33398 89 -208.08398 247 rlineto
            return
          </CharString>
          <CharString index="216">
            -358.41699 -243 0 -113 356.58398 -242 66 113 -297.91699 186 297.91699 190 rlineto
            return
          </CharString>
          <CharString index="217">
            0 -157 297.91699 -185 -297.91699 -191 0 -152 423.5 286 0 114 rlineto
            return
          </CharString>
          <CharString index="218">
            -422.58398 -285 0 -113 422.58398 -286 0 157 -297.91699 186 297.91699 190 rlineto
            return
          </CharString>
          <CharString index="219">
            -797 111.83301 797 vlineto
            return
          </CharString>
          <CharString index="220">
            -61 44.91602 -51 56.83398 56.83301 44.91699 51 61 60 -44.91699 51 -56.83301 -56.83398 -44.91602 -51 -60 vhcurveto
            return
          </CharString>
        <CharString name=".notdef">
          -200 50 900 50 hstem
          0.5 53.5 432 54.5 vstem
          8 -200 rmoveto
          540 0 -15 1000 -540 0 rlineto
          77 -50 rmoveto
          387 0 -188 -390 rlineto
          211 316 rmoveto
          12 -752 -191 376 rlineto
          -241 -376 rmoveto
          -12 752 192 -376 rlineto
          31 -60 rmoveto
          200 -390 -387 0 rlineto
          endchar
        </CharString>
        <CharString name="A">
          16 -21 26 -21 26 -21 145 107 241 122 hstemhm
          340 147 hintmask 10011100
          344 -5 rmoveto
          hintmask 00111100
          -105 callsubr
          hintmask 01011100
          -104 callsubr
          hintmask 00111100
          -21 503 rmoveto
          -103 callsubr
          endchar
        </CharString>
        <CharString name="AE">
          0 116 34 101 12 96 145 116 hstem
          -41 646 vstem
          310 504 rmoveto
          -10 callsubr
          -87 -504 rmoveto
          -9 callsubr
          endchar
        </CharString>
        <CharString name="AEacute">
          0 116 34 101 12 96 145 116 hstem
          -41 646 vstem
          267 733 rmoveto
          -22 callsubr
          43 -229 rmoveto
          -10 callsubr
          -87 -504 rmoveto
          -9 callsubr
          endchar
        </CharString>
        <CharString name="Aacute">
          16 -21 26 -21 26 -21 145 107 241 122 hstemhm
          340 147 hintmask 00111100
          218 733 rmoveto
          -22 callsubr
          hintmask 10011100
          126 -738 rmoveto
          hintmask 00111100
          -105 callsubr
          hintmask 01011100
          -104 callsubr
          hintmask 00111100
          -21 503 rmoveto
          -103 callsubr
          endchar
        </CharString>
        <CharString name="Abreve">
          16 -21 26 -21 26 -21 145 107 241 122 57 107 hstemhm
          340 147 hintmask 00111110
          522 873 rmoveto
          15 callsubr
          hintmask 10011110
          -257 -831 rmoveto
          hintmask 00111110
          -105 callsubr
          hintmask 01011110
          -104 callsubr
          hintmask 00111110
          -21 503 rmoveto
          -103 callsubr
          endchar
        </CharString>
        <CharString name="Acircumflex">
          16 -21 26 -21 26 -21 145 107 241 122 hstemhm
          340 147 hintmask 00111100
          479 670 rmoveto
          -14 callsubr
          hintmask 10011100
          -40 -771 rmoveto
          hintmask 00111100
          -105 callsubr
          hintmask 01011100
          -104 callsubr
          hintmask 00111100
          -21 503 rmoveto
          -103 callsubr
          endchar
        </CharString>
        <CharString name="Adieresis">
          16 -21 26 -21 26 -21 145 107 241 122 72 138 hstemhm
          340 147 hintmask 00111110
          546 694 rmoveto
          -28 callsubr
          -76 hmoveto
          -27 callsubr
          hintmask 10011110
          173 -696 rmoveto
          hintmask 00111110
          -105 callsubr
          hintmask 01011110
          -104 callsubr
          hintmask 00111110
          -21 503 rmoveto
          -103 callsubr
          endchar
        </CharString>
        <CharString name="Agrave">
          16 -21 26 -21 26 -21 145 107 241 122 hstemhm
          340 147 hintmask 00111100
          537 728 rmoveto
          -74 callsubr
          hintmask 10011100
          -165 -676 rmoveto
          hintmask 00111100
          -105 callsubr
          hintmask 01011100
          -104 callsubr
          hintmask 00111100
          -21 503 rmoveto
          -103 callsubr
          endchar
        </CharString>
        <CharString name="Amacron">
          16 -21 26 -21 26 -21 145 107 241 122 85 115 hstemhm
          340 147 hintmask 00111110
          573 820 rmoveto
          -25 callsubr
          hintmask 10011110
          -207 -710 rmoveto
          hintmask 00111110
          -105 callsubr
          hintmask 01011110
          -104 callsubr
          hintmask 00111110
          -21 503 rmoveto
          -103 callsubr
          endchar
        </CharString>
        <CharString name="Aogonek">
          -213 92 142 -21 26 -21 145 107 241 122 hstemhm
          186 125 30.5 145.5 hintmask 10111110
          452 -169 rmoveto
          -13 62 rlineto
          -92 -26 -36 13 0 29 0 30 47 38 128 28 rrcurveto
          1 hlineto
          -10 208 -13 204 -14 203 rrcurveto
          -197 hlineto
          hintmask 11011110
          -95 -206 -93 -208 -85 -206 rrcurveto
          145 hlineto
          18 50 20 50 19 50 rrcurveto
          158 0 3 -129 rlineto
          -114 -48 -44 -56 1 -50 rrcurveto
          1 -73 92 -45 173 82 rrcurveto
          -129 667 rmoveto
          -103 callsubr
          endchar
        </CharString>
        <CharString name="Aring">
          16 -21 26 -21 26 -21 145 107 241 122 48 219 hstemhm
          340 147 hintmask 00111110
          395 887 rmoveto
          -11 callsubr
          hintmask 10011110
          -51 -892 rmoveto
          hintmask 00111110
          -105 callsubr
          hintmask 01011110
          -104 callsubr
          hintmask 00111110
          -21 503 rmoveto
          -103 callsubr
          endchar
        </CharString>
        <CharString name="Aringacute">
          16 -21 26 -21 26 -21 145 107 241 122 hstemhm
          340 147 hintmask 00111100
          266 978 rmoveto
          -22 callsubr
          129 -91 rmoveto
          26 callsubr
          hintmask 10011100
          -51 -892 rmoveto
          hintmask 00111100
          -105 callsubr
          hintmask 01011100
          -104 callsubr
          hintmask 00111100
          -21 503 rmoveto
          -103 callsubr
          endchar
        </CharString>
        <CharString name="Atilde">
          16 -21 26 -21 26 -21 145 107 241 122 62 104 -23 104 hstemhm
          340 147 hintmask 00111101
          466 786 rmoveto
          hintmask 00111011
          -13 callsubr
          hintmask 00111101
          -12 callsubr
          hintmask 10011101
          -122 -791 rmoveto
          hintmask 00111101
          -105 callsubr
          hintmask 01011101
          -104 callsubr
          hintmask 00111101
          -21 503 rmoveto
          -103 callsubr
          endchar
        </CharString>
        <CharString name="B">
          -8 9 -9 114 -84 -21 512 115 hstemhm
          360 139 -107 140 hintmask 10011000
          499 197 rmoveto
          0 58 -33 46 -57 21 rrcurveto
          hintmask 00110100
          78 37 45 58 0 66 0 103 -108 72 -278 -43 rrcurveto
          -119 -614 rlineto
          343 -44 129 117 0 123 rrcurveto
          hintmask 10010100
          -107 254 rmoveto
          0 -50 -47 -45 -108 -12 rrcurveto
          32 169 rlineto
          80 8 43 -25 0 -45 rrcurveto
          hintmask 01011000
          -32 -259 rmoveto
          0 -58 -58 -41 -110 17 rrcurveto
          30 155 rlineto
          96 11 42 -31 0 -53 rrcurveto
          endchar
        </CharString>
        <CharString name="C">
          -13 129 390 127 hstem
          50 144 204 135 vstem
          374 633 rmoveto
          -102 callsubr
          endchar
        </CharString>
        <CharString name="CR.1.0">
          endchar
        </CharString>
        <CharString name="CR.10.0">
          endchar
        </CharString>
        <CharString name="CR.100.0">
          endchar
        </CharString>
        <CharString name="CR.100.1">
          endchar
        </CharString>
        <CharString name="CR.101.0">
          endchar
        </CharString>
        <CharString name="CR.101.1">
          endchar
        </CharString>
        <CharString name="CR.102.0">
          endchar
        </CharString>
        <CharString name="CR.102.1">
          endchar
        </CharString>
        <CharString name="CR.103.0">
          endchar
        </CharString>
        <CharString name="CR.103.1">
          endchar
        </CharString>
        <CharString name="CR.104.0">
          endchar
        </CharString>
        <CharString name="CR.104.1">
          endchar
        </CharString>
        <CharString name="CR.105.0">
          endchar
        </CharString>
        <CharString name="CR.105.1">
          endchar
        </CharString>
        <CharString name="CR.106.0">
          endchar
        </CharString>
        <CharString name="CR.106.1">
          endchar
        </CharString>
        <CharString name="CR.107.0">
          endchar
        </CharString>
        <CharString name="CR.107.1">
          endchar
        </CharString>
        <CharString name="CR.108.0">
          endchar
        </CharString>
        <CharString name="CR.108.1">
          endchar
        </CharString>
        <CharString name="CR.109.0">
          endchar
        </CharString>
        <CharString name="CR.109.1">
          endchar
        </CharString>
        <CharString name="CR.11.0">
          endchar
        </CharString>
        <CharString name="CR.110.0">
          endchar
        </CharString>
        <CharString name="CR.110.1">
          endchar
        </CharString>
        <CharString name="CR.111.0">
          endchar
        </CharString>
        <CharString name="CR.111.1">
          endchar
        </CharString>
        <CharString name="CR.112.0">
          endchar
        </CharString>
        <CharString name="CR.112.1">
          endchar
        </CharString>
        <CharString name="CR.113.0">
          endchar
        </CharString>
        <CharString name="CR.113.1">
          endchar
        </CharString>
        <CharString name="CR.114.0">
          endchar
        </CharString>
        <CharString name="CR.114.1">
          endchar
        </CharString>
        <CharString name="CR.115.0">
          endchar
        </CharString>
        <CharString name="CR.115.1">
          endchar
        </CharString>
        <CharString name="CR.116.0">
          endchar
        </CharString>
        <CharString name="CR.116.1">
          endchar
        </CharString>
        <CharString name="CR.117.0">
          endchar
        </CharString>
        <CharString name="CR.117.1">
          endchar
        </CharString>
        <CharString name="CR.118.0">
          endchar
        </CharString>
        <CharString name="CR.118.1">
          endchar
        </CharString>
        <CharString name="CR.119.0">
          endchar
        </CharString>
        <CharString name="CR.119.1">
          endchar
        </CharString>
        <CharString name="CR.12.0">
          endchar
        </CharString>
        <CharString name="CR.120.0">
          endchar
        </CharString>
        <CharString name="CR.120.1">
          endchar
        </CharString>
        <CharString name="CR.121.0">
          endchar
        </CharString>
        <CharString name="CR.121.1">
          endchar
        </CharString>
        <CharString name="CR.122.0">
          endchar
        </CharString>
        <CharString name="CR.122.1">
          endchar
        </CharString>
        <CharString name="CR.123.0">
          endchar
        </CharString>
        <CharString name="CR.123.1">
          endchar
        </CharString>
        <CharString name="CR.124.0">
          endchar
        </CharString>
        <CharString name="CR.124.1">
          endchar
        </CharString>
        <CharString name="CR.125.0">
          endchar
        </CharString>
        <CharString name="CR.125.1">
          endchar
        </CharString>
        <CharString name="CR.126.0">
          endchar
        </CharString>
        <CharString name="CR.126.1">
          endchar
        </CharString>
        <CharString name="CR.126.2">
          endchar
        </CharString>
        <CharString name="CR.127.0">
          endchar
        </CharString>
        <CharString name="CR.127.1">
          endchar
        </CharString>
        <CharString name="CR.127.2">
          endchar
        </CharString>
        <CharString name="CR.128.0">
          endchar
        </CharString>
        <CharString name="CR.128.1">
          endchar
        </CharString>
        <CharString name="CR.128.2">
          endchar
        </CharString>
        <CharString name="CR.129.0">
          endchar
        </CharString>
        <CharString name="CR.129.1">
          endchar
        </CharString>
        <CharString name="CR.129.2">
          endchar
        </CharString>
        <CharString name="CR.13.0">
          endchar
        </CharString>
        <CharString name="CR.130.0">
          endchar
        </CharString>
        <CharString name="CR.130.1">
          endchar
        </CharString>
        <CharString name="CR.130.2">
          endchar
        </CharString>
        <CharString name="CR.14.0">
          endchar
        </CharString>
        <CharString name="CR.15.0">
          endchar
        </CharString>
        <CharString name="CR.16.0">
          endchar
        </CharString>
        <CharString name="CR.17.0">
          endchar
        </CharString>
        <CharString name="CR.18.0">
          endchar
        </CharString>
        <CharString name="CR.19.0">
          endchar
        </CharString>
        <CharString name="CR.2.0">
          endchar
        </CharString>
        <CharString name="CR.20.0">
          endchar
        </CharString>
        <CharString name="CR.21.0">
          endchar
        </CharString>
        <CharString name="CR.22.0">
          endchar
        </CharString>
        <CharString name="CR.23.0">
          endchar
        </CharString>
        <CharString name="CR.24.0">
          endchar
        </CharString>
        <CharString name="CR.25.0">
          endchar
        </CharString>
        <CharString name="CR.26.0">
          endchar
        </CharString>
        <CharString name="CR.27.0">
          endchar
        </CharString>
        <CharString name="CR.28.0">
          endchar
        </CharString>
        <CharString name="CR.29.0">
          endchar
        </CharString>
        <CharString name="CR.3.0">
          endchar
        </CharString>
        <CharString name="CR.30.0">
          endchar
        </CharString>
        <CharString name="CR.31.0">
          endchar
        </CharString>
        <CharString name="CR.32.0">
          endchar
        </CharString>
        <CharString name="CR.33.0">
          endchar
        </CharString>
        <CharString name="CR.34.0">
          endchar
        </CharString>
        <CharString name="CR.35.0">
          endchar
        </CharString>
        <CharString name="CR.36.0">
          endchar
        </CharString>
        <CharString name="CR.37.0">
          endchar
        </CharString>
        <CharString name="CR.38.0">
          endchar
        </CharString>
        <CharString name="CR.39.0">
          endchar
        </CharString>
        <CharString name="CR.4.0">
          endchar
        </CharString>
        <CharString name="CR.40.0">
          endchar
        </CharString>
        <CharString name="CR.41.0">
          endchar
        </CharString>
        <CharString name="CR.42.0">
          endchar
        </CharString>
        <CharString name="CR.43.0">
          endchar
        </CharString>
        <CharString name="CR.44.0">
          endchar
        </CharString>
        <CharString name="CR.45.0">
          endchar
        </CharString>
        <CharString name="CR.46.0">
          endchar
        </CharString>
        <CharString name="CR.47.0">
          endchar
        </CharString>
        <CharString name="CR.48.0">
          endchar
        </CharString>
        <CharString name="CR.49.0">
          endchar
        </CharString>
        <CharString name="CR.5.0">
          endchar
        </CharString>
        <CharString name="CR.50.0">
          endchar
        </CharString>
        <CharString name="CR.51.0">
          endchar
        </CharString>
        <CharString name="CR.52.0">
          endchar
        </CharString>
        <CharString name="CR.53.0">
          endchar
        </CharString>
        <CharString name="CR.54.0">
          endchar
        </CharString>
        <CharString name="CR.55.0">
          endchar
        </CharString>
        <CharString name="CR.56.0">
          endchar
        </CharString>
        <CharString name="CR.57.0">
          endchar
        </CharString>
        <CharString name="CR.58.0">
          endchar
        </CharString>
        <CharString name="CR.59.0">
          endchar
        </CharString>
        <CharString name="CR.6.0">
          endchar
        </CharString>
        <CharString name="CR.60.0">
          endchar
        </CharString>
        <CharString name="CR.61.0">
          endchar
        </CharString>
        <CharString name="CR.62.0">
          endchar
        </CharString>
        <CharString name="CR.63.0">
          endchar
        </CharString>
        <CharString name="CR.64.0">
          endchar
        </CharString>
        <CharString name="CR.65.0">
          endchar
        </CharString>
        <CharString name="CR.66.0">
          endchar
        </CharString>
        <CharString name="CR.67.0">
          endchar
        </CharString>
        <CharString name="CR.68.0">
          endchar
        </CharString>
        <CharString name="CR.69.0">
          endchar
        </CharString>
        <CharString name="CR.7.0">
          endchar
        </CharString>
        <CharString name="CR.70.0">
          endchar
        </CharString>
        <CharString name="CR.71.0">
          endchar
        </CharString>
        <CharString name="CR.72.0">
          endchar
        </CharString>
        <CharString name="CR.73.0">
          endchar
        </CharString>
        <CharString name="CR.74.0">
          endchar
        </CharString>
        <CharString name="CR.75.0">
          endchar
        </CharString>
        <CharString name="CR.75.1">
          endchar
        </CharString>
        <CharString name="CR.76.0">
          endchar
        </CharString>
        <CharString name="CR.76.1">
          endchar
        </CharString>
        <CharString name="CR.77.0">
          endchar
        </CharString>
        <CharString name="CR.77.1">
          endchar
        </CharString>
        <CharString name="CR.78.0">
          endchar
        </CharString>
        <CharString name="CR.78.1">
          endchar
        </CharString>
        <CharString name="CR.79.0">
          endchar
        </CharString>
        <CharString name="CR.79.1">
          endchar
        </CharString>
        <CharString name="CR.8.0">
          endchar
        </CharString>
        <CharString name="CR.80.0">
          endchar
        </CharString>
        <CharString name="CR.80.1">
          endchar
        </CharString>
        <CharString name="CR.81.0">
          endchar
        </CharString>
        <CharString name="CR.81.1">
          endchar
        </CharString>
        <CharString name="CR.82.0">
          endchar
        </CharString>
        <CharString name="CR.82.1">
          endchar
        </CharString>
        <CharString name="CR.83.0">
          endchar
        </CharString>
        <CharString name="CR.83.1">
          endchar
        </CharString>
        <CharString name="CR.84.0">
          endchar
        </CharString>
        <CharString name="CR.84.1">
          endchar
        </CharString>
        <CharString name="CR.85.0">
          endchar
        </CharString>
        <CharString name="CR.85.1">
          endchar
        </CharString>
        <CharString name="CR.86.0">
          endchar
        </CharString>
        <CharString name="CR.86.1">
          endchar
        </CharString>
        <CharString name="CR.87.0">
          endchar
        </CharString>
        <CharString name="CR.87.1">
          endchar
        </CharString>
        <CharString name="CR.88.0">
          endchar
        </CharString>
        <CharString name="CR.88.1">
          endchar
        </CharString>
        <CharString name="CR.89.0">
          endchar
        </CharString>
        <CharString name="CR.89.1">
          endchar
        </CharString>
        <CharString name="CR.9.0">
          endchar
        </CharString>
        <CharString name="CR.90.0">
          endchar
        </CharString>
        <CharString name="CR.90.1">
          endchar
        </CharString>
        <CharString name="CR.91.0">
          endchar
        </CharString>
        <CharString name="CR.91.1">
          endchar
        </CharString>
        <CharString name="CR.92.0">
          endchar
        </CharString>
        <CharString name="CR.92.1">
          endchar
        </CharString>
        <CharString name="CR.93.0">
          endchar
        </CharString>
        <CharString name="CR.93.1">
          endchar
        </CharString>
        <CharString name="CR.94.0">
          endchar
        </CharString>
        <CharString name="CR.94.1">
          endchar
        </CharString>
        <CharString name="CR.95.0">
          endchar
        </CharString>
        <CharString name="CR.95.1">
          endchar
        </CharString>
        <CharString name="CR.96.0">
          endchar
        </CharString>
        <CharString name="CR.96.1">
          endchar
        </CharString>
        <CharString name="CR.97.0">
          endchar
        </CharString>
        <CharString name="CR.97.1">
          endchar
        </CharString>
        <CharString name="CR.98.0">
          endchar
        </CharString>
        <CharString name="CR.98.1">
          endchar
        </CharString>
        <CharString name="CR.99.0">
          endchar
        </CharString>
        <CharString name="CR.99.1">
          endchar
        </CharString>
        <CharString name="Cacute">
          -13 129 390 127 hstem
          50 144 204 135 vstem
          234 746 rmoveto
          -22 callsubr
          140 -113 rmoveto
          -102 callsubr
          endchar
        </CharString>
        <CharString name="Ccaron">
          -13 129 390 127 hstem
          50 144 204 135 vstem
          380 680 rmoveto
          17 callsubr
          3 -47 rmoveto
          -102 callsubr
          endchar
        </CharString>
        <CharString name="Ccedilla">
          -83 199 -127 127 -97 -21 508 127 hstemhm
          50 144 69 118 17 135 hintmask 10011110
          381 -191 rmoveto
          hintmask 01011110
          5 90 -24 60 -40 30 42 5 47 10 51 17 rrcurveto
          15 126 rlineto
          -203 -64 -80 37 0 130 0 114 60 142 90 0 rrcurveto
          hintmask 00111010
          46 0 10 -33 -2 -93 rrcurveto
          135 2 rlineto
          8 170 -44 81 -123 0 -178 0 -146 -192 0 -212 0 -122 49 -81 94 -28 rrcurveto
          hintmask 10011110
          -39 -23 -34 -48 -32 -76 rrcurveto
          69 -22 rlineto
          28 55 26 33 24 0 22 0 10 -29 -4 -81 rrcurveto
          endchar
        </CharString>
        <CharString name="Cdotaccent">
          -13 129 390 127 72.5 138 hstem
          50 144 204 135 vstem
          451 706 rmoveto
          16 callsubr
          76 -72 rmoveto
          -102 callsubr
          endchar
        </CharString>
        <CharString name="D">
          -5 118 -91 -21 507 119 hstemhm
          391 143 hintmask 10110000
          534 390 rmoveto
          -101 callsubr
          hintmask 01110000
          -100 callsubr
          -143 -14 rmoveto
          -99 callsubr
          endchar
        </CharString>
        <CharString name="Dcaron">
          -5 118 -91 -21 507 119 hstemhm
          391 143 hintmask 10110000
          351 674 rmoveto
          17 callsubr
          192 -284 rmoveto
          -101 callsubr
          hintmask 01110000
          -100 callsubr
          -143 -14 rmoveto
          -99 callsubr
          endchar
        </CharString>
        <CharString name="Dcroat">
          -5 118 -91 -21 262 98 147 119 hstemhm
          391 143 hintmask 10111000
          534 390 rmoveto
          -8 callsubr
          hintmask 01111000
          -7 callsubr
          -234 -127 rmoveto
          -6 callsubr
          endchar
        </CharString>
        <CharString name="E">
          0 120 138 104 138 120 hstem
          36 513 vstem
          458 120 rmoveto
          -98 callsubr
          endchar
        </CharString>
        <CharString name="Eacute">
          0 120 138 104 138 120 hstem
          36 513 vstem
          220 733 rmoveto
          -22 callsubr
          238 -613 rmoveto
          -98 callsubr
          endchar
        </CharString>
        <CharString name="Ebreve">
          0 120 138 104 138 120 57 107 hstem
          36 567 vstem
          524 873 rmoveto
          15 callsubr
          -145 -706 rmoveto
          -98 callsubr
          endchar
        </CharString>
        <CharString name="Ecaron">
          0 120 138 104 138 120 hstem
          36 553 vstem
          366 667 rmoveto
          17 callsubr
          101 -547 rmoveto
          -98 callsubr
          endchar
        </CharString>
        <CharString name="Ecircumflex">
          0 120 138 104 138 120 hstem
          36 539 vstem
          481 670 rmoveto
          -14 callsubr
          72 -646 rmoveto
          -98 callsubr
          endchar
        </CharString>
        <CharString name="Edieresis">
          0 120 138 104 138 120 72 138 hstem
          36 557 vstem
          548 694 rmoveto
          -28 callsubr
          -76 hmoveto
          -27 callsubr
          285 -571 rmoveto
          -98 callsubr
          endchar
        </CharString>
        <CharString name="Edotaccent">
          0 120 138 104 138 120 72.5 138 hstem
          36 513 vstem
          437 693 rmoveto
          16 callsubr
          174 -572 rmoveto
          -98 callsubr
          endchar
        </CharString>
        <CharString name="Egrave">
          0 120 138 104 138 120 hstem
          36 513 vstem
          539 728 rmoveto
          -74 callsubr
          -53 -551 rmoveto
          -98 callsubr
          endchar
        </CharString>
        <CharString name="Emacron">
          0 120 138 104 138 120 85 115 hstem
          36 539 vstem
          575 820 rmoveto
          -25 callsubr
          -95 -585 rmoveto
          -98 callsubr
          endchar
        </CharString>
        <CharString name="Eogonek">
          -214 92 122 120 138 104 138 120 hstem
          125 125 vstem
          391 -170 rmoveto
          -13 62 rlineto
          -92 -26 -36 13 0 29 0 29 47 36 128 27 rrcurveto
          33 120 -256 0 27 138 210 0 21 104 -210 0 27 138 249 0 23 120 -393 0 -120 -620 210 0 rlineto
          -87 -43 -34 -47 0 -43 0 -73 92 -46 174 82 rrcurveto
          endchar
        </CharString>
        <CharString name="Eth">
          -5 118 -91 -21 262 98 147 119 hstemhm
          391 143 hintmask 10111000
          534 390 rmoveto
          -8 callsubr
          hintmask 01111000
          -7 callsubr
          -234 -127 rmoveto
          -6 callsubr
          endchar
        </CharString>
        <CharString name="Euro">
          -12 115 67 98 -84 87 54 87 106 116 hstemhm
          28 543 hintmask 10111100
          493 40 rmoveto
          -11 81 rlineto
          -165 -38 -63 19 -16 82 rrcurveto
          185 0 21 87 -210 0 rlineto
          1 18 3 18 4 18 rrcurveto
          216 0 22 87 -211 0 rlineto
          28 61 41 45 50 0 35 0 15 -19 10 -44 rrcurveto
          123 21 rlineto
          -12 111 -50 47 -88 0 -117 0 -103 -88 -56 -123 rrcurveto
          -69 0 -20 -98 58 0 rlineto
          hintmask 11011100
          -4 -19 -3 -19 -2 -19 rrcurveto
          -57 0 -20 -98 78 0 rlineto
          21 -155 116 -91 250 116 rrcurveto
          endchar
        </CharString>
        <CharString name="F">
          21 -21 241 110 147 122 hstem
          40 521 vstem
          448 241 rmoveto
          22 110 -217 0 29 147 257 0 22 122 -401 0 -120 -620 145 0 47 241 rlineto
          endchar
        </CharString>
        <CharString name="G">
          -9 122 -95 -21 508 128 hstemhm
          49 145 196 135 hintmask 10111000
          421 -106 rmoveto
          -97 callsubr
          hintmask 01111000
          -96 callsubr
          endchar
        </CharString>
        <CharString name="Gbreve">
          -9 122 -95 -21 508 128 57 107 hstemhm
          49 145 196 135 hintmask 10111100
          533 886 rmoveto
          15 callsubr
          -191 -945 rmoveto
          -97 callsubr
          hintmask 01111100
          -96 callsubr
          endchar
        </CharString>
        <CharString name="Gcommaaccent">
          -9 122 -95 -21 508 128 hstemhm
          49 145 196 135 hintmask 10111000
          421 -106 rmoveto
          -97 callsubr
          hintmask 01111000
          -96 callsubr
          -193 -224 rmoveto
          20 callsubr
          endchar
        </CharString>
        <CharString name="Gdotaccent">
          -9 122 -95 -21 508 128 72.5 138 hstemhm
          49 145 196 135 hintmask 10111100
          446 706 rmoveto
          16 callsubr
          128 -811 rmoveto
          -97 callsubr
          hintmask 01111100
          -96 callsubr
          endchar
        </CharString>
        <CharString name="H">
          21 -21 256 112 252 -20 hstem
          18 552 vstem
          304 hmoveto
          146 0 120 620 -146 0 -49 -252 -140 0 49 252 -146 0 -120 -620 146 0 50 256 140 0 rlineto
          endchar
        </CharString>
        <CharString name="Hbar">
          21 -21 236 112 80 98 -93 88 -88 187 hstemhm
          18 590 hintmask 11010100
          371 348 rmoveto
          -140 0 17 85 140 0 rlineto
          -84 -433 rmoveto
          146 0 rlineto
          hintmask 11100100
          83 428 56 0 19 98 -56 0 rlineto
          hintmask 11001100
          18 94 -146 0 rlineto
          hintmask 11010100
          -19 -99 -140 0 rlineto
          hintmask 11001100
          19 99 -146 0 rlineto
          hintmask 11100100
          -18 -94 -57 0 -19 -98 57 0 -83 -428 146 0 46 236 140 0 rlineto
          endchar
        </CharString>
        <CharString name="I">
          0 113 394 113 hstem
          19 525 vstem
          316 113 rmoveto
          -95 callsubr
          endchar
        </CharString>
        <CharString name="Iacute">
          0 113 394 113 hstem
          19 525 vstem
          209 733 rmoveto
          -22 callsubr
          107 -620 rmoveto
          -95 callsubr
          endchar
        </CharString>
        <CharString name="Ibreve">
          0 113 394 113 57 107 hstem
          19 573 vstem
          513 873 rmoveto
          15 callsubr
          -276 -713 rmoveto
          -95 callsubr
          endchar
        </CharString>
        <CharString name="Icircumflex">
          0 113 394 113 hstem
          19 545 vstem
          470 670 rmoveto
          -14 callsubr
          -59 -653 rmoveto
          -95 callsubr
          endchar
        </CharString>
        <CharString name="Idieresis">
          0 113 394 113 72 138 hstem
          19 563 vstem
          537 694 rmoveto
          -28 callsubr
          -76 hmoveto
          -27 callsubr
          154 -578 rmoveto
          -95 callsubr
          endchar
        </CharString>
        <CharString name="Idotaccent">
          0 113 394 113 72.5 138 hstem
          19 525 vstem
          426 693 rmoveto
          16 callsubr
          43 -579 rmoveto
          -95 callsubr
          endchar
        </CharString>
        <CharString name="Igrave">
          0 113 394 113 hstem
          19 525 vstem
          528 728 rmoveto
          -74 callsubr
          -184 -558 rmoveto
          -95 callsubr
          endchar
        </CharString>
        <CharString name="Imacron">
          0 113 394 113 85 115 hstem
          19 545 vstem
          564 820 rmoveto
          -25 callsubr
          -226 -592 rmoveto
          -95 callsubr
          endchar
        </CharString>
        <CharString name="Iogonek">
          -213 92 121 113 394 113 hstem
          61 125 vstem
          327 -169 rmoveto
          -13 62 rlineto
          -92 -26 -36 13 0 29 0 28 32 34 82 29 rrcurveto
          125 0 28 113 -137 0 76 394 131 0 21 113 -406 0 -22 -113 132 0 -76 -394 -131 0 -22 -113 139 0 rlineto
          -69 -43 -28 -46 0 -42 0 -74 91 -47 175 83 rrcurveto
          endchar
        </CharString>
        <CharString name="J">
          -10 130 387 113 hstem
          19 500 vstem
          377 55 rmoveto
          28 28 15 30 37 192 rrcurveto
          62 315 -330 0 -23 -113 186 0 -43 -216 rlineto
          -24 -119 -7 -21 -13 -13 -18 -18 -30 -3 -177 3 rrcurveto
          -21 -130 rlineto
          225 -3 91 26 42 42 rrcurveto
          endchar
        </CharString>
        <CharString name="K">
          12 -21 30 -21 30 -21 611 -20 hstemhm
          22 579 hintmask 10011000
          349 -9 rmoveto
          hintmask 00111000
          -94 callsubr
          -89 311 rmoveto
          hintmask 01011000
          -93 callsubr
          endchar
        </CharString>
        <CharString name="Kcommaaccent">
          12 -21 30 -21 30 -21 611 -20 hstemhm
          22 579 hintmask 10011000
          349 -9 rmoveto
          hintmask 00111000
          -94 callsubr
          -89 311 rmoveto
          hintmask 01011000
          -93 callsubr
          -157 -891 rmoveto
          20 callsubr
          endchar
        </CharString>
        <CharString name="L">
          0 122 498 -20 hstem
          43 433 vstem
          452 hmoveto
          -92 callsubr
          endchar
        </CharString>
        <CharString name="Lacute">
          0 122 498 -20 hstem
          43 516 vstem
          232 733 rmoveto
          -22 callsubr
          220 -733 rmoveto
          -92 callsubr
          endchar
        </CharString>
        <CharString name="Lcaron">
          0 122 498 -20 hstem
          43 556 vstem
          451 697 rmoveto
          18 callsubr
          -147 -702 rmoveto
          -92 callsubr
          endchar
        </CharString>
        <CharString name="Lcommaaccent">
          0 122 498 -20 hstem
          43 433 vstem
          452 hmoveto
          -92 callsubr
          74 -262 rmoveto
          20 callsubr
          endchar
        </CharString>
        <CharString name="Ldot">
          0 122 133 148 217 -20 hstem
          43 495 vstem
          452 hmoveto
          -92 callsubr
          459 255 rmoveto
          36 148 -131 0 -37 -148 rlineto
          endchar
        </CharString>
        <CharString name="Lslash">
          0 122 498 -20 hstem
          55.5 58.5 vstem
          472 hmoveto
          24 122 -263 0 41 213 124 56 -3 94 -101 -46 35 181 -146 0 -49 -254 -80 -36 3 -94 57 26 -51 -262 rlineto
          endchar
        </CharString>
        <CharString name="M">
          21 -21 620 -20 23 -20 hstemhm
          16 564 hintmask 10110000
          270 623 rmoveto
          -135 -6 -119 -617 132 0 60 356 3 0 17 -217 69 0 98 217 3 0 -72 -356 135 0 rlineto
          hintmask 11010000
          119 620 -143 0 -140 -311 -3 0 rlineto
          endchar
        </CharString>
        <CharString name="N">
          21 -21 620 -20 22 -20 hstemhm
          19 554 hintmask 10110000
          333 hmoveto
          119 0 rlineto
          hintmask 11010000
          -91 callsubr
          hintmask 10110000
          -90 callsubr
          endchar
        </CharString>
        <CharString name="NUL">
          0 endchar
        </CharString>
        <CharString name="Nacute">
          21 -21 620 -20 22 -20 hstemhm
          19 554 hintmask 10110000
          221 735 rmoveto
          -22 callsubr
          112 -735 rmoveto
          119 0 rlineto
          hintmask 11010000
          -91 callsubr
          hintmask 10110000
          -90 callsubr
          endchar
        </CharString>
        <CharString name="Ncaron">
          21 -21 620 -20 22 -20 hstemhm
          19 571 hintmask 10110000
          367 669 rmoveto
          17 callsubr
          -25 -669 rmoveto
          119 0 rlineto
          hintmask 11010000
          -91 callsubr
          hintmask 10110000
          -90 callsubr
          endchar
        </CharString>
        <CharString name="Ncommaaccent">
          21 -21 620 -20 22 -20 hstemhm
          19 554 hintmask 10110000
          333 hmoveto
          119 0 rlineto
          hintmask 11010000
          -91 callsubr
          hintmask 10110000
          -90 callsubr
          -117 -617 rmoveto
          20 callsubr
          endchar
        </CharString>
        <CharString name="Ntilde">
          21 -21 620 -20 22 -20 82 104 -23 104 hstemhm
          19 589 hintmask 10110100
          469 788 rmoveto
          hintmask 10101100
          -13 callsubr
          hintmask 10110100
          -12 callsubr
          -136 -788 rmoveto
          119 0 rlineto
          hintmask 11010100
          -91 callsubr
          hintmask 10110100
          -90 callsubr
          endchar
        </CharString>
        <CharString name="O">
          -13 123 399 123 hstem
          43 151 199 151 vstem
          342 632 rmoveto
          -89 callsubr
          -82 -522 rmoveto
          -88 callsubr
          endchar
        </CharString>
        <CharString name="OE">
          0 116 147 96 145 116 hstem
          33 144 vstem
          177 221 rmoveto
          0 91 41 186 94 6 rrcurveto
          -74 -388 rlineto
          -50 -11 51 54 hvcurveto
          333 -105 rmoveto
          -152 0 29 147 114 0 19 96 -115 0 28 145 147 0 22 116 -209 0 rlineto
          -273 -87 -228 -175 -159 86 -58 140 hvcurveto
          221 hlineto
          endchar
        </CharString>
        <CharString name="Oacute">
          -13 123 399 123 hstem
          43 151 199 151 vstem
          221 747 rmoveto
          -22 callsubr
          121 -115 rmoveto
          -89 callsubr
          -82 -522 rmoveto
          -88 callsubr
          endchar
        </CharString>
        <CharString name="Obreve">
          -13 123 399 123 59 107 hstem
          43 151 199 151 vstem
          525 887 rmoveto
          15 callsubr
          -262 -208 rmoveto
          -89 callsubr
          -82 -522 rmoveto
          -88 callsubr
          endchar
        </CharString>
        <CharString name="Ocircumflex">
          -13 123 399 123 hstem
          43 151 199 151 vstem
          482 684 rmoveto
          -14 callsubr
          -45 -148 rmoveto
          -89 callsubr
          -82 -522 rmoveto
          -88 callsubr
          endchar
        </CharString>
        <CharString name="Odieresis">
          -13 123 399 123 74 138 hstem
          43 151 199 151 vstem
          549 708 rmoveto
          -28 callsubr
          -76 hmoveto
          -27 callsubr
          168 -73 rmoveto
          -89 callsubr
          -82 -522 rmoveto
          -88 callsubr
          endchar
        </CharString>
        <CharString name="Ograve">
          -13 123 399 123 hstem
          43 151 199 151 vstem
          540 742 rmoveto
          -74 callsubr
          -170 -53 rmoveto
          -89 callsubr
          -82 -522 rmoveto
          -88 callsubr
          endchar
        </CharString>
        <CharString name="Ohungarumlaut">
          -13 123 399 123 hstem
          43 151 199 151 vstem
          256 692 rmoveto
          23 callsubr
          277 -47 rmoveto
          24 callsubr
          -70 -105 rmoveto
          -89 callsubr
          -82 -522 rmoveto
          -88 callsubr
          endchar
        </CharString>
        <CharString name="Omacron">
          -13 123 399 123 87 115 hstem
          43 151 199 151 vstem
          576 834 rmoveto
          -25 callsubr
          -212 -87 rmoveto
          -89 callsubr
          -82 -522 rmoveto
          -88 callsubr
          endchar
        </CharString>
        <CharString name="Omega">
          0 113 400 122 hstem
          76 122 189 142 vstem
          204 8 rmoveto
          -2 43 -4 30 0 147 rrcurveto
          148 32 137 86 47 24 -35 -65 vhcurveto
          0 -92 -38 -118 -87 -195 rrcurveto
          1 -8 200 0 22 113 -66 0 rlineto
          73 125 37 98 0 97 rrcurveto
          124 -66 78 -122 -190 -75 -169 -193 vhcurveto
          0 -62 6 -49 9 -49 rrcurveto
          -69 0 -22 -113 200 0 rlineto
          endchar
        </CharString>
        <CharString name="Oslash">
          -14 120 -85 -21 514 120 -14 -20 hstemhm
          46 149 197 149 hintmask 10101100
          322 514 rmoveto
          -5 callsubr
          -57 -408 rmoveto
          -4 callsubr
          -16 -120 rmoveto
          170 122 181 219 hvcurveto
          hintmask 10011100
          -3 callsubr
          hintmask 01101100
          -2 callsubr
          hintmask 10101100
          -1 callsubr
          endchar
        </CharString>
        <CharString name="Oslashacute">
          -14 120 -85 -21 514 120 -14 -20 hstemhm
          46 149 197 149 hintmask 10101100
          221 747 rmoveto
          -22 callsubr
          101 -233 rmoveto
          -5 callsubr
          -57 -408 rmoveto
          -4 callsubr
          -16 -120 rmoveto
          170 122 181 219 hvcurveto
          hintmask 10011100
          -3 callsubr
          hintmask 01101100
          -2 callsubr
          hintmask 10101100
          -1 callsubr
          endchar
        </CharString>
        <CharString name="Otilde">
          -13 123 399 123 64 104 -23 104 hstemhm
          43 151 199 151 hintmask 11101100
          469 800 rmoveto
          hintmask 11011100
          -13 callsubr
          hintmask 11101100
          -12 callsubr
          -127 -168 rmoveto
          -89 callsubr
          -82 -522 rmoveto
          -88 callsubr
          endchar
        </CharString>
        <CharString name="P">
          21 -21 511 116 hstem
          409 140 vstem
          173 hmoveto
          32 169 rlineto
          215 28 129 103 0 147 0 127 -114 85 -286 -43 rrcurveto
          -119 -616 rlineto
          379 422 rmoveto
          0 -80 -63 -63 -116 15 rrcurveto
          41 214 rlineto
          88 13 50 -35 0 -64 rrcurveto
          endchar
        </CharString>
        <CharString name="Q">
          511 123 hstem
          57 144 193 149 vstem
          403 -158 rmoveto
          57 115 -188 77 rlineto
          152 79 119 149 0 158 0 127 -67 87 -139 0 -227 0 -107 -266 81 -221 rrcurveto
          125 45 rlineto
          -28 189 48 130 91 0 44 0 30 -25 0 -70 0 -132 -102 -146 -166 -59 rrcurveto
          -35 -105 rlineto
          endchar
        </CharString>
        <CharString name="R">
          11 -21 31 -21 31 -21 496 121 hstemhm
          386 144 hintmask 10011000
          340 -10 rmoveto
          hintmask 00111000
          -87 callsubr
          hintmask 01011000
          -86 callsubr
          endchar
        </CharString>
        <CharString name="R_p">
          11 -21 25 -21 27 -21 28 -21 502 -20 31 -20 126 -20 hstemhm
          -12 595 hintmask 01000111
          143 -6 rmoveto
          hintmask 00010111
          106 13 -20 264 rlineto
          55 60 45 86 0 86 0 94 -60 46 -160 -22 rrcurveto
          hintmask 00100111
          -121 -621 100 0 43 209 4 0 rlineto
          211 -373 rmoveto
          hintmask 10000111
          30 154 rlineto
          6 -1 6 -1 6 0 rrcurveto
          115 74 256 162 78 -14 36 -32 hvcurveto
          -25 0 -30 -23 -21 -28 rrcurveto
          hintmask 00011011
          6 40 -92 -7 -129 -676 rlineto
          endchar
        </CharString>
        <CharString name="Racute">
          11 -21 31 -21 31 -21 496 121 hstemhm
          386 144 hintmask 00111000
          203 740 rmoveto
          -22 callsubr
          hintmask 10011000
          137 -750 rmoveto
          hintmask 00111000
          -87 callsubr
          hintmask 01011000
          -86 callsubr
          endchar
        </CharString>
        <CharString name="Rcaron">
          11 -21 31 -21 31 -21 496 121 hstemhm
          386 144 hintmask 00111000
          349 674 rmoveto
          17 callsubr
          hintmask 10011000
          -684 vmoveto
          hintmask 00111000
          -87 callsubr
          hintmask 01011000
          -86 callsubr
          endchar
        </CharString>
        <CharString name="Rcommaaccent">
          11 -21 31 -21 31 -21 496 121 hstemhm
          386 144 hintmask 10011000
          340 -10 rmoveto
          hintmask 00111000
          -87 callsubr
          hintmask 01011000
          -86 callsubr
          -126 -552 rmoveto
          20 callsubr
          endchar
        </CharString>
        <CharString name="S">
          -10 124 -84 -21 503 120 hstemhm
          97 146 86 151 hintmask 10111000
          532 450 rmoveto
          -85 callsubr
          hintmask 01111000
          -28 -139 rlineto
          hintmask 10111000
          -84 callsubr
          endchar
        </CharString>
        <CharString name="Sacute">
          -10 124 -84 -21 503 120 hstemhm
          97 146 86 151 hintmask 10111000
          237 745 rmoveto
          -22 callsubr
          295 -295 rmoveto
          -85 callsubr
          hintmask 01111000
          -28 -139 rlineto
          hintmask 10111000
          -84 callsubr
          endchar
        </CharString>
        <CharString name="Scaron">
          -10 124 -84 -21 503 120 hstemhm
          97 146 86 151 hintmask 10111000
          383 679 rmoveto
          17 callsubr
          158 -229 rmoveto
          -85 callsubr
          hintmask 01111000
          -28 -139 rlineto
          hintmask 10111000
          -84 callsubr
          endchar
        </CharString>
        <CharString name="Scedilla">
          -82 196 -122 122 -97 -21 34 -21 503 120 hstemhm
          97 146 -9 118 -23 151 hintmask 10001010
          234 -192 rmoveto
          118 2 rlineto
          hintmask 00101010
          6 97 -29 61 -44 28 rrcurveto
          hintmask 00101101
          137 21 58 71 0 71 0 138 -237 65 0 91 0 34 30 25 42 0 46 0 30 -23 18 -64 rrcurveto
          123 25 rlineto
          -21 117 -53 65 -117 0 -147 0 -97 -92 0 -104 rrcurveto
          hintmask 01001101
          0 -145 232 -62 0 -75 0 -41 -71 -23 -204 58 rrcurveto
          hintmask 00011101
          -28 -139 rlineto
          hintmask 01001101
          47 -9 42 -6 39 -2 rrcurveto
          hintmask 10001010
          -35 -25 -31 -46 -29 -69 rrcurveto
          69 -22 rlineto
          28 55 26 33 24 0 rrcurveto
          22 0 10 -29 -4 -81 rrcurveto
          endchar
        </CharString>
        <CharString name="Scommaaccent">
          -10 124 -84 -21 503 120 hstemhm
          97 146 86 151 hintmask 10111000
          532 450 rmoveto
          -85 callsubr
          hintmask 01111000
          -28 -139 rlineto
          hintmask 10111000
          -84 callsubr
          -307 -697 rmoveto
          20 callsubr
          endchar
        </CharString>
        <CharString name="T">
          21 -21 498 122 hstem
          86 497 vstem
          395 498 rmoveto
          -83 callsubr
          endchar
        </CharString>
        <CharString name="Tcaron">
          21 -21 498 122 hstem
          86 497 vstem
          357 667 rmoveto
          17 callsubr
          47 -169 rmoveto
          -83 callsubr
          endchar
        </CharString>
        <CharString name="Tcommaaccent">
          21 -21 498 122 hstem
          86 497 vstem
          395 498 rmoveto
          -83 callsubr
          -203 -262 rmoveto
          20 callsubr
          endchar
        </CharString>
        <CharString name="Thorn">
          21 -21 426 116 -116 194 hstemhm
          392 140 hintmask 10110000
          173 hmoveto
          17 84 rlineto
          214 28 128 103 0 147 rrcurveto
          hintmask 11010000
          0 102 -74 75 -178 3 rrcurveto
          hintmask 10110000
          15 78 -144 0 -121 -620 rlineto
          362 337 rmoveto
          0 -79 -62 -63 -116 14 rrcurveto
          42 214 rlineto
          87 13 49 -36 0 -63 rrcurveto
          endchar
        </CharString>
        <CharString name="U">
          -13 123 510 -20 hstem
          55 145 vstem
          206 240 rmoveto
          -82 callsubr
          endchar
        </CharString>
        <CharString name="Uacute">
          -13 123 510 -20 hstem
          55 145 vstem
          218 733 rmoveto
          -22 callsubr
          -12 -493 rmoveto
          -82 callsubr
          endchar
        </CharString>
        <CharString name="Ubreve">
          -13 123 510 -20 77 107 hstem
          55 145 vstem
          522 873 rmoveto
          15 callsubr
          -395 -586 rmoveto
          -82 callsubr
          endchar
        </CharString>
        <CharString name="Ucircumflex">
          -13 123 510 -20 hstem
          55 145 vstem
          479 670 rmoveto
          -14 callsubr
          -178 -526 rmoveto
          -82 callsubr
          endchar
        </CharString>
        <CharString name="Udieresis">
          -13 123 510 -20 92 138 hstem
          55 145 vstem
          546 694 rmoveto
          -28 callsubr
          -76 hmoveto
          -27 callsubr
          35 -451 rmoveto
          -82 callsubr
          endchar
        </CharString>
        <CharString name="Ugrave">
          -13 123 510 -20 hstem
          55 145 vstem
          537 728 rmoveto
          -74 callsubr
          -303 -431 rmoveto
          -82 callsubr
          endchar
        </CharString>
        <CharString name="Uhungarumlaut">
          -13 123 510 -20 hstem
          55 145 vstem
          253 678 rmoveto
          23 callsubr
          277 -47 rmoveto
          24 callsubr
          -203 -483 rmoveto
          -82 callsubr
          endchar
        </CharString>
        <CharString name="Umacron">
          -13 123 510 -20 105 115 hstem
          55 145 vstem
          573 820 rmoveto
          -25 callsubr
          -345 -465 rmoveto
          -82 callsubr
          endchar
        </CharString>
        <CharString name="Uogonek">
          -213 92 131 -21 631 -20 hstemhm
          55 145 -99 125 hintmask 11101000
          367 -169 rmoveto
          -13 62 rlineto
          -92 -26 -36 13 0 29 0 30 36 21 112 59 59 32 38 61 20 101 rrcurveto
          79 407 -144 0 -79 -410 rlineto
          hintmask 11110000
          -14 -72 -30 -28 -44 0 -40 0 -34 22 21 108 rrcurveto
          73 380 -143 0 -71 -367 rlineto
          -35 -178 62 -73 110 -13 rrcurveto
          hintmask 11101000
          -68 -40 -33 -42 0 -39 rrcurveto
          0 -74 92 -45 174 82 rrcurveto
          endchar
        </CharString>
        <CharString name="Uring">
          -13 123 510 -20 68 219 hstem
          55 145 vstem
          395 887 rmoveto
          26 callsubr
          -189 -647 rmoveto
          -82 callsubr
          endchar
        </CharString>
        <CharString name="V">
          0 131 489 -20 25 -20 hstemhm
          89 158 hintmask 10110000
          325 hmoveto
          hintmask 11010000
          100 206 92 208 87 206 rrcurveto
          -146 hlineto
          -62 -162 -70 -165 -69 -162 rrcurveto
          -10 hlineto
          hintmask 10110000
          -6 163 -6 169 -1 162 rrcurveto
          -145 -10 rlineto
          6 -206 13 -203 19 -206 rrcurveto
          endchar
        </CharString>
        <CharString name="W">
          21 -21 0 198 422 -20 hstemhm
          292.5 72 hintmask 10110000
          297 hmoveto
          -81 callsubr
          hintmask 01110000
          -80 callsubr
          endchar
        </CharString>
        <CharString name="Wacute">
          21 -21 0 198 422 -20 hstemhm
          292.5 72 hintmask 10110000
          220 733 rmoveto
          -22 callsubr
          77 -733 rmoveto
          -81 callsubr
          hintmask 01110000
          -80 callsubr
          endchar
        </CharString>
        <CharString name="Wcircumflex">
          21 -21 0 198 422 -20 hstemhm
          292.5 72 hintmask 10110000
          481 670 rmoveto
          -14 callsubr
          -89 -766 rmoveto
          -81 callsubr
          hintmask 01110000
          -80 callsubr
          endchar
        </CharString>
        <CharString name="Wdieresis">
          21 -21 0 198 422 -20 92 138 hstemhm
          292.5 72 hintmask 10111000
          548 694 rmoveto
          -28 callsubr
          -76 hmoveto
          -27 callsubr
          124 -691 rmoveto
          -81 callsubr
          hintmask 01111000
          -80 callsubr
          endchar
        </CharString>
        <CharString name="Wgrave">
          21 -21 0 198 422 -20 hstemhm
          292.5 72 hintmask 10110000
          539 728 rmoveto
          -74 callsubr
          -214 -671 rmoveto
          -81 callsubr
          hintmask 01110000
          -80 callsubr
          endchar
        </CharString>
        <CharString name="X">
          18 -21 24 -21 24 -21 617 -20 23 -20 hstemhm
          -25 632 hintmask 10001100
          336 -3 rmoveto
          hintmask 00110100
          151 6 -113 297 233 320 -155 0 -136 -210 rlineto
          hintmask 01001100
          -73 213 -150 -6 113 -298 -231 -319 154 0 135 208 rlineto
          endchar
        </CharString>
        <CharString name="Y">
          21 -21 620 -20 23 -20 hstemhm
          87 525 hintmask 10110000
          303 hmoveto
          38 199 rlineto
          hintmask 11010000
          -79 callsubr
          hintmask 10110000
          -78 callsubr
          endchar
        </CharString>
        <CharString name="Yacute">
          21 -21 620 -20 23 -20 hstemhm
          87 525 hintmask 10110000
          215 736 rmoveto
          -22 callsubr
          88 -736 rmoveto
          38 199 rlineto
          hintmask 11010000
          -79 callsubr
          hintmask 10110000
          -78 callsubr
          endchar
        </CharString>
        <CharString name="Ycircumflex">
          21 -21 620 -20 23 -20 hstemhm
          87 525 hintmask 10110000
          476 673 rmoveto
          -14 callsubr
          -78 -769 rmoveto
          38 199 rlineto
          hintmask 11010000
          -79 callsubr
          hintmask 10110000
          -78 callsubr
          endchar
        </CharString>
        <CharString name="Ydieresis">
          21 -21 620 -20 23 -20 92 138 hstemhm
          87 525 hintmask 10111000
          543 697 rmoveto
          -28 callsubr
          -76 hmoveto
          -27 callsubr
          135 -694 rmoveto
          38 199 rlineto
          hintmask 11011000
          -79 callsubr
          hintmask 10111000
          -78 callsubr
          endchar
        </CharString>
        <CharString name="Ygrave">
          21 -21 620 -20 23 -20 hstemhm
          87 525 hintmask 10110000
          534 731 rmoveto
          -74 callsubr
          -203 -674 rmoveto
          38 199 rlineto
          hintmask 11010000
          -79 callsubr
          hintmask 10110000
          -78 callsubr
          endchar
        </CharString>
        <CharString name="Z">
          0 124.5 371 124.5 hstem
          11 548 vstem
          447 hmoveto
          -77 callsubr
          endchar
        </CharString>
        <CharString name="Zacute">
          0 124.5 371 124.5 hstem
          11 548 vstem
          213 733 rmoveto
          -22 callsubr
          234 -733 rmoveto
          -77 callsubr
          endchar
        </CharString>
        <CharString name="Zcaron">
          0 124.5 371 124.5 hstem
          11 571 vstem
          359 667 rmoveto
          17 callsubr
          97 -667 rmoveto
          -77 callsubr
          endchar
        </CharString>
        <CharString name="Zdotaccent">
          0 124.5 371 124.5 72.5 138 hstem
          11 548 vstem
          430 693 rmoveto
          16 callsubr
          170 -692 rmoveto
          -77 callsubr
          endchar
        </CharString>
        <CharString name="a">
          -13 131 -130 119 295 116 hstemhm
          30 140 139 132 hintmask 10111000
          212 118 rmoveto
          -73 callsubr
          hintmask 01111000
          307 -72 rmoveto
          -72 callsubr
          endchar
        </CharString>
        <CharString name="aacute">
          -13 131 -130 119 295 116 hstemhm
          30 140 139 132 hintmask 01111000
          217 631 rmoveto
          -22 callsubr
          hintmask 10111000
          -5 -513 rmoveto
          -73 callsubr
          hintmask 01111000
          307 -72 rmoveto
          -72 callsubr
          endchar
        </CharString>
        <CharString name="abreve">
          -13 131 -130 119 295 116 57 107 hstemhm
          30 140 139 132 hintmask 01111100
          521 771 rmoveto
          15 callsubr
          hintmask 10111100
          -388 -606 rmoveto
          -73 callsubr
          hintmask 01111100
          307 -72 rmoveto
          -72 callsubr
          endchar
        </CharString>
        <CharString name="acircumflex">
          -13 131 -130 119 295 116 hstemhm
          30 140 139 132 hintmask 01111000
          478 568 rmoveto
          -14 callsubr
          hintmask 10111000
          -171 -546 rmoveto
          -73 callsubr
          hintmask 01111000
          307 -72 rmoveto
          -72 callsubr
          endchar
        </CharString>
        <CharString name="acute">
          561 226 hstem
          133 327 vstem
          133 620 rmoveto
          -22 callsubr
          endchar
        </CharString>
        <CharString name="adieresis">
          -13 131 -130 119 295 116 72 138 hstemhm
          30 140 139 132 hintmask 01111100
          545 592 rmoveto
          -28 callsubr
          -76 hmoveto
          -27 callsubr
          hintmask 10111100
          42 -471 rmoveto
          -73 callsubr
          hintmask 01111100
          307 -72 rmoveto
          -72 callsubr
          endchar
        </CharString>
        <CharString name="ae">
          -7 115 298 107 -106 110 0 -20 hstemhm
          8 142 69 130 102 127 hintmask 11001110
          531 63 rmoveto
          0 callsubr
          hintmask 10011110
          1 callsubr
          hintmask 11001110
          -35 17 -41 9 -37 0 rrcurveto
          -144 -104 -196 -188 -94 31 -41 56 hvcurveto
          49 0 46 30 43 44 rrcurveto
          32 -83 94 -30 172 108 rrcurveto
          hintmask 10101110
          -101 344 rmoveto
          2 callsubr
          -252 -291 rmoveto
          -20 -8 23 41 hvcurveto
          hintmask 11001110
          3 callsubr
          endchar
        </CharString>
        <CharString name="aeacute">
          -7 115 298 107 -106 110 0 -20 hstemhm
          8 142 69 130 102 127 hintmask 11001110
          209 630 rmoveto
          -22 callsubr
          322 -567 rmoveto
          0 callsubr
          hintmask 10011110
          1 callsubr
          hintmask 11001110
          -35 17 -41 9 -37 0 rrcurveto
          -144 -104 -196 -188 -94 31 -41 56 hvcurveto
          49 0 46 30 43 44 32 -83 94 -30 172 108 rrcurveto
          hintmask 10101110
          -101 344 rmoveto
          2 callsubr
          -252 -291 rmoveto
          -20 -8 23 41 hvcurveto
          hintmask 11001110
          3 callsubr
          endchar
        </CharString>
        <CharString name="agrave">
          -13 131 -130 119 295 116 108 -20 hstemhm
          30 140 139 132 hintmask 01111100
          536 626 rmoveto
          -74 callsubr
          hintmask 10111100
          -296 -451 rmoveto
          -73 callsubr
          hintmask 01111100
          307 -72 rmoveto
          -72 callsubr
          endchar
        </CharString>
        <CharString name="amacron">
          -13 131 -130 119 295 116 85 115 hstemhm
          30 140 139 132 hintmask 01111100
          572 718 rmoveto
          -25 callsubr
          hintmask 10111100
          -338 -485 rmoveto
          -73 callsubr
          hintmask 01111100
          307 -72 rmoveto
          -72 callsubr
          endchar
        </CharString>
        <CharString name="ampersand">
          -17 115 234 101 169 108 hstemhm
          4 155 -120 152 142 146 hintmask 11101100
          246 710 rmoveto
          -120 -87 -72 -95 hvcurveto
          0 -80 39 -49 79 -21 rrcurveto
          -4 vlineto
          hintmask 11110100
          -95 -23 -58 -57 0 -111 0 -123 86 -92 158 0 119 0 71 43 41 44 rrcurveto
          262 66 101 vlineto
          hintmask 11101100
          -262 hlineto
          -55 -37 38 52 49 26 30 47 hvcurveto
          39 0 22 -13 30 -31 rrcurveto
          85 73 rlineto
          -54 58 -59 21 -81 0 rrcurveto
          87 -378 rmoveto
          -206 vlineto
          hintmask 11110100
          -16 -17 -27 -11 -33 0 rrcurveto
          -64 -34 46 66 62 36 60 79 hvcurveto
          endchar
        </CharString>
        <CharString name="aogonek">
          -213 92 129 -21 0 131 -74 63 295 116 hstemhm
          30 140 23 125 -9 132 hintmask 11011110
          457 -171 rmoveto
          -10 65 rlineto
          -93 -27 -36 12 0 31 0 32 47 46 148 56 2 0 2 1 2 1 rrcurveto
          hintmask 11011101
          -11 68 rlineto
          -69 -13 -3 1 8 40 rrcurveto
          68 352 rlineto
          -53 16 -58 8 -48 0 rrcurveto
          -205 -118 -189 -186 -106 45 -50 59 hvcurveto
          53 0 65 43 57 56 -1 -34 6 -22 15 -12 rrcurveto
          hintmask 11001110
          -101 -54 -35 -51 0 -48 rrcurveto
          0 -69 92 -47 172 80 rrcurveto
          hintmask 10101100
          -245 289 rmoveto
          -73 callsubr
          endchar
        </CharString>
        <CharString name="approxequal">
          89 121 -37 120 25 120 -37 121 -4 -20 hstemhm
          17 527 hintmask 10101100
          372 318 rmoveto
          68 0 44 51 60 109 rrcurveto
          -76 40 rlineto
          -33 -49 -21 -31 -19 0 rrcurveto
          hintmask 10010100
          -36 0 -33 84 -78 0 -71 0 -55 -58 -60 -111 rrcurveto
          74 -40 rlineto
          35 54 25 34 21 0 rrcurveto
          39 0 37 -83 79 0 rrcurveto
          -45 -229 rmoveto
          68 0 44 52 61 109 rrcurveto
          -75 40 rlineto
          -33 -49 -21 -31 -20 0 rrcurveto
          hintmask 01101100
          -36 0 -33 83 -77 0 -72 0 -55 -58 -61 -110 rrcurveto
          77 -39 rlineto
          35 53 24 34 21 0 38 0 36 -84 79 0 rrcurveto
          endchar
        </CharString>
        <CharString name="aring">
          -13 131 -130 119 295 116 48 219 hstemhm
          30 140 139 132 hintmask 01111100
          394 785 rmoveto
          -11 callsubr
          hintmask 10111100
          -182 -667 rmoveto
          -73 callsubr
          hintmask 01111100
          307 -72 rmoveto
          -72 callsubr
          endchar
        </CharString>
        <CharString name="aringacute">
          -13 131 -130 119 295 116 hstemhm
          30 140 139 132 hintmask 01111000
          265 876 rmoveto
          -22 callsubr
          129 -91 rmoveto
          26 callsubr
          hintmask 10111000
          -182 -667 rmoveto
          -73 callsubr
          hintmask 01111000
          307 -72 rmoveto
          -72 callsubr
          endchar
        </CharString>
        <CharString name="asciicircum">
          527 317 hstem
          14 522 vstem
          347 844 rmoveto
          -144 0 -189 -317 156 0 104 199 108 -199 154 0 rlineto
          endchar
        </CharString>
        <CharString name="asciitilde">
          210 120 -20 120 hstemhm
          -3 556 hintmask 01100000
          178 430 rmoveto
          -90 0 -51 -75 -40 -83 rrcurveto
          88 -40 rlineto
          26 48 24 30 39 0 rrcurveto
          hintmask 10100000
          60 0 42 -100 96 0 89 0 50 66 42 93 rrcurveto
          -88 39 rlineto
          -27 -51 -24 -27 -38 0 rrcurveto
          -60 0 -40 100 -98 0 rrcurveto
          endchar
        </CharString>
        <CharString name="asterisk">
          76 517 hstem
          3 544 vstem
          200 593 rmoveto
          150 0 -21 -189 172 79 46 -142 -186 -38 128 -140 -120 -87 -94 164 -94 -164 -120 87 128 140 -186 38 46 142 172 -79 rlineto
          endchar
        </CharString>
        <CharString name="asterisk.alt">
          193 513 hstem
          60 507 vstem
          370 527 rmoveto
          63 148 -120 31 -11 -163 rlineto
          -26 -5 rmoveto
          -97 127 -87 -88 136 -91 rlineto
          180 -48 rmoveto
          159 22 -32 119 -148 -72 rlineto
          -168 -45 rmoveto
          -159 -22 33 -119 147 72 rlineto
          112 -31 rmoveto
          98 -127 87 88 -136 91 rlineto
          -143 -41 rmoveto
          -63 -148 121 -32 9 164 rlineto
          endchar
        </CharString>
        <CharString name="at">
          -158 106 117.5 104.5 214 101 99 103 hstemhm
          25 112 67 116 66 112 -45 120 hintmask 11111101
          424 -149 rmoveto
          16 105 rlineto
          -221 -32 -82 62 0 167 0 229 134 202 118 0 52 0 19 -38 -7 -62 -11 1 -10 0 -10 0 rrcurveto
          -141 -77 -163 -142 -85 30 -39 44 hvcurveto
          hintmask 11111110
          35 0 39 25 37 36 rrcurveto
          -6 -51 115 -1 rlineto
          10 68 11 60 10 51 rrcurveto
          34 173 rlineto
          hintmask 11111101
          34 175 -55 95 -135 0 -214 0 -168 -267 0 -276 rrcurveto
          0 -216 113 -122 286 45 rrcurveto
          -81 319 rmoveto
          -13 -10 13 32 63 37 106 27 hvcurveto
          9 0 21 -4 18 -7 rrcurveto
          -34 -181 rlineto
          -21 -16 -22 -6 -12 0 rrcurveto
          endchar
        </CharString>
        <CharString name="atilde">
          -13 131 -130 119 295 116 62 104 -58 -20 55 104 hstemhm
          30 140 139 132 hintmask 01110011
          465 684 rmoveto
          hintmask 01101111
          -13 callsubr
          hintmask 01110011
          -12 callsubr
          hintmask 10101111
          -253 -566 rmoveto
          -73 callsubr
          hintmask 01101111
          307 -72 rmoveto
          -72 callsubr
          endchar
        </CharString>
        <CharString name="b">
          -13 117 290 128 0 -20 hstemhm
          382 138 hintmask 10110000
          198 -13 rmoveto
          202 120 184 180 115 -46 56 -64 hvcurveto
          -50 0 -58 -36 -53 -48 rrcurveto
          52 268 -138 -10 -132 -678 rlineto
          45 -16 68 -15 54 0 rrcurveto
          69 117 rmoveto
          -18 0 -30 5 -32 10 rrcurveto
          hintmask 11010000
          42 218 rlineto
          37 33 39 24 29 0 rrcurveto
          26 22 -22 -57 -95 -56 -116 -59 hvcurveto
          endchar
        </CharString>
        <CharString name="backslash">
          -112 929 hstem
          4 542 vstem
          4 760 rmoveto
          419 -872 123 57 -419 872 rlineto
          endchar
        </CharString>
        <CharString name="bar">
          -105 915 hstem
          201 147 vstem
          348 810 rmoveto
          -147 -915 147 hlineto
          endchar
        </CharString>
        <CharString name="braceleft">
          -215 951 hstemhm
          84 141 -41 132 -115 135 -91 127 hintmask 11000000
          348 -215 rmoveto
          -37 callsubr
          hintmask 10010000
          -36 callsubr
          hintmask 11001000
          90 24 34 48 0 41 rrcurveto
          hintmask 10100000
          -35 callsubr
          hintmask 11001000
          -34 callsubr
          hintmask 10010000
          75 -13 38 -22 0 -29 rrcurveto
          hintmask 11000000
          -33 callsubr
          endchar
        </CharString>
        <CharString name="braceleft.cap">
          -166 951 hstemhm
          94 141 -41 132 -115 135 -91 127 hintmask 11000000
          358 -166 rmoveto
          -37 callsubr
          hintmask 10010000
          -36 callsubr
          hintmask 11001000
          90 24 34 48 0 41 rrcurveto
          hintmask 10100000
          -35 callsubr
          hintmask 11001000
          -34 callsubr
          hintmask 10010000
          75 -13 38 -22 0 -29 rrcurveto
          hintmask 11000000
          -33 callsubr
          endchar
        </CharString>
        <CharString name="braceright">
          635 -20 hstemhm
          175 127 -91 135 -115 132 -41 141 hintmask 10001000
          19 -215 rmoveto
          hintmask 10010000
          265 63 79 83 0 76 rrcurveto
          hintmask 11001000
          -32 callsubr
          hintmask 10100000
          -75 13 -38 22 0 29 rrcurveto
          hintmask 10001000
          -31 callsubr
          hintmask 10100000
          -30 callsubr
          hintmask 11001000
          -90 -24 -34 -48 0 -41 rrcurveto
          hintmask 10010000
          -29 callsubr
          endchar
        </CharString>
        <CharString name="braceright.cap">
          -166 951 hstemhm
          185 127 -91 135 -115 132 -41 141 hintmask 10001000
          29 -166 rmoveto
          hintmask 10010000
          265 63 79 83 0 76 rrcurveto
          hintmask 11001000
          -32 callsubr
          hintmask 10100000
          -75 13 -38 22 0 29 rrcurveto
          hintmask 10001000
          -31 callsubr
          hintmask 10100000
          -30 callsubr
          hintmask 11001000
          -90 -24 -34 -48 0 -41 rrcurveto
          hintmask 10010000
          -29 callsubr
          endchar
        </CharString>
        <CharString name="bracketleft">
          -180 110 660 110 hstem
          48 497 vstem
          48 -180 rmoveto
          -76 callsubr
          endchar
        </CharString>
        <CharString name="bracketleft.cap">
          -131 110 660 110 hstem
          58 497 vstem
          58 -131 rmoveto
          -76 callsubr
          endchar
        </CharString>
        <CharString name="bracketright">
          -179 110 660 110 hstem
          0 497 vstem
          497 701 rmoveto
          -75 callsubr
          endchar
        </CharString>
        <CharString name="bracketright.cap">
          -130 110 660 110 hstem
          10 497 vstem
          507 750 rmoveto
          -75 callsubr
          endchar
        </CharString>
        <CharString name="breve">
          564 107 hstem
          96 415 vstem
          432 760 rmoveto
          15 callsubr
          endchar
        </CharString>
        <CharString name="bullet">
          142 312 hstem
          130 301 vstem
          431 318 rmoveto
          80 -56 56 -83 -83 -79 -68 -106 -80 61 -58 76 84 80 69 107 vhcurveto
          endchar
        </CharString>
        <CharString name="bullet.alt">
          165 270 hstem
          121 327 vstem
          393 165 rmoveto
          55 270 -272 0 -55 -270 rlineto
          endchar
        </CharString>
        <CharString name="c">
          -12 118 297 118 hstem
          47 139 195 126 vstem
          507 321 rmoveto
          -71 callsubr
          endchar
        </CharString>
        <CharString name="cacute">
          -12 118 297 118 hstem
          47 139 195 126 vstem
          199 634 rmoveto
          -22 callsubr
          308 -313 rmoveto
          -71 callsubr
          endchar
        </CharString>
        <CharString name="caron">
          554 219 hstem
          114 392 vstem
          283 554 rmoveto
          17 callsubr
          endchar
        </CharString>
        <CharString name="caron.alt">
          544 262 hstem
          245 184 vstem
          281 801 rmoveto
          18 callsubr
          endchar
        </CharString>
        <CharString name="ccaron">
          -12 118 297 118 hstem
          47 139 195 126 vstem
          345 568 rmoveto
          17 callsubr
          171 -247 rmoveto
          -71 callsubr
          endchar
        </CharString>
        <CharString name="ccedilla">
          -81 187 -90 -21 1 110 297 118 hstemhm
          47 139 67 118 10 126 hintmask 10011100
          371 -189 rmoveto
          hintmask 01011100
          5 94 -27 61 -42 29 rrcurveto
          hintmask 10011100
          47 8 55 18 61 27 rrcurveto
          hintmask 00111110
          -10 72 rlineto
          -228 -33 -46 24 0 100 0 101 60 91 78 0 43 0 15 -25 -1 -59 rrcurveto
          126 2 rlineto
          12 144 -48 56 -107 0 -173 0 -144 -156 0 -183 0 -90 40 -74 90 -22 rrcurveto
          hintmask 10011100
          -37 -24 -32 -47 -30 -72 rrcurveto
          69 -22 rlineto
          28 55 26 33 24 0 22 0 10 -29 -4 -81 rrcurveto
          endchar
        </CharString>
        <CharString name="cdotaccent">
          -12 118 297 118 72.5 138 hstem
          47 139 195 126 vstem
          416 594 rmoveto
          16 callsubr
          244 -272 rmoveto
          -71 callsubr
          endchar
        </CharString>
        <CharString name="cedilla">
          -69 96 hstem
          281 118 vstem
          175 -157 rmoveto
          28 55 26 33 24 0 22 0 10 -29 -4 -81 rrcurveto
          118 2 rlineto
          8 138 -62 66 -76 0 -65 0 -52 -51 -46 -111 rrcurveto
          endchar
        </CharString>
        <CharString name="cent">
          21 121 217 137 124 -20 hstem
          55 132 vstem
          187 265 rmoveto
          0 43 21 35 81 14 rrcurveto
          -39 -177 rlineto
          -45 20 -18 29 0 36 rrcurveto
          242 -244 rmoveto
          22 121 rlineto
          -42 3 -36 4 -31 5 rrcurveto
          45 210 rlineto
          28 -1 33 -1 37 -3 rrcurveto
          25 133 rlineto
          -31 3 -29 1 -27 0 rrcurveto
          27 124 -122 0 -26 -136 rlineto
          -183 -35 -64 -114 0 -93 0 -81 53 -63 99 -38 rrcurveto
          -33 -143 122 0 24 114 rlineto
          33 -5 37 -4 39 -1 rrcurveto
          endchar
        </CharString>
        <CharString name="check.1">
          8 -21 0 178.5 464.5 -20 hstemhm
          45 549 hintmask 10110000
          594 630 rmoveto
          -136 56 rlineto
          hintmask 01110000
          -93 -149 -78 -183 -60 -189 rrcurveto
          -7 1 -48 226 -127 -38 92 -365 122 -2 rlineto
          95 244 111 203 129 196 rrcurveto
          endchar
        </CharString>
        <CharString name="check.2">
          7 -21 26 -21 39 -21 619 -20 hstemhm
          2 581 hintmask 01011000
          264 -9 rmoveto
          hintmask 00111000
          137 18 -89 254 271 365 -127 61 -189 -303 -45 155 -134 -35 83 -238 rlineto
          hintmask 10011000
          -169 -244 87 -38 125 171 rlineto
          endchar
        </CharString>
        <CharString name="circumflex">
          628 -20 22 -20 hstemhm
          94 392 hintmask 10100000
          392 557 rmoveto
          4 callsubr
          hintmask 01100000
          -223 -146 rlineto
          hintmask 10100000
          5 callsubr
          endchar
        </CharString>
        <CharString name="colon">
          4 -21 0 209 138 209 0 -20 hstemhm
          170 209 hintmask 10011000
          170 434 rmoveto
          hintmask 10101000
          -57 46 -47 59 59 45 47 57 57 -45 48 -59 vhcurveto
          -59 -46 -48 -57 hvcurveto
          hintmask 01011000
          -345 vmoveto
          -58 46 -48 59 59 45 48 58 56 -45 47 -59 vhcurveto
          -59 -46 -47 -56 hvcurveto
          endchar
        </CharString>
        <CharString name="colon.alt">
          68 168 144 168 hstem
          150 264 vstem
          383 380 rmoveto
          31 168 -170 0 -31 -168 rlineto
          108 -312 rmoveto
          31 168 -170 0 -32 -168 rlineto
          endchar
        </CharString>
        <CharString name="colonmonetary">
          476 125 hstem
          46 133 vstem
          179 286 rmoveto
          0 67 33 68 138 34 rrcurveto
          -73 -278 rlineto
          -66 21 -32 30 0 58 rrcurveto
          28 -360 rmoveto
          105 0 27 107 rlineto
          25 -4 26 -4 28 -4 rrcurveto
          51 117 rlineto
          -37 6 -33 5 -30 6 rrcurveto
          84 316 rlineto
          31 3 33 2 37 0 rrcurveto
          14 125 rlineto
          -27 -1 -26 -2 -25 -2 rrcurveto
          27 97 -105 0 -30 -112 rlineto
          -18 -3 -17 -4 -17 -4 17 62 16 61 0 0 rrcurveto
          -105 0 -43 -166 rlineto
          -131 -67 -38 -103 0 -93 0 -61 21 -47 41 -35 rrcurveto
          -55 -195 105 0 39 144 rlineto
          14 -5 16 -5 16 -5 rrcurveto
          endchar
        </CharString>
        <CharString name="comma">
          -142 316 hstem
          172 168 vstem
          103 -112 rmoveto
          56 -30 rlineto
          112 93 68 95 1 128 rrcurveto
          -168 -4 rlineto
          2 -109 -12 -85 -59 -88 rrcurveto
          endchar
        </CharString>
        <CharString name="commaaccent">
          -286 221 hstem
          152 203 vstem
          152 -262 rmoveto
          20 callsubr
          endchar
        </CharString>
        <CharString name="commaaccent.rot">
          575 221 hstem
          180 203 vstem
          383 772 rmoveto
          21 callsubr
          endchar
        </CharString>
        <CharString name="copyright">
          7 71 76 83 111.5 115.5 78 71 hstem
          39 78 58 86 57 72 63 78 vstem
          322 613 rmoveto
          -162 -121 -156 -206 -159 92 -85 126 176 98 163 203 158 -85 82 -124 hvcurveto
          -9 -71 rmoveto
          79 61 -50 -132 -157 -63 -125 -123 -83 -67 55 130 159 85 120 111 hvcurveto
          -78 vmoveto
          -77 -61 -90 -101 hvcurveto
          0 -87 51 -58 120 38 rrcurveto
          15 78 rlineto
          -80 -18 -20 20 0 43 0 46 16 43 22 0 10 0 10 -8 -1 -22 rrcurveto
          72 1 rlineto
          3 79 -31 36 -49 0 rrcurveto
          endchar
        </CharString>
        <CharString name="d">
          -13 130 -128 115 302 115 hstemhm
          31 138 140 136 hintmask 10110000
          216 117 rmoveto
          -70 callsubr
          hintmask 01111000
          310 -69 rmoveto
          -69 callsubr
          endchar
        </CharString>
        <CharString name="dagger">
          435.5 109 -84 109.5 hstemhm
          111 428 hintmask 01100000
          294 140 rmoveto
          hintmask 10100000
          86 302 137 -13 22 109 -130 13 33 138 -133 12 rlineto
          hintmask 01100000
          -31 -138 -145 14 -22 -110 142 -13 -75 -335 19 -12 rlineto
          endchar
        </CharString>
        <CharString name="daggerdbl">
          236 109 -84.5 110 65 109 -84 109.5 hstemhm
          72 467 hintmask 10011000
          282 89 rmoveto
          43 154 153 -14 22 109 -145 14 rlineto
          hintmask 10101000
          25 90 137 -13 22 109 -131 13 34 138 -133 12 rlineto
          hintmask 01011000
          -31 -138 -145 14 -22 -110 143 -13 -21 -90 -139 13 -22 -110 137 -13 -42 -186 18 -13 rlineto
          endchar
        </CharString>
        <CharString name="dcaron">
          -13 130 -128 115 302 115 hstemhm
          31 138 140 136 hintmask 01110000
          623 801 rmoveto
          18 callsubr
          hintmask 10110000
          -555 -689 rmoveto
          -70 callsubr
          hintmask 01111000
          310 -69 rmoveto
          -69 callsubr
          endchar
        </CharString>
        <CharString name="dcroat">
          -13 130 -128 115 302 115 41 86 hstemhm
          31 138 140 136 hintmask 10111000
          216 117 rmoveto
          -70 callsubr
          hintmask 01111100
          310 -69 rmoveto
          -10 66 rlineto
          -75 -16 -3 1 7 39 rrcurveto
          82 423 57 0 17 87 -57 0 11 58 -137 -10 -9 -48 -120 0 -17 -86 120 0 -8 -43 rlineto
          -12 1 -12 1 -11 0 rrcurveto
          -199 -119 -187 -179 -113 49 -55 60 hvcurveto
          52 0 62 43 55 53 rrcurveto
          -6 -101 50 -31 173 97 rrcurveto
          endchar
        </CharString>
        <CharString name="degree">
          287 103 195 103 hstem
          118 110 174 110 vstem
          333 688 rmoveto
          -113 -102 -87 -131 -113 76 -70 103 112 103 87 131 112 -76 71 -103 hvcurveto
          -23 -298 rmoveto
          -48 -34 38 53 62 39 42 53 48 34 -38 -53 -62 -40 -42 -52 hvcurveto
          endchar
        </CharString>
        <CharString name="dieresis">
          579 138 hstem
          88 420 vstem
          463 581 rmoveto
          -28 callsubr
          -76 hmoveto
          -27 callsubr
          endchar
        </CharString>
        <CharString name="divide">
          57 130 57 118 57 130 hstem
          49 473 vstem
          cntrmask 11100000
          378 419 rmoveto
          28 130 -142 0 -27 -130 rlineto
          285 -57 rmoveto
          -450 0 -23 -118 449 0 rlineto
          -191 -187 rmoveto
          28 130 -141 0 -28 -130 rlineto
          endchar
        </CharString>
        <CharString name="dollar">
          -69 213 332 211 hstem
          95 145 94 144 vstem
          237 -69 rmoveto
          26 104 rlineto
          159 7 56 62 0 63 0 124 -238 104 0 56 0 34 74 4 183 -50 rrcurveto
          26 125 rlineto
          -33 7 -32 5 -28 3 rrcurveto
          35 108 -125 0 -29 -102 rlineto
          -156 -4 -60 -64 0 -66 0 -122 239 -98 0 -60 0 -36 -84 -2 -196 46 rrcurveto
          -26 -125 rlineto
          42 -7 39 -6 36 -3 rrcurveto
          -32 -107 rlineto
          endchar
        </CharString>
        <CharString name="dotaccent">
          579.5 138 hstem
          187 198 vstem
          340 580 rmoveto
          16 callsubr
          endchar
        </CharString>
        <CharString name="dotlessi">
          -11 121 281.5 115.5 hstem
          155 144 vstem
          493 54 rmoveto
          -60 callsubr
          endchar
        </CharString>
        <CharString name="e">
          -12 118 79 74 151 112 hstem
          42 134 208 131 vstem
          491 60 rmoveto
          -68 callsubr
          -169 350 rmoveto
          -67 callsubr
          endchar
        </CharString>
        <CharString name="eacute">
          -12 118 79 74 151 112 hstem
          42 134 208 131 vstem
          206 635 rmoveto
          -22 callsubr
          285 -575 rmoveto
          -68 callsubr
          -169 350 rmoveto
          -67 callsubr
          endchar
        </CharString>
        <CharString name="ebreve">
          -12 118 79 74 151 112 57 107 hstem
          42 134 208 131 vstem
          510 775 rmoveto
          15 callsubr
          -98 -668 rmoveto
          -68 callsubr
          -169 350 rmoveto
          -67 callsubr
          endchar
        </CharString>
        <CharString name="ecaron">
          -12 118 79 74 151 112 hstem
          42 134 208 131 vstem
          352 569 rmoveto
          17 callsubr
          148 -509 rmoveto
          -68 callsubr
          -169 350 rmoveto
          -67 callsubr
          endchar
        </CharString>
        <CharString name="ecircumflex">
          -12 118 79 74 151 112 hstem
          42 134 208 131 vstem
          467 572 rmoveto
          -14 callsubr
          119 -608 rmoveto
          -68 callsubr
          -169 350 rmoveto
          -67 callsubr
          endchar
        </CharString>
        <CharString name="edieresis">
          -12 118 79 74 151 112 72 138 hstem
          42 134 208 131 vstem
          534 596 rmoveto
          -28 callsubr
          -76 hmoveto
          -27 callsubr
          332 -533 rmoveto
          -68 callsubr
          -169 350 rmoveto
          -67 callsubr
          endchar
        </CharString>
        <CharString name="edotaccent">
          -12 118 79 74 151 112 72.5 138 hstem
          42 134 208 131 vstem
          423 595 rmoveto
          16 callsubr
          221 -534 rmoveto
          -68 callsubr
          -169 350 rmoveto
          -67 callsubr
          endchar
        </CharString>
        <CharString name="egrave">
          -12 118 79 74 151 112 108 -20 hstem
          42 134 208 131 vstem
          525 630 rmoveto
          -74 callsubr
          -6 -513 rmoveto
          -68 callsubr
          -169 350 rmoveto
          -67 callsubr
          endchar
        </CharString>
        <CharString name="eight">
          -13 107 422 114 hstemhm
          34 130 -49 129 99 125 hintmask 11011000
          468 161 rmoveto
          0 63 -47 55 -51 49 45 26 55 30 67 35 rrcurveto
          -40 78 rlineto
          -77 -39 -64 -35 -54 -31 -33 32 -25 29 0 26 0 35 40 17 150 -32 rrcurveto
          40 131 rlineto
          -230 17 -129 -84 0 -102 0 -51 33 -46 41 -40 rrcurveto
          hintmask 11101000
          -124 -83 -31 -54 0 -59 rrcurveto
          -83 71 -58 123 vhcurveto
          140 100 79 95 hvcurveto
          -212 -67 rmoveto
          -48 -44 20 42 hvcurveto
          0 24 14 27 81 54 45 -40 39 -35 0 -34 rrcurveto
          -35 -38 -23 -49 vhcurveto
          endchar
        </CharString>
        <CharString name="eight.den">
          -220 79 160 -21 113 86 hstemhm
          46 102 -47 100 67 99 hintmask 11101100
          367 -104 rmoveto
          40 callsubr
          hintmask 11110100
          36 callsubr
          -156 -37 rmoveto
          37 callsubr
          endchar
        </CharString>
        <CharString name="eight.inf">
          -160 79 252 86 hstemhm
          58 102 -47 100 67 99 hintmask 11011000
          379 -44 rmoveto
          40 callsubr
          hintmask 11101000
          36 callsubr
          -156 -37 rmoveto
          37 callsubr
          endchar
        </CharString>
        <CharString name="eight.num">
          415 79 139 -20 133 86 hstemhm
          156 102 -47 100 67 99 hintmask 11101100
          477 531 rmoveto
          40 callsubr
          hintmask 11110100
          36 callsubr
          -156 -37 rmoveto
          37 callsubr
          endchar
        </CharString>
        <CharString name="eight.small">
          -10 79 252 86 hstemhm
          80 102 -47 100 67 99 hintmask 11011000
          401 106 rmoveto
          40 callsubr
          hintmask 11101000
          36 callsubr
          -156 -37 rmoveto
          37 callsubr
          endchar
        </CharString>
        <CharString name="eight.sup">
          315 79 243 -20 29 86 hstemhm
          136 102 -47 100 67 99 hintmask 11001100
          457 431 rmoveto
          0 40 -32 33 -35 29 30 13 36 16 43 17 rrcurveto
          -30 58 rlineto
          hintmask 11101100
          -54 -22 -46 -19 -39 -18 -22 17 -17 16 0 14 0 22 29 11 105 -29 rrcurveto
          37 98 rlineto
          -176 24 -95 -65 0 -70 0 -32 22 -27 29 -24 rrcurveto
          hintmask 11010100
          36 callsubr
          -156 -37 rmoveto
          37 callsubr
          endchar
        </CharString>
        <CharString name="ellipsis">
          0 175 hstem
          -26 171 12 171 12 171 vstem
          cntrmask 01110000
          471 hmoveto
          27 callsubr
          -52 hmoveto
          27 callsubr
          -52 hmoveto
          27 callsubr
          endchar
        </CharString>
        <CharString name="emacron">
          -12 118 79 74 151 112 85 115 hstem
          42 134 208 131 vstem
          561 722 rmoveto
          -25 callsubr
          -48 -547 rmoveto
          -68 callsubr
          -169 350 rmoveto
          -67 callsubr
          endchar
        </CharString>
        <CharString name="emdash">
          247 110 hstem
          59 471 vstem
          530 357 rmoveto
          -449 0 -22 -110 449 0 rlineto
          endchar
        </CharString>
        <CharString name="endash">
          247 110 hstem
          67 436 vstem
          503 357 rmoveto
          -415 0 -21 -110 415 0 rlineto
          endchar
        </CharString>
        <CharString name="eogonek">
          -213 92 111 116 79 74 151 112 hstemhm
          42 134 -5 125 88 131 hintmask 11110110
          437 -169 rmoveto
          -13 62 rlineto
          -92 -26 -36 13 0 29 0 48 115 61 80 42 rrcurveto
          -13 71 rlineto
          hintmask 11111010
          -234 -43 -62 10 -6 87 222 16 117 71 0 117 rrcurveto
          82 -59 51 -95 -177 -142 -176 -163 vhcurveto
          0 -117 76 -90 152 14 rrcurveto
          hintmask 11010110
          -70 -40 -29 -43 0 -39 rrcurveto
          0 -73 92 -46 174 82 rrcurveto
          hintmask 11111010
          -115 579 rmoveto
          38 24 -22 -31 hvcurveto
          0 -58 -75 -31 -126 -9 rrcurveto
          18 80 52 71 69 0 rrcurveto
          endchar
        </CharString>
        <CharString name="equal">
          145 123 86 124 hstem
          48 454 vstem
          502 478 rmoveto
          -454 -124 454 hlineto
          -86 vmoveto
          -454 -123 454 hlineto
          endchar
        </CharString>
        <CharString name="eth">
          -15 110 261 107 165 -20 hstem
          38 141 195 137 vstem
          232 -15 rmoveto
          159 120 139 194 hvcurveto
          0 89 -27 80 -46 74 rrcurveto
          78 22 -19 76 -109 -31 rlineto
          -25 31 -28 29 -31 28 rrcurveto
          -110 -66 rlineto
          22 -20 20 -20 18 -20 rrcurveto
          -97 -27 22 -76 128 36 rlineto
          14 -20 11 -20 9 -21 -6 1 -7 0 -7 0 rrcurveto
          -156 -127 -131 -153 -116 75 -78 119 hvcurveto
          24 110 rmoveto
          -49 -28 41 68 78 45 74 64 hvcurveto
          18 0 32 -7 35 -12 1 -10 0 -11 0 -11 rrcurveto
          -116 -44 -94 -74 vhcurveto
          endchar
        </CharString>
        <CharString name="exclam">
          4 -21 0 181 529 -20 hstemhm
          185 180 -163.5 147.5 hintmask 10101000
          359 693 rmoveto
          -168 0 21 -438 127 0 rlineto
          hintmask 01110000
          -64 -91 rmoveto
          -50 -40 -41 -49 -50 40 -41 50 51 39 41 50 hvcurveto
          49 -39 41 -51 vhcurveto
          endchar
        </CharString>
        <CharString name="exclamdown">
          466 154 hstem
          117 309 vstem
          261 620 rmoveto
          -30 -154 165 0 30 154 rlineto
          -183 -257 rmoveto
          -126 -421 180 0 40 421 rlineto
          endchar
        </CharString>
        <CharString name="f">
          -178 108 294.5 108.5 226 147 hstem
          63 137 131 88 31 117 vstem
          419 28 rmoveto
          0 65 -26 68 -69 66 rrcurveto
          163 -5 21 112 -266 -2 rlineto
          42 129 66 98 61 0 49 0 1 -58 -38 -68 rrcurveto
          59 -20 rlineto
          119 147 -7 146 -126 0 -137 0 -146 -169 -74 -206 rrcurveto
          -60 0 -20 -89 50 -16 rlineto
          -12 -53 -6 -54 0 -53 rrcurveto
          -161 63 -83 98 102 93 86 120 vhcurveto
          -144 -98 rmoveto
          -43 -32 34 111 hvcurveto
          0 40 3 41 7 40 84 -61 37 -68 0 -63 rrcurveto
          -44 -18 -30 -38 vhcurveto
          endchar
        </CharString>
        <CharString name="f.lig">
          -150 108 266.5 108.5 226 147 hstem
          63 137 131 88 31 117 vstem
          419 43 rmoveto
          0 60 -26 63 -67 61 rrcurveto
          161 -5 21 112 -268 -2 rlineto
          42 128 67 99 62 0 49 0 1 -58 -38 -68 rrcurveto
          59 -20 rlineto
          119 147 -7 146 -126 0 -138 0 -147 -173 -73 -202 rrcurveto
          -59 0 -20 -89 49 -15 rlineto
          -11 -49 -6 -48 0 -47 rrcurveto
          -154 63 -79 98 102 93 80 113 vhcurveto
          -144 -85 rmoveto
          -43 -32 31 103 hvcurveto
          0 35 3 36 5 36 86 -58 37 -62 0 -57 rrcurveto
          -40 -18 -24 -38 vhcurveto
          endchar
        </CharString>
        <CharString name="five">
          -3 125 -101 -21 500.5 119.5 hstemhm
          352 131 hintmask 10110000
          483 212 rmoveto
          0 72 -55 69 -173 38 rrcurveto
          24 110 223 -1 36 120 -359 0 -69 -316 rlineto
          177 -29 65 -35 0 -47 0 -47 -67 -41 -226 24 rrcurveto
          hintmask 01110000
          -16 -129 rlineto
          317 -26 123 125 0 113 rrcurveto
          endchar
        </CharString>
        <CharString name="five.den">
          -212 91 216.5 89.5 hstem
          266 106 vstem
          372 -76 rmoveto
          32 callsubr
          endchar
        </CharString>
        <CharString name="five.inf">
          -152 91 216.5 89.5 hstem
          278 106 vstem
          384 -16 rmoveto
          32 callsubr
          endchar
        </CharString>
        <CharString name="five.num">
          423 91 4 -20 232.5 89.5 hstemhm
          376 106 hintmask 10110000
          482 559 rmoveto
          44 callsubr
          hintmask 01110000
          45 callsubr
          hintmask 10110000
          46 callsubr
          endchar
        </CharString>
        <CharString name="five.small">
          -2 91 216.5 89.5 hstem
          300 106 vstem
          406 134 rmoveto
          32 callsubr
          endchar
        </CharString>
        <CharString name="five.sup">
          323 91 97 -20 139.5 89.5 hstem
          356 106 vstem
          462 459 rmoveto
          32 callsubr
          endchar
        </CharString>
        <CharString name="fiveeighths">
          -220 79 160 -21 113 86 65 86 75 91 4 -20 232.5 89.5 hstemhm
          46 102 -47 100 67 99 9 106 hintmask 1111101010100000
          482 559 rmoveto
          44 callsubr
          hintmask 1111011010100000
          45 callsubr
          hintmask 1111101010100000
          46 callsubr
          -429 -297 rmoveto
          -18 callsubr
          hintmask 1111101011100000
          297 -452 rmoveto
          40 callsubr
          hintmask 1111101100100000
          36 callsubr
          hintmask 1111101101100000
          -156 -37 rmoveto
          37 callsubr
          endchar
        </CharString>
        <CharString name="fivesixths">
          -220 79 107 66 230 86 75 91 4 -20 232.5 89.5 hstemhm
          55 103 121 101 -4 106 hintmask 1111011010000000
          482 559 rmoveto
          44 callsubr
          hintmask 1110111010000000
          45 callsubr
          hintmask 1111011100000000
          46 callsubr
          -429 -297 rmoveto
          -18 callsubr
          136 -568 rmoveto
          33 callsubr
          16 79 rmoveto
          34 callsubr
          endchar
        </CharString>
        <CharString name="four">
          21 -21 111 119 390 -20 28 -20 hstemhm
          30 483 hintmask 11011000
          480 111 rmoveto
          33 119 -60 0 37 190 -127 -10 -36 -180 -156 0 rlineto
          hintmask 11101000
          70 105 52 108 61 177 rrcurveto
          hintmask 11011000
          -146 8 rlineto
          -54 -182 -47 -115 -71 -130 rrcurveto
          -6 -90 274 0 -22 -111 126 0 22 111 rlineto
          endchar
        </CharString>
        <CharString name="four.den">
          -143 88 hstem
          43 358 vstem
          376 -143 rmoveto
          -17 callsubr
          endchar
        </CharString>
        <CharString name="four.inf">
          -83 88 hstem
          55 358 vstem
          388 -83 rmoveto
          -17 callsubr
          endchar
        </CharString>
        <CharString name="four.num">
          492 88 hstem
          153 358 vstem
          486 492 rmoveto
          -17 callsubr
          endchar
        </CharString>
        <CharString name="four.small">
          0 155 -88 88 hstemhm
          77 358 hintmask 01100000
          410 67 rmoveto
          hintmask 10100000
          25 88 -48 0 22 114 -100 -7 -21 -107 -97 0 rlineto
          45 65 34 67 38 108 rrcurveto
          -115 5 rlineto
          hintmask 01100000
          -32 -109 -31 -69 -45 -82 rrcurveto
          -8 -73 194 0 rlineto
          hintmask 10100000
          -13 -67 99 0 rlineto
          hintmask 01100000
          13 67 rlineto
          endchar
        </CharString>
        <CharString name="four.sup">
          392 88 hstem
          133 358 vstem
          466 392 rmoveto
          -17 callsubr
          endchar
        </CharString>
        <CharString name="fourfifths">
          -212 91 216.5 89.5 77 86 144 88 hstem
          266 106 vstem
          486 492 rmoveto
          -17 callsubr
          -393 -230 rmoveto
          -18 callsubr
          302 -424 rmoveto
          32 callsubr
          endchar
        </CharString>
        <CharString name="fraction">
          -160 921 hstem
          -62 681 vstem
          49 -160 rmoveto
          570 862 -110 59 -571 -863 rlineto
          endchar
        </CharString>
        <CharString name="fraction.afrc">
          262 86 hstem
          53 455 vstem
          53 262 rmoveto
          -18 callsubr
          endchar
        </CharString>
        <CharString name="g">
          -171 127 76 124 252 112 6 -20 hstemhm
          39 138 148 110 hintmask 11101100
          230 156 rmoveto
          -31 -22 19 51 75 43 107 59 hvcurveto
          16 0 27 -6 35 -19 -21 -57 -16 -67 -5 -64 rrcurveto
          -30 -26 -29 -13 -26 0 rrcurveto
          204 -211 rmoveto
          -66 callsubr
          hintmask 11011100
          -65 callsubr
          hintmask 11101100
          -64 callsubr
          endchar
        </CharString>
        <CharString name="gbreve">
          -171 127 452 112 6 -20 77 107 hstemhm
          39 138 148 110 hintmask 11011100
          519 779 rmoveto
          15 callsubr
          -368 -576 rmoveto
          19 callsubr
          204 -211 rmoveto
          -66 callsubr
          hintmask 10111100
          -65 callsubr
          hintmask 11011100
          -64 callsubr
          endchar
        </CharString>
        <CharString name="gcommaaccent">
          -171 127 452 112 6 -20 hstemhm
          39 138 148 110 hintmask 11011000
          445 791 rmoveto
          21 callsubr
          -215 -635 rmoveto
          19 callsubr
          204 -211 rmoveto
          -66 callsubr
          hintmask 10111000
          -65 callsubr
          hintmask 11011000
          -64 callsubr
          endchar
        </CharString>
        <CharString name="gdotaccent">
          -171 127 452 112 6 -20 92.5 138 hstemhm
          39 138 148 110 hintmask 11011100
          432 599 rmoveto
          16 callsubr
          -49 -442 rmoveto
          19 callsubr
          204 -211 rmoveto
          -66 callsubr
          hintmask 10111100
          -65 callsubr
          hintmask 11011100
          -64 callsubr
          endchar
        </CharString>
        <CharString name="germandbls">
          -10 121 -111 111 485 113 hstemhm
          375 141 -129 143 hintmask 10110000
          221 -10 rmoveto
          222 -4 73 80 0 91 0 68 -45 64 -60 62 rrcurveto
          hintmask 01101000
          68 76 51 70 0 80 0 67 -47 65 -105 0 -140 0 -99 -100 -30 -156 rrcurveto
          -89 -453 140 0 89 460 rlineto
          18 96 33 40 41 0 31 0 15 -24 0 -31 0 -54 -41 -56 -93 -111 rrcurveto
          hintmask 10110000
          85 -83 37 -56 0 -38 0 -37 -42 1 -99 8 rrcurveto
          endchar
        </CharString>
        <CharString name="grave">
          615 -20 hstem
          123 312 vstem
          435 615 rmoveto
          -74 callsubr
          endchar
        </CharString>
        <CharString name="greater">
          15 598 hstem
          44 461 vstem
          114 613 rmoveto
          -70 -114 324 -185 -324 -191 71 -108 390 242 0 114 rlineto
          endchar
        </CharString>
        <CharString name="greaterequal">
          -1 119 404 -20 123 -20 hstem
          14 501 vstem
          360 385 rmoveto
          -1 -7 -279 -112 24 -113 393 166 18 105 -310 201 -75 -103 rlineto
          332 -404 rmoveto
          48 callsubr
          endchar
        </CharString>
        <CharString name="guillemotleft">
          6 -21 539 -20 22 -20 hstemhm
          19 561 hintmask 10110000
          145 -15 rmoveto
          -26 callsubr
          376 -200 rmoveto
          112 70 -122 197 rlineto
          hintmask 11010000
          195 183 -84 89 -195 -195 -30 -139 rlineto
          endchar
        </CharString>
        <CharString name="guillemotleft.cap">
          45 541 hstem
          30 561 vstem
          156 45 rmoveto
          -26 callsubr
          376 -200 rmoveto
          112 70 -122 197 195 183 -84 89 -195 -195 -30 -139 rlineto
          endchar
        </CharString>
        <CharString name="guillemotright">
          8 -21 23 -21 hstemhm
          -7 561 hintmask 10100000
          332 -13 rmoveto
          194 202 28 139 -126 200 -113 -73 126 -192 -195 -190 rlineto
          hintmask 01100000
          -169 -84 rmoveto
          195 195 30 139 -124 205 -112 -70 122 -197 -195 -183 rlineto
          endchar
        </CharString>
        <CharString name="guillemotright.cap">
          515 -20 23 -20 hstemhm
          4 561 hintmask 01100000
          343 47 rmoveto
          194 202 28 139 rlineto
          hintmask 10100000
          -126 200 -113 -73 126 -192 -195 -190 rlineto
          -169 -84 rmoveto
          195 195 30 139 rlineto
          hintmask 01100000
          -124 205 -112 -70 122 -197 -195 -183 rlineto
          endchar
        </CharString>
        <CharString name="guilsinglleft">
          -26 558 hstem
          98 373 vstem
          284 -26 rmoveto
          28 callsubr
          endchar
        </CharString>
        <CharString name="guilsinglleft.cap">
          34 558 hstem
          109 373 vstem
          295 34 rmoveto
          28 callsubr
          endchar
        </CharString>
        <CharString name="guilsinglright">
          -22 558 hstem
          74 373 vstem
          152 -22 rmoveto
          29 callsubr
          endchar
        </CharString>
        <CharString name="guilsinglright.cap">
          38 558 hstem
          85 373 vstem
          163 38 rmoveto
          29 callsubr
          endchar
        </CharString>
        <CharString name="h">
          -12 117 -84 -21 521 -20 hstemhm
          303 146 -91 148 hintmask 10110000
          522 46 rmoveto
          -63 callsubr
          hintmask 01101000
          0 46 57 152 0 99 0 55 -21 48 -71 0 -56 0 -57 -30 -58 -56 rrcurveto
          53 271 -138 -10 -135 -696 136 0 64 330 rlineto
          40 38 34 21 26 0 25 0 10 -17 0 -26 rrcurveto
          hintmask 10110000
          -62 callsubr
          endchar
        </CharString>
        <CharString name="hbar">
          -12 117 -84 -21 385 132 0 -20 65 86 hstemhm
          303 146 -91 148 hintmask 10011100
          522 46 rmoveto
          -63 callsubr
          hintmask 01011010
          0 45 57 150 0 98 0 55 -21 48 -71 0 -57 0 -57 -30 -58 -57 rrcurveto
          26 132 121 0 17 86 -121 0 11 58 -138 -10 -9 -48 -55 0 -17 -87 55 0 -109 -561 136 0 rlineto
          hintmask 10101010
          63 325 rlineto
          40 39 35 21 26 0 25 0 10 -17 0 -26 rrcurveto
          hintmask 10011100
          0 -67 -55 -140 0 -75 rrcurveto
          0 -82 75 -21 144 89 rrcurveto
          endchar
        </CharString>
        <CharString name="hcoslug">
          -100 75 5 10 -6 10 -4 11 -10 10 -9 7 0 12 -11 11 -7 15 -15 26 -25 26 -15 8 -8 15 -12 12 0 14 -9 10 -10 19 -9 11 2 8 -7 32 71.5 22.5 hstemhm
          50 64 10 16 -3 8 5 40 -35 12 -1 12 14 10 -2 10 -10 42 -31 9 -1 7 3 12 -6 11 9 40 -29 13 -9 10 0 12 -4 11 -2 12 -5 16 18 11 10 8 hintmask 000000100000000000010100000100000100000100100000
          500 700 rmoveto
          -450 hlineto
          hintmask 100000000000000000011100000001000000010000000000
          -800 450 vlineto
          -300 396 rmoveto
          0 -17 11 -11 17 -16 9 13 5 12 0 12 rrcurveto
          18 -9 11 -13 -12 -8 -9 -13 vhcurveto
          49 -64 rmoveto
          12 -12 9 -12 9 -11 15 25 3 18 -17 17 -7 -7 -10 -9 -14 -9 rrcurveto
          -39 -93 rmoveto
          12 0 9 3 8 6 -21 27 -21 22 -14 13 -8 -8 -4 -11 0 -11 0 -23 17 -18 22 0 rrcurveto
          91 34 rmoveto
          19 -22 13 -9 15 0 15 0 9 9 8 13 rrcurveto
          5 -1 rlineto
          -1 -44 -27 -27 -32 0 -22 0 -17 8 -25 26 -21 -23 -25 -11 -32 0 -45 0 -36 30 0 40 0 31 21 24 40 13 -16 17 -7 13 0 22 rrcurveto
          32 31 32 51 46 25 -30 -26 vhcurveto
          0 -10 -2 -8 -5 -7 20 0 15 -8 2 -20 12 18 14 10 19 0 rrcurveto
          21 16 -15 -24 -23 -16 -17 -21 hvcurveto
          -14 0 -12 7 -6 12 -12 -7 -12 -10 -11 -15 rrcurveto
          hintmask 000000000000000000010000000000001000000000000000
          -72 -105 rmoveto
          -8 10 -5 -10 vlineto
          hintmask 000000000000000010000000000000001000000000000000
          -15 vlineto
          -3 1 -1 2 vhcurveto
          2 0 1 1 1 4 rrcurveto
          4 -1 rlineto
          -2 -7 -3 -3 -6 0 rrcurveto
          -6 -3 4 6 hvcurveto
          hintmask 000000000000000001000000000000100000000000000000
          15 -5 5 5 7 vlineto
          hintmask 000000000000000100000001000000000000000000000000
          -75 -21 rmoveto
          49 callsubr
          hintmask 000000000000000100000100000000000000000000000000
          22 hmoveto
          50 callsubr
          hintmask 000000000000001000000000000000000000001000000000
          132 -1 rmoveto
          6 -2 4 -3 -5 -1 -5 -5 -6 1 -4 5 vhcurveto
          3 2 4 6 hvcurveto
          hintmask 000000000000000100000100000000000000000000000000
          -120 -9 rmoveto
          4 hlineto
          hintmask 000000000000000001000100000000000000000000000000
          19 -4 5 vlineto
          hintmask 000000000000000000010000000100000000000000000000
          13 -6 hlineto
          2 4 3 3 5 0 rrcurveto
          7 2 -5 -6 hvcurveto
          hintmask 000000000000000100000000000000100000000000000000
          -14 5 -5 vlineto
          hintmask 000000000010000000000000000100000000000000000000
          -17 5 3 hlineto
          hintmask 000000000000000001000000000100000000000000000000
          13 vlineto
          3 -1 3 -3 -3 -3 -3 -5 vhcurveto
          -11 3 -5 vlineto
          hintmask 000000000000000100000100000000000000000000000000
          -16 hlineto
          -71 5 rmoveto
          6 hlineto
          hintmask 000000000000000000100100000000000000000000000000
          31 -6 5 vlineto
          hintmask 000000000000000000010000010000000000000000000000
          38 hlineto
          hintmask 000000000000000001000000010000000000000000000000
          -15 -5 vlineto
          -2 8 -1 2 -6 0 rrcurveto
          -8 hlineto
          hintmask 000000000000000000100010000000000000000000000000
          -14 3 vlineto
          4 0 0 1 1 5 rrcurveto
          5 hlineto
          hintmask 000000000000000100000001000000000000000000000000
          -17 -5 vlineto
          -1 5 0 1 -4 0 rrcurveto
          -3 hlineto
          hintmask 000000000000000100000010000000000000000000000000
          -12 7 -5 vlineto
          hintmask 000000000000000100000100000000000000000000000000
          -23 hlineto
          hintmask 000000000000000010000000000000001000000000000000
          133 10 rmoveto
          5 hlineto
          3 -4 3 -3 3 0 3 0 1 2 0 1 rrcurveto
          hintmask 000000000000000000100000000000001000000000000000
          0 7 -18 -4 0 12 0 4 4 5 7 0 3 0 3 -1 2 -3 rrcurveto
          1 4 5 0 0 -10 -5 0 rlineto
          -3 4 -2 1 -3 0 -2 0 -2 -1 0 -2 rrcurveto
          hintmask 000000000010000000000000000000000001000000000000
          0 -5 18 2 0 -11 0 -5 -3 -4 -7 0 -5 0 -3 2 -2 2 rrcurveto
          -1 -3 -5 0 rlineto
          hintmask 000000000000000000100000000000000001000000000000
          38 38 rmoveto
          -5 5 hlineto
          hintmask 000000000000000000010000000000000000001000000000
          14 hlineto
          hintmask 000000000000000000100000000000000000001000000000
          -20 vlineto
          1 4 4 3 4 0 rrcurveto
          hintmask 000000000100000000000000000000000000000100000000
          7 5 -6 -9 -7 -3 -9 -9 hvcurveto
          -6 0 -3 2 -2 4 rrcurveto
          -3 -6 -4 0 rlineto
          hintmask 100000000000000000010000000000000000000100000000
          39 -6 rmoveto
          3 3 2 4 hvcurveto
          -3 7 -9 18 0 0 rrcurveto
          -3 5 18 -5 -4 hlineto
          7 -15 6 15 -4 0 0 5 13 0 0 -5 -4 0 rlineto
          hintmask 000000001000000000000000000000000000000100000000
          -10 -24 rlineto
          -3 -7 -4 -5 -6 0 rrcurveto
          -6 -3 3 4 3 2 2 3 hvcurveto
          5 0 1 -5 -2 -2 rrcurveto
          hintmask 000000010000000000000000000000000000000000000000
          45 -24 rmoveto
          -6 -4 vlineto
          -2 -4 -2 -3 -3 -3 2 -2 2 -2 1 0 1 0 1 1 1 3 rrcurveto
          3 -1 rlineto
          -1 -5 -2 -4 -6 0 rrcurveto
          hintmask 100000000000000000000000000000000000000010000000
          -4 0 -2 2 -3 3 -3 -3 -4 -2 -6 0 -7 0 -5 4 0 6 0 6 4 3 6 2 -3 3 -2 3 0 4 rrcurveto
          hintmask 000000000001000000000000000000000000000001000000
          5 4 6 9 6 4 -4 -5 vhcurveto
          0 -5 -3 -2 -5 -3 2 -2 4 -5 3 -3 2 2 2 3 1 2 rrcurveto
          -5 6 hlineto
          hintmask 000000000100000000000000000000000100000000000000
          -114 4 rmoveto
          11 4 hlineto
          -3 -2 2 2 2 1 1 0 hvcurveto
          0 -1 1 -2 -2 -2 -2 -6 vhcurveto
          hintmask 100000000000000000000000000000000000000000100000
          132 -13 rmoveto
          hintmask 000100000000000000000000000000000000000000100000
          15 9 8 11 vhcurveto
          hintmask 000100000000000000000000000000000000000000000000
          5 0 4 -2 3 -3 rrcurveto
          4 6 -16 -6 vlineto
          hintmask 000000100000000000000000000000000000000000000000
          -3 9 -2 3 -6 0 rrcurveto
          -6 -4 -5 -12 hvcurveto
          hintmask 010000000000000000000000000000000000000000000000
          -11 4 -6 8 vhcurveto
          hintmask 000010000000000000000000000000000000000000000000
          6 0 3 6 1 6 rrcurveto
          6 hlineto
          hintmask 100000000000000000000000000000000000000000000000
          -1 -10 -6 -7 -11 0 rrcurveto
          -13 -8 7 14 hvcurveto
          hintmask 000000100000000000000000000000000000000001000000
          -29 4 rmoveto
          2 1 2 3 0 3 rrcurveto
          3 -2 2 -3 -2 -2 -1 -3 vhcurveto
          0 -2 2 -3 3 -3 rrcurveto
          hintmask 010000000000000000000000000000000000100000000000
          -68 -11 rmoveto
          51 callsubr
          hintmask 100000000000000000000000000000000000100000000000
          -1 -6 -4 -5 -8 0 rrcurveto
          -10 -6 6 9 hvcurveto
          hintmask 000000000010000000000000000000000000100000000000
          10 7 6 8 vhcurveto
          11 0 4 -7 -1 -10 rrcurveto
          hintmask 010000000000000000000000000010000000000000000000
          -89 hmoveto
          51 callsubr
          hintmask 100000000000000000000000000000010000000000000000
          -1 -6 -4 -5 -8 0 rrcurveto
          hintmask 100000000000000000000000100000000000000000000000
          -10 -6 6 9 hvcurveto
          hintmask 000000000010000000000000100000000000000000000000
          10 7 6 8 vhcurveto
          hintmask 000000000010000000000000000000010000000000000000
          11 0 4 -7 -1 -10 rrcurveto
          hintmask 010000000000000000000100000010000000000000000000
          -63 2 rmoveto
          49 callsubr
          252 hmoveto
          hintmask 010000000000000000000000000000000000000000000000
          9 7 6 9 9 7 -6 -9 vhcurveto
          hintmask 010000000000000000000100000010000000000000000000
          -9 -7 -7 -9 -9 -7 6 10 vhcurveto
          hintmask 000001000000000000000000000010000000100000000000
          -138 2 rmoveto
          10 hlineto
          6 -1 3 -4 vhcurveto
          -3 -2 -2 -7 hvcurveto
          -70 hmoveto
          10 hlineto
          6 -1 3 -4 -3 -2 -2 -7 vhcurveto
          hintmask 010000000000000000000000001000000000000000000000
          -22 -2 rmoveto
          50 callsubr
          hintmask 010000000000000000000000000000000000000000000000
          252 hmoveto
          50 callsubr
          hintmask 100000000000000000000000000000010000000000000000
          -208 -10 rmoveto
          4 hlineto
          hintmask 000001000000000000000000000000010000000000000000
          19 -5 5 5 1 vlineto
          hintmask 000000000000010000000000000000010000000000000000
          10 7 4 6 vhcurveto
          4 0 2 -1 2 -1 rrcurveto
          8 2 rlineto
          hintmask 010000000000000000000000000000000001000000000000
          -39 4 -5 vlineto
          hintmask 100000000000000000000000000000000100000000000000
          -17 5 4 hlineto
          hintmask 000001000000000000000000000000000100000000000000
          19 -11 vlineto
          hintmask 010000000000000000000000000000000100000000000000
          -19 4 -5 vlineto
          hintmask 100000000000000000000000000000010000000000000000
          -17 hlineto
          hintmask 100000000000000000000000000000000010000000000000
          69 5 rmoveto
          4 hlineto
          hintmask 000001000000000000000000000000000010000000000000
          19 -4 5 vlineto
          hintmask 000000000010000000000000000000000000000010000000
          13 -6 hlineto
          2 5 3 2 4 0 rrcurveto
          4 2 -2 -4 -3 -2 -2 -3 -2 -3 1 3 hvcurveto
          1 vlineto
          -1 0 -3 -3 -1 -4 rrcurveto
          hintmask 010000000000000000000000000000000000000010000000
          -12 6 -5 vlineto
          hintmask 100000000000000000000000000000000010000000000000
          -19 hlineto
          hintmask 100000000000000000000100000000000000000000000000
          -183 5 rmoveto
          6 hlineto
          hintmask 000000100000000000000100000000000000000000000000
          31 -6 5 vlineto
          hintmask 000000000000100000000010000000000000000000000000
          21 -5 -5 hlineto
          hintmask 000000100000000000000010000000000000000000000000
          -12 16 12 -5 5 vlineto
          hintmask 000000000000100000000000001000000000000000000000
          21 -5 -6 hlineto
          hintmask 010000000000000000000000001000000000000000000000
          -31 6 -5 vlineto
          hintmask 100000000000000000000010000000000000000000000000
          -21 5 5 hlineto
          hintmask 001000000000000000000010000000000000000000000000
          14 -16 vlineto
          hintmask 010000000000000000000010000000000000000000000000
          -14 5 -5 vlineto
          hintmask 100000000000000000000100000000000000000000000000
          -21 hlineto
          hintmask 100000000000000000000000000000000000000001000000
          234 7 rmoveto
          -2 2 -4 5 -4 4 -2 -2 -1 -2 0 -3 0 -4 3 -3 4 0 rrcurveto
          2 0 2 1 2 2 rrcurveto
          111 -2 rmoveto
          -3 -2 -3 -4 -4 -2 3 3 3 2 3 4 4 2 -3 -3 vhcurveto
          endchar
        </CharString>
        <CharString name="hungarumlaut">
          564 247 hstem
          131 470 vstem
          191 565 rmoveto
          23 callsubr
          277 -47 rmoveto
          24 callsubr
          endchar
        </CharString>
        <CharString name="hyphen">
          252 122 hstem
          58 434 vstem
          58 252 rmoveto
          434 122 -434 hlineto
          endchar
        </CharString>
        <CharString name="i">
          -11 121 281.5 115.5 74.5 140.5 hstem
          155 144 vstem
          415 585 rmoveto
          -61 callsubr
          228 -524 rmoveto
          -60 callsubr
          endchar
        </CharString>
        <CharString name="iacute">
          -11 121 281.5 115.5 hstem
          155 144 vstem
          194 620 rmoveto
          -22 callsubr
          299 -566 rmoveto
          -60 callsubr
          endchar
        </CharString>
        <CharString name="ibreve">
          -11 121 281.5 115.5 57 107 hstem
          155 144 vstem
          498 760 rmoveto
          15 callsubr
          -84 -659 rmoveto
          -60 callsubr
          endchar
        </CharString>
        <CharString name="icircumflex">
          -11 121 281.5 115.5 121 -20 22 -20 hstemhm
          155 144 hintmask 11101000
          455 557 rmoveto
          4 callsubr
          hintmask 11011000
          -223 -146 rlineto
          hintmask 11101000
          5 callsubr
          133 -599 rmoveto
          -60 callsubr
          endchar
        </CharString>
        <CharString name="idieresis">
          -11 121 281.5 115.5 72 138 hstem
          155 144 vstem
          522 581 rmoveto
          -28 callsubr
          -76 hmoveto
          -27 callsubr
          346 -524 rmoveto
          -60 callsubr
          endchar
        </CharString>
        <CharString name="igrave">
          -11 121 281.5 115.5 108 -20 hstem
          155 144 vstem
          513 615 rmoveto
          -74 callsubr
          8 -504 rmoveto
          -60 callsubr
          endchar
        </CharString>
        <CharString name="imacron">
          -11 121 281.5 115.5 85 115 hstem
          155 144 vstem
          549 707 rmoveto
          -25 callsubr
          -34 -538 rmoveto
          -60 callsubr
          endchar
        </CharString>
        <CharString name="iogonek">
          -213 92 110 121 -56 56 281.5 115.5 74.5 140.5 hstemhm
          155 144 -129 125 hintmask 11011100
          415 585 rmoveto
          -61 callsubr
          hintmask 10111010
          171 -747 rmoveto
          -13 62 rlineto
          -92 -26 -36 13 0 29 0 45 60 36 138 64 rrcurveto
          hintmask 11011100
          -11 71 rlineto
          -190 -30 -6 9 22 83 rrcurveto
          83 320 -115 0 -211 -48 10 -70 155 5 -64 -233 rlineto
          -29 -106 24 -65 97 -1 rrcurveto
          hintmask 11011010
          -61 -40 -27 -42 0 -39 rrcurveto
          0 -73 92 -46 174 82 rrcurveto
          endchar
        </CharString>
        <CharString name="j">
          -172 129 434.5 116.5 73.5 144 hstem
          294 97.89 vstem
          484 585 rmoveto
          44 144 -160 -7 -35 -144 rlineto
          -349 -750 rmoveto
          223 2 72 11 47 47 77 77 -67 131 124 411 rrcurveto
          -130 1 -231 -49 10 -70 185 5 rlineto
          -68 -289 28 -107 -27 -27 -16 -16 -23 -1 -192 6 rrcurveto
          endchar
        </CharString>
        <CharString name="k">
          12 -21 30 -21 30 -21 386 126 0 -20 hstemhm
          27 511 -151 151 hintmask 10001100
          357 -9 rmoveto
          155 18 -135 194 rlineto
          hintmask 01001010
          -59 callsubr
          hintmask 00110010
          -58 callsubr
          endchar
        </CharString>
        <CharString name="kcommaaccent">
          12 -21 30 -21 30 -21 386 126 0 -20 hstemhm
          27 511 -151 151 hintmask 10001100
          357 -9 rmoveto
          155 18 -135 194 rlineto
          hintmask 01001010
          -59 callsubr
          hintmask 00110010
          -58 callsubr
          -89 -465 rmoveto
          20 callsubr
          endchar
        </CharString>
        <CharString name="l">
          -10 111 471 136 hstem
          105 141 170 127 vstem
          488 62 rmoveto
          -57 callsubr
          -107 510 rmoveto
          -56 callsubr
          endchar
        </CharString>
        <CharString name="l.ultra">
          -10 111 471 136 hstem
          90 141 170 127 vstem
          473 62 rmoveto
          -18 67 rlineto
          -120 -41 -66 1 -26 63 182 154 103 155 0 126 rrcurveto
          79 -43 42 -68 -159 -168 -222 -276 vhcurveto
          0 -226 146 -57 237 135 rrcurveto
          -242 172 rmoveto
          206 74 132 61 19 16 -13 -33 vhcurveto
          0 -63 -55 -108 -115 -123 rrcurveto
          endchar
        </CharString>
        <CharString name="lacute">
          -10 111 471 136 hstem
          105 141 170 127 vstem
          334 811 rmoveto
          -22 callsubr
          154 -749 rmoveto
          -57 callsubr
          -107 510 rmoveto
          -56 callsubr
          endchar
        </CharString>
        <CharString name="lcaron">
          -10 111 471 136 hstem
          105 141 170 127 vstem
          609 801 rmoveto
          18 callsubr
          -269 -744 rmoveto
          -57 callsubr
          -107 510 rmoveto
          -56 callsubr
          endchar
        </CharString>
        <CharString name="lcommaaccent">
          -10 111 471 136 hstem
          105 141 170 127 vstem
          488 62 rmoveto
          -57 callsubr
          -107 510 rmoveto
          -56 callsubr
          -268 -844 rmoveto
          20 callsubr
          endchar
        </CharString>
        <CharString name="ldot">
          -10 111 146 148 177 136 hstem
          105 141 170 127 vstem
          488 62 rmoveto
          -57 callsubr
          -107 510 rmoveto
          -56 callsubr
          220 -325 rmoveto
          30 148 -121 0 -30 -148 rlineto
          endchar
        </CharString>
        <CharString name="less">
          15 598 hstem
          44 461 vstem
          435 613 rmoveto
          -391 -243 0 -113 389 -242 72 113 -325 186 325 190 rlineto
          endchar
        </CharString>
        <CharString name="lessequal">
          -1 119 507 -20 hstem
          14 511 vstem
          241 379 rmoveto
          284 137 -35 109 -388 -201 -22 -105 329 -166 66 107 -235 112 rlineto
          222 -254 rmoveto
          48 callsubr
          endchar
        </CharString>
        <CharString name="lig.1">
          -17 115 234 101 169 108 hstemhm
          -470.25 142.08301 -110 139.33398 130.16602 133.83398 22.91602 142.08398 -110 139.33301 130.16699 133.83301 hintmask 1110110110000000
          243.83301 433 rmoveto
          -50.41602 -33.91699 38 52 49 23.83301 30 43.08398 hvcurveto
          35.75 0 20.16602 -13 27.5 -31 rrcurveto
          77.91699 73 rlineto
          -49.5 58 -54.08301 21 -74.25 0 -110 0 -79.75 -72 0 -95 0 -47 12.83301 -37 24.75 -26 rrcurveto
          -272.25 hlineto
          -50.41699 -33.91602 38 52 49 23.83301 30 43.08301 hvcurveto
          35.75 0 20.16699 -13 27.5 -31 rrcurveto
          77.91699 73 rlineto
          -49.5 58 -54.08398 21 -74.25 0 -110 0 -79.75 -72 0 -95 0 -80 35.75 -49 72.41699 -21 rrcurveto
          -4 vlineto
          hintmask 1111011010000000
          -87.08301 -23 -53.16699 -57 0 -111 0 -123 78.83301 -92 144.83398 0 109.08301 0 65.08301 43 37.58398 44 rrcurveto
          262 65.08301 vlineto
          -27.5 -31 -14.66699 -44 0 -59 0 -123 78.83398 -92 144.83301 0 109.08301 0 65.08398 43 37.58301 44 rrcurveto
          262 60.5 101 vlineto
          -652.66699 -307 rmoveto
          -14.66602 -17 -24.75 -11 -30.25 0 rrcurveto
          -58.66699 -31.16699 46 66 62 33 60 72.41699 hvcurveto
          54.08301 hlineto
          458.33398 -206 rmoveto
          -14.66699 -17 -24.75 -11 -30.25 0 rrcurveto
          -58.66699 -31.16602 46 66 62 33 60 72.41602 hvcurveto
          54.08398 hlineto
          endchar
        </CharString>
        <CharString name="lig.10">
          63.25 -112 rmoveto
          62 callsubr
          -261.25 672 rmoveto
          63 callsubr
          endchar
        </CharString>
        <CharString name="lig.100">
          631 -20 hstem
          -28.41699 656 rmoveto
          110 callsubr
          -916.66602 284 rmoveto
          111 callsubr
          184.25 127 rmoveto
          15.58301 -243 -206.25 89 -36.66699 -125 213.58398 -61 -128.33398 -169 100.83398 -80 102.66602 189 115.5 -197 99.91699 80 -139.33301 176 214.5 59 -37.58398 125 -205.33301 -87 14.66699 244 rlineto
          endchar
        </CharString>
        <CharString name="lig.101">
          -311.66699 111.83398 254.83301 111.83301 vstem
          -311.66699 711 rmoveto
          -512.41602 -340 0 -114 512.41602 -343 111.83398 0 0 797 rlineto
          254.83301 hmoveto
          112 callsubr
          -478.5 -646 rmoveto
          84 callsubr
          endchar
        </CharString>
        <CharString name="lig.102">
          -342.83301 134.75 vstem
          -208.08301 727 rmoveto
          -134.75 -832 134.75 hlineto
          91.66602 758 rmoveto
          0 -157 294.25 -182 -294.25 -187 0 -152 419.83398 282 0 114 rlineto
          -737.91699 281 rmoveto
          -418.91699 -282 0 -113 418.91699 -282 0 156 -293.33301 183 293.33301 186 rlineto
          endchar
        </CharString>
        <CharString name="lig.103">
          -91 150 -48 -21 606 138 -100 -20 hstemhm
          -488.58301 129.25 55 74.25 81.58301 134.75 hintmask 10101110
          -28.41699 656 rmoveto
          -79.75 57 -46.75 15 -75.16602 7 rrcurveto
          121 -74.25 -122 vlineto
          -113.66699 -13 -70.58301 -101 0 -109 0 -94 52.25 -61 132 -48 rrcurveto
          -249 vlineto
          -54.08398 4 -55.91602 16 -79.75 49 rrcurveto
          -297.91699 186 233.75 150 rlineto
          hintmask 10011110
          28.41699 170 -387.75 -264 0 -113 423.5 -286 rlineto
          63.25 -41 36.66602 -14 89.83398 -7 rrcurveto
          -71 74.25 78 vlineto
          146.66602 14 69.66699 141 0 113 0 107 -93.5 87 -122.83301 44 rrcurveto
          175 vlineto
          37.58301 -3 66 -33 98.08301 -62 rrcurveto
          297.91699 -185 -224.58301 -143 rlineto
          hintmask 01101110
          -45.83398 -181 396 267 0 114 rlineto
          -699.41602 82 rmoveto
          -47.66699 24 -7.33301 20 0 33 0 32 18.33301 27 36.66699 7 rrcurveto
          155.83301 -435 rmoveto
          0 -45 -44 -47 -37.58301 -9 rrcurveto
          216 vlineto
          45.83301 -25 35.75 -34 0 -56 rrcurveto
          endchar
        </CharString>
        <CharString name="lig.104">
          145 123 86 124 hstem
          463.83301 354 rmoveto
          124 -1222.83301 vlineto
          19.25 13 11.91699 14 11 13 rrcurveto
          33.91602 40 -95.33301 89 -276.83301 -336 276.83301 -336 95.33301 89 -33.91602 40 rlineto
          -11 14 -11.91699 13 -19.25 14 rrcurveto
          1222.83301 123 -1318.16602 hlineto
          -36.66699 43 36.66699 43 rlineto
          endchar
        </CharString>
        <CharString name="lig.105">
          145 123 86 124 hstem
          228.25 647 rmoveto
          -95.33301 -89 33.91602 -40 rlineto
          11 -13 11.91699 -14 19.25 -13 rrcurveto
          -968 hlineto
          19.25 13 11.91699 14 11 13 rrcurveto
          33.91602 40 -95.33301 89 -276.83301 -336 276.83301 -336 95.33301 89 -33.91602 40 rlineto
          -11 14 -11.91699 13 -19.25 14 rrcurveto
          968 hlineto
          -19.25 -14 -11.91699 -13 -11 -14 rrcurveto
          -33.91602 -40 95.33301 -89 276.83301 336 rlineto
          -1359.41602 -43 rmoveto
          -36.66699 43 36.66699 43 1158.66602 0 36.66699 -43 -36.66699 -43 rlineto
          endchar
        </CharString>
        <CharString name="lig.106">
          145 123 86 124 hstem
          -808.5 268 rmoveto
          -36.66699 43 36.66699 43 1100 0 171.41699 204 -95.33398 89 -139.33301 -169 -941.41699 0 rlineto
          19.25 13 11.91699 14 11 13 rrcurveto
          33.91699 40 -95.33398 89 -276.83301 -336 276.83301 -336 95.33398 89 -33.91699 40 rlineto
          -11 14 -11.91699 13 -19.25 14 rrcurveto
          941.41699 0 139.33301 -170 95.33398 89 -171.41699 204 rlineto
          endchar
        </CharString>
        <CharString name="lig.107">
          249 128 hstem
          182.41699 649 rmoveto
          -95.33398 -89 64.16699 -76 rlineto
          38.5 -45 33 -35 39.41699 -27 rrcurveto
          -1074.33398 hlineto
          39.41699 27 33 35 38.5 45 rrcurveto
          64.16699 76 -95.33398 89 -276.83301 -336 276.83301 -336 95.33398 89 -64.16699 76 rlineto
          -37.58301 44 -33.91699 35 -37.58301 28 rrcurveto
          1070.66602 hlineto
          -37.58301 -28 -33.91699 -35 -37.58301 -44 rrcurveto
          -64.16699 -76 95.33398 -89 276.83301 336 rlineto
          endchar
        </CharString>
        <CharString name="lig.108">
          249 128 hstem
          -732.41699 649 rmoveto
          -276.83301 -336 276.83301 -336 95.33398 89 -64.16699 76 rlineto
          -37.58301 44 -33.91699 35 -37.58301 28 rrcurveto
          1261.33301 128 -1263.16699 hlineto
          39.41699 27 33 35 38.5 45 rrcurveto
          64.16699 76 rlineto
          endchar
        </CharString>
        <CharString name="lig.109">
          249 128 hstem
          462.91699 560 rmoveto
          -95.33398 89 -223.66602 -272 -960.66699 0 rlineto
          39.41699 27 33 35 37.58301 45 rrcurveto
          70.58301 83 -87.08301 82 -277.75 -336 277.75 -336 87.08301 82 -70.58301 83 rlineto
          -36.66699 44 -34.83301 35 -36.66699 28 rrcurveto
          958.83398 0 223.66602 -272 95.33398 89 -208.08398 247 rlineto
          endchar
        </CharString>
        <CharString name="lig.11">
          -232.83301 134.75 195.25 134.75 vstem
          -98.08301 810 rmoveto
          64 callsubr
          330 915 rmoveto
          64 callsubr
          endchar
        </CharString>
        <CharString name="lig.110">
          145 123 86 124 hstem
          -637.08301 558 rmoveto
          108 callsubr
          1309.91699 43 rmoveto
          124 -867.16699 vlineto
          19.25 13 11.91699 14 11 13 rrcurveto
          33.91699 40 -95.33398 89 -276.83301 -336 276.83301 -336 95.33398 89 -33.91699 40 rlineto
          -11 14 -11.91699 13 -19.25 14 rrcurveto
          867.16699 123 -962.5 hlineto
          -36.66699 43 36.66699 43 rlineto
          endchar
        </CharString>
        <CharString name="lig.111">
          249 128 hstem
          -732.41699 649 rmoveto
          106 callsubr
          263.08301 89 rmoveto
          -276.83301 -336 276.83301 -336 95.33301 89 -64.16602 76 rlineto
          -36.66699 44 -34.83301 35 -36.66699 28 rrcurveto
          902 128 -903.83301 hlineto
          39.41602 27 33 35 37.58398 45 rrcurveto
          64.16602 76 rlineto
          endchar
        </CharString>
        <CharString name="lig.112">
          -532.58301 602 rmoveto
          88 callsubr
          404.25 111 rmoveto
          88 callsubr
          404.25 111 rmoveto
          87 callsubr
          endchar
        </CharString>
        <CharString name="lig.113">
          17 -21 256 121 256 -20 hstem
          -335.5 120.08301 vstem
          -28.41699 656 rmoveto
          110 callsubr
          -916.66602 284 rmoveto
          111 callsubr
          306.16602 125 rmoveto
          -120.08301 -256 -230.08301 -121 230.08301 -256 120.08301 256 231 121 -231 hlineto
          endchar
        </CharString>
        <CharString name="lig.114">
          -62.33301 679 rmoveto
          35.75 81 -111.83398 57 -323.58301 -732 -357.5 229 297.91699 190 -64.16699 109 -359.33301 -243 0 -113 430.83301 -292 -36.66699 -82 112.75 -56 322.66699 732 385 -245 -297.91699 -191 66 -108 rlineto
          357.5 242 0 114 rlineto
          endchar
        </CharString>
        <CharString name="lig.115">
          21 -21 145 104 197 105 hstem
          518.83301 446 rmoveto
          105 -55.91602 vlineto
          17.41602 142 -119.16602 0 -17.41699 -142 -88 0 17.41699 142 -120.08398 0 -16.5 -142 -223.66602 0 17.41602 142 -119.16602 0 -17.41699 -142 -88 0 17.41699 142 -120.08398 0 -16.5 -142 rlineto
          -223.66602 0 17.41602 142 -119.16602 0 -17.41699 -142 -88 0 17.41699 142 -120.08398 0 -16.5 -142 -70.58301 0 0 -105 57.75 0 -23.83301 -197 -67.83398 0 0 -104 55 0 rlineto
          -16.5 -145 119.16699 0 17.41699 145 88 0 -17.41699 -145 119.16699 0 17.41602 145 222.75 0 -16.5 -145 119.16699 0 17.41699 145 88 0 -17.41699 -145 119.16699 0 17.41602 145 rlineto
          222.75 0 -16.5 -145 119.16699 0 17.41699 145 88 0 -17.41699 -145 119.16699 0 17.41602 145 70.58398 0 0 104 -57.75 0 22.91602 197 rlineto
          -1243 -197 rmoveto
          69 callsubr
          319 -197 rmoveto
          91 callsubr
          183.33301 -197 rmoveto
          69 callsubr
          319 -197 rmoveto
          91 callsubr
          183.33301 -197 rmoveto
          69 callsubr
          endchar
        </CharString>
        <CharString name="lig.116">
          -186 124 83 -21 145 104 197 105 hstem
          92.58301 146.66699 vstem
          239.25 350 rmoveto
          0 165 50.41699 113 122.83301 147 rrcurveto
          -83.41699 83 rlineto
          -144.83301 -136 -91.66699 -153 0 -219 0 -169 58.66699 -134 87.08301 -109 rrcurveto
          -893.75 0 24.75 207 69.66699 0 0 104 -56.83301 0 22.91602 197 67.83398 0 0 105 -55 0 17.41602 142 -119.16602 0 -17.41699 -142 -88 0 17.41699 142 -120.08398 0 rlineto
          -16.5 -142 -70.58301 0 0 -105 57.75 0 -23.83301 -197 -67.83398 0 0 -104 55 0 -16.5 -145 119.16699 0 17.41699 145 88 0 -40.33398 -331 1152.25 -1 78.83398 77 rlineto
          -147.58398 145 -54.08301 132 0 183 rrcurveto
          -977.16699 -101 rmoveto
          69 callsubr
          endchar
        </CharString>
        <CharString name="lig.117">
          145 123 -101 283 -96 124 hstemhm
          -955.16699 260.33398 152.16602 260.33398 hintmask 00111000
          483.08301 478 rmoveto
          -605.91602 -124 605.91602 hlineto
          hintmask 01011000
          -1308.08301 -187 rmoveto
          92 callsubr
          412.5 hmoveto
          75.16699 55 59 82 82 -55 60 -75.16699 -75.16699 -55 -59 -82 -81 55 -61 75.16699 hvcurveto
          hintmask 10011000
          895.58301 101 rmoveto
          -605.91602 -123 605.91602 hlineto
          endchar
        </CharString>
        <CharString name="lig.118">
          -17 223 hstem
          -752.58301 203.5 126.5 203.5 vstem
          239.25 613 rmoveto
          109 callsubr
          -1056 -409 rmoveto
          113 callsubr
          330 hmoveto
          113 callsubr
          endchar
        </CharString>
        <CharString name="lig.119">
          -17 223 hstem
          -742.5 203.5 163.16699 203.5 163.16602 203.5 vstem
          -742.5 95 rmoveto
          93 callsubr
          366.66699 hmoveto
          113 callsubr
          366.66602 hmoveto
          -61 44.91699 -51 56.83301 56.83398 44.91602 51 61 60 -44.91602 51 -56.83398 -56.83301 -44.91699 -51 -60 vhcurveto
          endchar
        </CharString>
        <CharString name="lig.12">
          -123 116 293 128 292 117 hstem
          -332.75 134.75 381.33301 133.83398 vstem
          -332.75 823 rmoveto
          65 callsubr
          309.83301 hmoveto
          -174.16602 -117 174.16602 hlineto
          56.83398 0 11.91602 -13 0.91699 -51 rrcurveto
          1.83301 -123 rlineto
          1.83398 -113 47.66602 -41 92.58398 -15 -98.08398 -16 -44 -39 0 -114 rrcurveto
          -124 vlineto
          -51 -15.58301 -13 -55.91699 vhcurveto
          -174.16602 -116 174.16602 hlineto
          168.66699 36.66699 48 136 hvcurveto
          127 vlineto
          75 47.66602 23 78.83398 vhcurveto
          128 vlineto
          -77.91699 0 -47.66699 23 -0.91602 75 rrcurveto
          -1.83398 119 rlineto
          -1.83301 137 -33 55 -168.66699 0 rrcurveto
          endchar
        </CharString>
        <CharString name="lig.120">
          252 121 hstem
          -793.83301 120.08301 338.25 120.08301 338.25 120.08398 vstem
          -215.41699 252 rmoveto
          338.25 -206 120.08398 206 185.16602 121 -185.16602 206 -120.08398 -206 -338.25 206 -120.08301 -206 -338.25 hlineto
          206 -120.08301 -206 -184.25 -121 184.25 -206 120.08301 206 338.25 -206 120.08301 vlineto
          endchar
        </CharString>
        <CharString name="lig.121">
          145 123 86 124 hstem
          -914.83301 -112 rmoveto
          62 callsubr
          914.83301 533 rmoveto
          97 callsubr
          595.83301 124 rmoveto
          -520.66602 -124 520.66602 hlineto
          -595.83301 -86 rmoveto
          98 callsubr
          595.83301 123 rmoveto
          -520.66602 -123 520.66602 hlineto
          endchar
        </CharString>
        <CharString name="lig.122">
          -869 -112 rmoveto
          62 callsubr
          571.08301 -57 rmoveto
          384.08398 872 -111.83398 57 -385 -872 rlineto
          571.08398 -57 rmoveto
          62 callsubr
          endchar
        </CharString>
        <CharString name="lig.123">
          -186 124 hstem
          -342.83301 134.75 vstem
          -208.08301 -62 rmoveto
          789 -134.75 -789 -573.83398 -124 1283.33398 124 vlineto
          endchar
        </CharString>
        <CharString name="lig.124">
          -17 181 hstemhm
          -861.66699 165 -140.25 116.41699 363 165 -140.25 116.41699 363 165 hintmask 10100100
          -702.16699 693 rmoveto
          76 callsubr
          522.5 438 rmoveto
          -154 0 rlineto
          hintmask 10001100
          77 callsubr
          -562.83398 -91 rmoveto
          hintmask 11000100
          78 callsubr
          504.16699 hmoveto
          hintmask 10010100
          78 callsubr
          504.16699 hmoveto
          -46.75 -35.75 -41 -49 -50 35.75 -41 46.75 45.83301 36.66699 41 50 49 -36.66699 41 -45.83301 hvcurveto
          endchar
        </CharString>
        <CharString name="lig.125">
          21 -21 hstem
          347.41699 531 rmoveto
          -32.08398 -432 -50.41602 365 -121.91699 0 -55 -365 -63.25 365 -122.83301 0 -51.33398 -365 -65.08301 365 -117.33301 0 -65.08398 -365 -51.33301 365 -122.83301 0 -63.25 -365 -54.08398 365 -121.91602 0 rlineto
          -51.33398 -365 -32.08301 432 -132.91699 0 72.41699 -531 156.75 0 47.66699 357 56.83301 -357 122.83301 0 58.66699 357 56.83301 -357 122.83398 0 58.66602 357 58.66699 -357 122.83301 0 56.83398 357 rlineto
          58.66602 -357 121.91699 0 57.75 357 46.75 -357 157.66699 0 71.5 531 rlineto
          endchar
        </CharString>
        <CharString name="lig.126">
          -1221 111.83301 309.83398 111.83301 291.5 111.83301 vstem
          -1109.16699 711 rmoveto
          99 callsubr
          421.66699 797 rmoveto
          99 callsubr
          403.33301 797 rmoveto
          66 callsubr
          -512.41699 -306 rmoveto
          67 callsubr
          endchar
        </CharString>
        <CharString name="lig.127">
          -815.83301 111.83301 291.5 111.83301 309.83398 111.83301 vstem
          -815.83301 711 rmoveto
          83 callsubr
          291.5 hmoveto
          112 callsubr
          309.83398 hmoveto
          112 callsubr
          -936.83301 -646 rmoveto
          84 callsubr
          endchar
        </CharString>
        <CharString name="lig.128">
          -17 181 88 122 hstemhm
          -1182.5 165 -140.25 116.41699 hintmask 11010000
          -1023 693 rmoveto
          76 callsubr
          -332.75 394 rmoveto
          -276.83398 -336 276.83398 -336 95.33301 89 -64.16699 76 rlineto
          -37.58301 44 -33.91699 35 -37.58301 28 rrcurveto
          192.5 128 -194.33301 hlineto
          39.41602 27 33 35 38.5 45 rrcurveto
          64.16699 76 rlineto
          352 -308 rmoveto
          1377.75 122 -1377.75 hlineto
          -173.25 -210 rmoveto
          hintmask 11100000
          78 callsubr
          endchar
        </CharString>
        <CharString name="lig.129">
          21 -21 145 104 197 105 hstem
          518.83301 446 rmoveto
          105 -55.91602 vlineto
          17.41602 142 -119.16602 0 -17.41699 -142 -88 0 17.41699 142 -120.08398 0 -16.5 -142 -223.66602 0 17.41602 142 -119.16602 0 -17.41699 -142 -88 0 17.41699 142 -120.08398 0 -16.5 -142 rlineto
          -223.66602 0 17.41602 142 -119.16602 0 -17.41699 -142 -88 0 17.41699 142 -120.08398 0 -16.5 -142 -223.66602 0 17.41602 142 -119.16602 0 -17.41699 -142 -88 0 17.41699 142 -120.08398 0 rlineto
          -16.5 -142 -70.58301 0 0 -105 57.75 0 -23.83301 -197 -67.83398 0 0 -104 55 0 -16.5 -145 119.16699 0 17.41699 145 88 0 -17.41699 -145 119.16699 0 17.41602 145 rlineto
          222.75 0 -16.5 -145 119.16699 0 17.41699 145 88 0 -17.41699 -145 119.16699 0 17.41602 145 222.75 0 -16.5 -145 119.16699 0 17.41699 145 88 0 -17.41699 -145 119.16699 0 rlineto
          17.41602 145 222.75 0 -16.5 -145 119.16699 0 17.41699 145 88 0 -17.41699 -145 119.16699 0 17.41602 145 70.58398 0 0 104 -57.75 0 22.91602 197 rlineto
          -1793 -197 rmoveto
          69 callsubr
          319 -197 rmoveto
          91 callsubr
          183.33301 -197 rmoveto
          69 callsubr
          319 -197 rmoveto
          91 callsubr
          183.33301 -197 rmoveto
          69 callsubr
          319 -197 rmoveto
          91 callsubr
          183.33301 -197 rmoveto
          69 callsubr
          endchar
        </CharString>
        <CharString name="lig.13">
          -123 117 711 118 hstem
          -334.58301 134.75 378.58301 136.58301 vstem
          -334.58301 823 rmoveto
          65 callsubr
          515.16602 -946 rmoveto
          946 -380.41602 -118 243.83301 -711 -243.83301 -117 vlineto
          endchar
        </CharString>
        <CharString name="lig.130">
          145 123 86 124 hstem
          228.25 647 rmoveto
          -95.33301 -89 33.91602 -40 rlineto
          11 -13 11.91699 -14 19.25 -13 rrcurveto
          -1518 hlineto
          19.25 13 11.91699 14 11 13 rrcurveto
          33.91602 40 -95.33301 89 -276.83301 -336 276.83301 -336 95.33301 89 -33.91602 40 rlineto
          -11 14 -11.91699 13 -19.25 14 rrcurveto
          1518 hlineto
          -19.25 -14 -11.91699 -13 -11 -14 rrcurveto
          -33.91602 -40 95.33301 -89 276.83301 336 rlineto
          -1909.41602 -43 rmoveto
          -36.66699 43 36.66699 43 1708.66602 0 36.66699 -43 -36.66699 -43 rlineto
          endchar
        </CharString>
        <CharString name="lig.14">
          145 123 86 124 hstem
          -342.83301 134.75 vstem
          391.41699 354 rmoveto
          124 -599.5 249 -134.75 -832 134.75 250 599.5 123 -599.5 86 vlineto
          endchar
        </CharString>
        <CharString name="lig.15">
          -304.33301 111.83301 vstem
          -192.5 711 rmoveto
          66 callsubr
          -512.41699 -306 rmoveto
          67 callsubr
          endchar
        </CharString>
        <CharString name="lig.16">
          252 122 hstem
          -342.83301 134.75 vstem
          391.41699 374 rmoveto
          -599.5 353 -134.75 -832 134.75 357 599.5 hlineto
          endchar
        </CharString>
        <CharString name="lig.17">
          -123 116 293 128 292 117 hstem
          -317.16699 133.83398 381.33301 134.75 vstem
          -111.83301 823 rmoveto
          -168.66699 0 -33 -55 -1.83301 -137 rrcurveto
          -1.83398 -119 rlineto
          -0.91602 -75 -47.66699 -23 -77.91699 0 rrcurveto
          -128 vlineto
          78.83398 47.66602 -23 -75 hvcurveto
          -127 vlineto
          -136 36.66699 -48 168.66699 vhcurveto
          174.16602 116 -174.16602 hlineto
          -55.91699 -15.58301 13 51 hvcurveto
          124 vlineto
          0 114 -44 39 -98.08398 16 92.58398 15 47.66602 41 1.83398 113 rrcurveto
          1.83301 123 rlineto
          0.91699 51 11.91602 13 56.83398 0 rrcurveto
          174.16602 117 hlineto
          270.41699 hmoveto
          68 callsubr
          endchar
        </CharString>
        <CharString name="lig.18">
          -123 117 711 118 hstem
          -315.33301 136.58301 378.58301 134.75 vstem
          -315.33301 -123 rmoveto
          380.41602 117 -243.83301 711 243.83301 118 -380.41602 hlineto
          649.91602 hmoveto
          68 callsubr
          endchar
        </CharString>
        <CharString name="lig.19">
          -123 118 26 -21 145 104 197 105 154 118 hstemhm
          -425.33301 282.33301 -136.58301 136.58301 hintmask 11111010
          463.83301 446 rmoveto
          105 -55.91602 vlineto
          17.41602 142 -119.16602 0 -17.41699 -142 -88 0 17.41699 142 -120.08398 0 -16.5 -142 -224.58301 0 rlineto
          hintmask 11111100
          272 -282.33301 -118 vlineto
          hintmask 11111010
          145.75 -710 hlineto
          hintmask 11111100
          -145.75 -118 282.33301 hlineto
          hintmask 11111010
          268 175.08301 vlineto
          -16.5 -145 119.16699 0 17.41699 145 88 0 -17.41699 -145 119.16699 0 17.41602 145 70.58398 0 0 104 -57.75 0 22.91602 197 rlineto
          -350.16602 -197 rmoveto
          -187.91699 197 211.75 hlineto
          183.33301 -197 rmoveto
          69 callsubr
          endchar
        </CharString>
        <CharString name="lig.2">
          145 123 86 124 hstem
          -7.33301 478 rmoveto
          -155.83398 286 -132 0 -173.25 -317 143 0 95.33398 199 144.83301 -292 522.5 0 0 124 rlineto
          -522.5 -333 rmoveto
          522.5 123 -522.5 hlineto
          endchar
        </CharString>
        <CharString name="lig.20">
          -17 209 138 209 hstem
          -279.58301 191.58301 175.08301 191.58398 vstem
          -279.58301 434 rmoveto
          -57 42.16602 -47 54.08398 54.08301 41.25 47 57 57 -41.25 48 -54.08301 -54.08398 -42.16602 -48 -57 vhcurveto
          366.66602 hmoveto
          70 callsubr
          -366.66602 -345 rmoveto
          -58 42.16602 -48 54.08398 54.08301 41.25 48 58 56 -41.25 47 -54.08301 -54.08398 -42.16602 -47 -56 vhcurveto
          366.66602 hmoveto
          71 callsubr
          endchar
        </CharString>
        <CharString name="lig.21">
          83 208 -146 123 62 209 -185 124 hstemhm
          -352 192.5 hintmask 00101000
          -352 434 rmoveto
          72 callsubr
          hintmask 00011000
          835.08301 44 rmoveto
          -537.16602 -124 537.16602 hlineto
          -835.08301 -166 rmoveto
          hintmask 10001000
          73 callsubr
          hintmask 01001000
          835.08301 80 rmoveto
          -537.16602 -123 537.16602 hlineto
          endchar
        </CharString>
        <CharString name="lig.22">
          14 -21 38 209 138 209 45 -20 hstem
          -398.75 191.58301 vstem
          -3.66699 632 rmoveto
          0 -141 319 -177 -319 -177 0 -144 466.58398 264 0 114 rlineto
          -861.66699 111 rmoveto
          74 callsubr
          -345 vmoveto
          75 callsubr
          endchar
        </CharString>
        <CharString name="lig.23">
          -91 150 -48 -21 606 138 hstemhm
          -396.91699 129.25 55 74.25 81.58398 134.75 hintmask 10111100
          64.16699 656 rmoveto
          -80.66699 57 -46.75 15 -75.16699 7 rrcurveto
          121 -74.25 -122 vlineto
          -113.66602 -13 -70.58398 -101 0 -109 0 -94 52.25 -61 132 -48 rrcurveto
          -249 vlineto
          -54.08301 4 -55.91699 16 -79.75 49 rrcurveto
          -157 vlineto
          63.25 -41 36.66699 -14 89.83301 -7 rrcurveto
          -71 74.25 78 vlineto
          146.66699 14 69.66699 141 0 113 0 107 -93.5 87 -122.83398 44 rrcurveto
          175 vlineto
          37.58398 -3 66 -33 99 -62 rrcurveto
          297 -185 -224.58398 -143 rlineto
          hintmask 01111100
          -45.83301 -181 396 267 0 114 rlineto
          -699.41699 82 rmoveto
          -47.66602 24 -7.33398 20 0 33 0 32 18.33398 27 36.66602 7 rrcurveto
          155.83398 -435 rmoveto
          0 -45 -44 -47 -37.58398 -9 rrcurveto
          216 vlineto
          45.83398 -25 35.75 -34 0 -56 rrcurveto
          endchar
        </CharString>
        <CharString name="lig.24">
          145 123 86 124 hstem
          483.08301 478 rmoveto
          -966.16602 -124 966.16602 hlineto
          -86 vmoveto
          -966.16602 -123 966.16602 hlineto
          endchar
        </CharString>
        <CharString name="lig.25">
          145 123 86 124 hstem
          228.25 647 rmoveto
          -95.33301 -89 33.91602 -40 rlineto
          11 -13 11.91699 -14 19.25 -13 rrcurveto
          -672.83301 -124 768.16602 hlineto
          36.66699 -43 -36.66699 -43 -768.16602 0 0 -123 672.83301 0 rlineto
          -19.25 -14 -11.91699 -13 -11 -14 rrcurveto
          -33.91602 -40 95.33301 -89 276.83301 336 rlineto
          endchar
        </CharString>
        <CharString name="lig.26">
          145 123 86 124 hstem
          483.08301 354 rmoveto
          124 -327.25 vlineto
          87.08398 160 -104.5 56 -118.25 -216 -503.25 0 0 -124 435.41602 0 -46.75 -86 -388.66602 0 0 -123 320.83301 0 -80.66699 -148 106.33398 -58 111.83301 206 507.83301 0 0 123 rlineto
          -440.91602 0 46.75 86 rlineto
          endchar
        </CharString>
        <CharString name="lig.27">
          -17 181 hstemhm
          -247.5 165 -140.25 116.41699 188.83301 165 -140.25 116.41699 hintmask 10100000
          -88 693 rmoveto
          76 callsubr
          348.33301 438 rmoveto
          -154 0 rlineto
          hintmask 10001000
          77 callsubr
          -388.66699 -91 rmoveto
          hintmask 11000000
          78 callsubr
          330 hmoveto
          hintmask 10010000
          78 callsubr
          endchar
        </CharString>
        <CharString name="lig.28">
          638 -20 hstem
          -230.08301 33 rmoveto
          507.83301 246 0 113 -507.83301 246 -46.75 -114 392.33301 -188 -392.33301 -188 rlineto
          537.16602 -16 rmoveto
          -506.91602 -244 45.83301 -115 507.83301 247 rlineto
          endchar
        </CharString>
        <CharString name="lig.29">
          -429.91699 602 rmoveto
          79 callsubr
          45.83398 231 rmoveto
          80 callsubr
          endchar
        </CharString>
        <CharString name="lig.3">
          210 120 -20 120 hstemhm
          hintmask 10000000
          349.25 408 rmoveto
          52 callsubr
          hintmask 01000000
          53 callsubr
          hintmask 10000000
          54 callsubr
          hintmask 01000000
          55 callsubr
          hintmask 10000000
          56 callsubr
          hintmask 01000000
          57 callsubr
          hintmask 10000000
          58 callsubr
          endchar
        </CharString>
        <CharString name="lig.30">
          252 122 hstem
          451 374 rmoveto
          -589.41699 0 -226.41602 275 -95.33398 -89 208.08398 -247 -208.08398 -247 95.33398 -89 226.41602 275 589.41699 0 rlineto
          endchar
        </CharString>
        <CharString name="lig.31">
          210 120 -78 122 -64 120 hstemhm
          hintmask 10000000
          375.83301 408 rmoveto
          52 callsubr
          hintmask 00100000
          53 callsubr
          hintmask 01000000
          -82.5 0 -17.41699 -56 -67.83301 0 rrcurveto
          -396 -122 420.75 hlineto
          hintmask 00100000
          77.91699 -1 3.66602 59 57.75 0 rrcurveto
          hintmask 10000000
          55 0 38.5 -100 88 0 81.58398 0 45.83301 66 38.5 93 rrcurveto
          endchar
        </CharString>
        <CharString name="lig.32">
          252 122 hstem
          208.08301 134.75 vstem
          208.08301 727 rmoveto
          -353 -599.5 -122 599.5 -357 134.75 832 vlineto
          endchar
        </CharString>
        <CharString name="lig.33">
          249 128 hstem
          182.41699 649 rmoveto
          -95.33398 -89 64.16699 -76 rlineto
          38.5 -45 33 -35 39.41699 -27 rrcurveto
          -713.16699 -128 711.33301 hlineto
          -37.58301 -28 -33.91699 -35 -37.58301 -44 rrcurveto
          -64.16699 -76 95.33398 -89 276.83301 336 rlineto
          endchar
        </CharString>
        <CharString name="lig.34">
          252 122 hstem
          -413.41699 252 rmoveto
          81 callsubr
          448.25 -122 rmoveto
          81 callsubr
          endchar
        </CharString>
        <CharString name="lig.35">
          252 122 hstem
          460.16699 560 rmoveto
          -95.33398 89 -226.41602 -275 -589.41699 0 0 -122 589.41699 0 226.41602 -275 95.33398 89 -208.08398 247 rlineto
          endchar
        </CharString>
        <CharString name="lig.36">
          204 122 -22 128 hstemhm
          hintmask 10000000
          235.58301 426 rmoveto
          -125.58301 0 -6.41699 -100 -51.33301 0 rrcurveto
          hintmask 01000000
          -50.41699 0 -8.25 106 -124.66602 0 -136.58398 0 15.58398 -87 -78.83398 7 rrcurveto
          25 vlineto
          37.58398 28 33.91602 35 37.58398 44 rrcurveto
          64.16602 76 -95.33301 89 -276.83301 -336 276.83301 -336 95.33301 89 -64.16602 76 rlineto
          -25.66699 30 -23.83301 26 -23.83398 22 115.5 2 -1.83301 82 50.41699 0 rrcurveto
          hintmask 10000000
          51.33301 0 6.41699 -100 125.58301 0 rrcurveto
          hintmask 01000000
          125.58301 0 6.41699 100 51.33301 0 28.41699 0 29.33301 -37 14.66699 -40 rrcurveto
          104.5 52 rlineto
          -26.58301 88 -84.33398 59 -66 0 rrcurveto
          -568.33301 -177 rmoveto
          0.91699 64 0 -65 rlineto
          1 -0.91699 0 0 vhcurveto
          endchar
        </CharString>
        <CharString name="lig.37">
          631 -20 hstem
          -17.41699 655 rmoveto
          82 callsubr
          184.25 127 rmoveto
          15.58398 -243 -206.25 89 -36.66699 -125 213.58301 -61 -128.33301 -169 100.83301 -80 102.66699 189 115.5 -197 99.91699 80 -139.33398 176 214.5 59 -37.58301 125 -205.33301 -87 14.66602 244 rlineto
          endchar
        </CharString>
        <CharString name="lig.38">
          192.5 111.83301 vstem
          192.5 711 rmoveto
          83 callsubr
          -111.83301 -646 rmoveto
          84 callsubr
          endchar
        </CharString>
        <CharString name="lig.39">
          14 -21 38 209 138 209 45 -20 hstem
          207.16699 191.58301 vstem
          3.66699 632 rmoveto
          -466.58398 -261 0 -114 466.58398 -264 0 144 -319 177 319 177 rlineto
          395.08301 -9 rmoveto
          85 callsubr
          -345 vmoveto
          86 callsubr
          endchar
        </CharString>
        <CharString name="lig.4">
          -94 98 -53 99 160 120 -20 120 -81 99 165 98 hstemhm
          13.75 130.16699 97.16602 121.91699 75.16699 110.91602 hintmask 0010011110000000
          263.08301 711 rmoveto
          -59.58301 0 -117.33301 -4 -79.75 -82 -53.16699 -54 -29.33301 -110 -24.75 -53 -23.83398 -51 -22.91602 -27 -34.83398 0 rrcurveto
          hintmask 0001011110000000
          -55 0 -36.66602 100 -89.83398 0 -82.5 0 -46.75 -75 -36.66602 -83 rrcurveto
          80.66602 -40 rlineto
          23.83398 48 22 30 35.75 0 rrcurveto
          hintmask 1010111110000000
          55 0 38.5 -100 88 0 81.58301 0 46.75 66 37.58301 93 21.08398 51 25.66602 88 43.08398 44 59.58301 65 87.08301 -4 39.41699 0 rrcurveto
          146.66699 35.75 -117 -209 -206 -2.75 -77 -35.75 -24.75 -11.91699 26 74 hvcurveto
          300 vlineto
          -50.41699 30 -55 14 -48.58301 0 rrcurveto
          -132.91699 -62.33301 -105 -164 hvcurveto
          hintmask 0100011110000000
          -129 39.41699 -99 109.08301 vhcurveto
          65.08301 0 43.08398 42 20.16602 51 rrcurveto
          3.66699 hlineto
          hintmask 1010011110000000
          8.25 -75 32.08301 -63 69.66699 0 rrcurveto
          117.33301 27.5 138 252 hvcurveto
          249 -68.75 166 -217.25 vhcurveto
          -22 -590 rmoveto
          hintmask 0100111110000000
          -3.66602 -31 -8.25 -40 -40.33398 0 rrcurveto
          -34.83301 -10.08301 38 91 128 13.75 42 48.58301 hvcurveto
          13.75 0 10.08301 -3 11 -6 rrcurveto
          endchar
        </CharString>
        <CharString name="lig.40">
          -91 150 537 138 -100 -20 hstemhm
          -30.25 129.25 55 74.25 81.58301 134.75 hintmask 11011100
          228.25 422 rmoveto
          175 vlineto
          37.58301 -3 66 -33 99 -62 rrcurveto
          157 vlineto
          -80.66602 57 -46.75 15 -75.16699 7 rrcurveto
          121 -74.25 -122 vlineto
          -113.66699 -13 -70.58301 -101 0 -109 0 -94 52.25 -61 132 -48 rrcurveto
          -249 vlineto
          -54.08301 4 -55.91699 16 -79.75 49 rrcurveto
          -297.91699 186 233.75 150 rlineto
          hintmask 10111100
          28.41699 170 -387.75 -264 0 -113 423.5 -286 rlineto
          63.25 -41 36.66699 -14 89.83301 -7 rrcurveto
          -71 74.25 78 vlineto
          146.66699 14 69.66602 141 0 113 rrcurveto
          0 107 -93.5 87 -122.83301 44 rrcurveto
          -74.25 31 rmoveto
          -47.66699 24 -7.33301 20 0 33 rrcurveto
          hintmask 11011100
          0 32 18.33301 27 36.66699 7 rrcurveto
          74.25 -536 rmoveto
          216 vlineto
          45.83301 -25 35.75 -34 0 -56 0 -45 -44 -47 -37.58301 -9 rrcurveto
          endchar
        </CharString>
        <CharString name="lig.41">
          638 -20 hstem
          276.83301 524 rmoveto
          -46.75 114 -507.83301 -246 0 -113 507.83301 -246 46.75 115 -392.33301 188 rlineto
          -191.58301 -316 rmoveto
          507.83301 -247 45.83301 115 -506.91602 244 rlineto
          endchar
        </CharString>
        <CharString name="lig.42">
          667 vmoveto
          -440.91699 -297 0 -113 440.91699 -297 440.91699 297 0 114 rlineto
          -440.91699 -254 rmoveto
          -315.33301 197 315.33301 201 315.33301 -201 rlineto
          endchar
        </CharString>
        <CharString name="lig.43">
          249 128 hstem
          -182.41699 649 rmoveto
          -276.83301 -336 276.83301 -336 95.33398 89 -64.16699 76 rlineto
          -37.58301 44 -33.91699 35 -37.58301 28 rrcurveto
          711.33301 128 -713.16699 hlineto
          39.41699 27 33 35 38.5 45 rrcurveto
          64.16699 76 rlineto
          endchar
        </CharString>
        <CharString name="lig.44">
          -28.41699 602 rmoveto
          87 callsubr
          404.25 111 rmoveto
          88 callsubr
          endchar
        </CharString>
        <CharString name="lig.45">
          17 -21 256 121 256 -20 hstem
          168.66699 120.08301 vstem
          -17.41699 655 rmoveto
          82 callsubr
          306.16699 125 rmoveto
          -120.08301 -256 -230.08398 -121 230.08398 -256 120.08301 256 231 121 -231 hlineto
          endchar
        </CharString>
        <CharString name="lig.46">
          319.91699 817 rmoveto
          -323.58398 -732 -357.5 229 297.91699 190 -64.16699 109 -359.33301 -243 0 -113 430.83301 -292 -36.66602 -82 112.75 -56 411.58301 933 rlineto
          endchar
        </CharString>
        <CharString name="lig.47">
          -140 110 51 -21 145 104 37 128 32 105 179 110 hstem
          428.08301 730 rmoveto
          110 vlineto
          -168.66602 0 -64.16699 -49 13.75 -136 rrcurveto
          10.08301 -104 -251.16602 0 17.41602 142 -119.16602 0 -17.41699 -142 -88 0 17.41699 142 -120.08398 0 -16.5 -142 -70.58301 0 0 -105 57.75 0 -23.83301 -197 -67.83398 0 0 -104 rlineto
          55 0 -16.5 -145 119.16699 0 17.41699 145 88 0 -17.41699 -145 119.16699 0 17.41602 145 299.75 0 -10.08301 -101 rlineto
          -12.83301 -134 63.25 -50 168.66602 0 rrcurveto
          110 vlineto
          -55.91602 0 -33.91699 13 4.58301 50 rrcurveto
          13.75 148 rlineto
          11 113 -55 40 -98.08301 16 92.58301 15 60.5 42 -11 112 rrcurveto
          -13.75 148 rlineto
          -4.58301 50 33 13 56.83301 0 rrcurveto
          -616 -481 rmoveto
          69 callsubr
          119.16602 hmoveto
          249.33398 hlineto
          -22 -24 -38.5 -8 -47.66699 0 rrcurveto
          -128 vlineto
          51.33301 0 41.25 -10 20.16699 -27 rrcurveto
          -276.83301 hlineto
          endchar
        </CharString>
</ttFont>
